G04 #@! TF.FileFunction,Soldermask,Bot*
%FSLAX46Y46*%
G04 Gerber Fmt 4.6, Leading zero omitted, Abs format (unit mm)*
G04 Created by KiCad (PCBNEW 4.0.2-stable) date 3/23/2016 2:13:11 PM*
%MOMM*%
G01*
G04 APERTURE LIST*
%ADD10C,0.100000*%
%ADD11C,0.381000*%
%ADD12R,1.727200X2.032000*%
%ADD13O,1.727200X2.032000*%
%ADD14R,1.727200X1.727200*%
%ADD15O,1.727200X1.727200*%
%ADD16C,2.500000*%
%ADD17R,2.500000X2.500000*%
%ADD18R,1.500000X1.500000*%
%ADD19C,1.500000*%
%ADD20R,2.032000X2.032000*%
%ADD21O,2.032000X2.032000*%
%ADD22R,2.032000X1.727200*%
%ADD23O,2.032000X1.727200*%
%ADD24C,1.300000*%
%ADD25R,1.300000X1.300000*%
%ADD26C,2.100000*%
G04 APERTURE END LIST*
D10*
D11*
X127815340Y-111805720D02*
X127815340Y-113375440D01*
X127767080Y-112537240D02*
X126977140Y-112527080D01*
X126977140Y-112527080D02*
X126966980Y-112537240D01*
X126966980Y-112537240D02*
X126966980Y-112527080D01*
X126926340Y-111815880D02*
X126926340Y-113357660D01*
X127815340Y-113375440D02*
X127805180Y-113365280D01*
X128686560Y-113337340D02*
X129006600Y-113365280D01*
X128455420Y-113116360D02*
X128686560Y-113337340D01*
X128366520Y-111907320D02*
X128717040Y-111826040D01*
X128496060Y-112816640D02*
X128455420Y-113116360D01*
X128676400Y-112656620D02*
X128496060Y-112816640D01*
X129006600Y-113365280D02*
X129357120Y-113256060D01*
X128717040Y-111826040D02*
X129037080Y-111815880D01*
X129037080Y-111815880D02*
X129275840Y-112016540D01*
X129275840Y-112016540D02*
X129306320Y-112285780D01*
X129306320Y-112285780D02*
X129065020Y-112527080D01*
X129065020Y-112527080D02*
X128676400Y-112656620D01*
X129946400Y-112227360D02*
X130055620Y-111945420D01*
X130395980Y-111805720D02*
X130644900Y-111826040D01*
X130644900Y-111826040D02*
X130886200Y-112067340D01*
X130886200Y-112067340D02*
X130975100Y-112557560D01*
X129895600Y-112636300D02*
X129946400Y-112227360D01*
X130055620Y-111945420D02*
X130416300Y-111815880D01*
X130975100Y-112557560D02*
X130947160Y-112905540D01*
X130947160Y-112905540D02*
X130746500Y-113225580D01*
X130746500Y-113225580D02*
X130495040Y-113347500D01*
X130495040Y-113347500D02*
X130185160Y-113276380D01*
X130185160Y-113276380D02*
X129966720Y-113096040D01*
X129966720Y-113096040D02*
X129895600Y-112636300D01*
X128366520Y-110055660D02*
X128717040Y-111056420D01*
X128996440Y-110896400D02*
X128717040Y-111056420D01*
X130055620Y-110647480D02*
X129517140Y-111165640D01*
X129517140Y-111165640D02*
X128996440Y-110896400D01*
X125707140Y-112255300D02*
X125397260Y-113327180D01*
X126347220Y-111846360D02*
X125986540Y-113317020D01*
X125986540Y-113317020D02*
X125707140Y-112255300D01*
X125397260Y-113327180D02*
X125056900Y-111876840D01*
X126034800Y-110685580D02*
X126316740Y-110205520D01*
X127276860Y-111036100D02*
X126946660Y-110845600D01*
X126946660Y-110845600D02*
X126507240Y-111175800D01*
X126507240Y-111175800D02*
X126034800Y-110685580D01*
X126316740Y-110205520D02*
X126126240Y-109735620D01*
X127665480Y-110055660D02*
X127266700Y-111056420D01*
X127015240Y-109306360D02*
X127015240Y-108907580D01*
X127665480Y-110055660D02*
X127365760Y-109905800D01*
X127365760Y-109905800D02*
X127165100Y-109707680D01*
X127165100Y-109707680D02*
X127015240Y-109306360D01*
X128965960Y-109555280D02*
X128717040Y-109857540D01*
X128866900Y-108605320D02*
X129016760Y-109057440D01*
X129016760Y-109057440D02*
X128965960Y-109555280D01*
X128717040Y-109857540D02*
X128366520Y-110055660D01*
X126126240Y-109735620D02*
X125516640Y-109547660D01*
X125516640Y-109547660D02*
X125516640Y-108866940D01*
X125516640Y-108866940D02*
X126075440Y-108727240D01*
X126075440Y-108727240D02*
X126276100Y-108155740D01*
X127015240Y-108907580D02*
X127165100Y-108557060D01*
X127464820Y-107236260D02*
X127635000Y-106695240D01*
X127165100Y-108557060D02*
X127617220Y-108206540D01*
X127617220Y-108206540D02*
X128066800Y-108155740D01*
X128066800Y-108155740D02*
X128465580Y-108257340D01*
X126994920Y-107436920D02*
X127464820Y-107236260D01*
X126006860Y-107685840D02*
X126476760Y-107175300D01*
X126476760Y-107175300D02*
X126994920Y-107436920D01*
X126276100Y-108155740D02*
X126006860Y-107685840D01*
X129796540Y-110086140D02*
X130055620Y-110647480D01*
X129946400Y-108676440D02*
X130495040Y-108775500D01*
X130495040Y-108775500D02*
X130505200Y-109476540D01*
X130505200Y-109476540D02*
X129946400Y-109677200D01*
X129946400Y-109677200D02*
X129806700Y-110075980D01*
X127635000Y-106695240D02*
X128325880Y-106677460D01*
X128325880Y-106677460D02*
X128536700Y-107226100D01*
X128536700Y-107226100D02*
X128955800Y-107396280D01*
X128955800Y-107396280D02*
X129506980Y-107127040D01*
X129506980Y-107127040D02*
X130025140Y-107655360D01*
X130025140Y-107655360D02*
X129776220Y-108196380D01*
X129776220Y-108196380D02*
X129946400Y-108676440D01*
X128465580Y-108257340D02*
X128866900Y-108605320D01*
D12*
X114300000Y-72136000D03*
D13*
X111760000Y-72136000D03*
X109220000Y-72136000D03*
X106680000Y-72136000D03*
X104140000Y-72136000D03*
D14*
X131127500Y-115443000D03*
D15*
X131127500Y-117983000D03*
X128587500Y-115443000D03*
X128587500Y-117983000D03*
X126047500Y-115443000D03*
X126047500Y-117983000D03*
D12*
X106235500Y-82486500D03*
D13*
X108775500Y-82486500D03*
X111315500Y-82486500D03*
D12*
X92456000Y-117602000D03*
D13*
X94996000Y-117602000D03*
X97536000Y-117602000D03*
X100076000Y-117602000D03*
X102616000Y-117602000D03*
X105156000Y-117602000D03*
D16*
X119460000Y-74930000D03*
D17*
X129460000Y-74930000D03*
D16*
X124460000Y-74930000D03*
D18*
X118618000Y-116078000D03*
D19*
X121118000Y-116078000D03*
D18*
X109982000Y-116078000D03*
D19*
X112482000Y-116078000D03*
D18*
X93980000Y-108204000D03*
D19*
X93980000Y-110704000D03*
D18*
X93980000Y-99568000D03*
D19*
X93980000Y-102068000D03*
D20*
X92329000Y-89598500D03*
D21*
X92329000Y-87058500D03*
D22*
X128397000Y-100647500D03*
D23*
X128397000Y-98107500D03*
X128397000Y-95567500D03*
X128397000Y-93027500D03*
D24*
X97296000Y-78234000D03*
X97296000Y-76194000D03*
D25*
X97296000Y-80274000D03*
D24*
X94756000Y-75174000D03*
X94756000Y-77214000D03*
X94756000Y-79254000D03*
D26*
X92456000Y-83724000D03*
X92456000Y-71724000D03*
D18*
X135890000Y-99742000D03*
D19*
X135890000Y-97242000D03*
X135890000Y-94742000D03*
D18*
X135890000Y-110664000D03*
D19*
X135890000Y-108164000D03*
X135890000Y-105664000D03*
D18*
X135890000Y-77978000D03*
D19*
X135890000Y-75478000D03*
X135890000Y-72978000D03*
D18*
X135890000Y-88820000D03*
D19*
X135890000Y-86320000D03*
X135890000Y-83820000D03*
M02*
