%FSLAX45Y45*%
G04 Gerber Fmt 4.5, Leading zero omitted, Abs format (unit mm)*
G04 Created by KiCad (PCBNEW 4.0.2-stable) date 3/23/2016 2:13:14 PM*
%MOMM*%
G01*
G04 APERTURE LIST*
%ADD10C,0.127000*%
%ADD11C,0.150000*%
%ADD12C,0.200000*%
%ADD13C,0.300000*%
G04 APERTURE END LIST*
D10*
D11*
X14000000Y-7000000D02*
X9000000Y-7000000D01*
X14000000Y-12000000D02*
X14000000Y-7000000D01*
X9000000Y-12000000D02*
X14000000Y-12000000D01*
X9000000Y-7000000D02*
X9000000Y-12000000D01*
D12*
X9702002Y-10838500D02*
X9742002Y-10878500D01*
X9742002Y-10838500D02*
X9702002Y-10878500D01*
X9860600Y-10292400D02*
X9900600Y-10332400D01*
X9900600Y-10292400D02*
X9860600Y-10332400D01*
X10070150Y-10057450D02*
X10110150Y-10097450D01*
X10110150Y-10057450D02*
X10070150Y-10097450D01*
X10076500Y-10394000D02*
X10116500Y-10434000D01*
X10116500Y-10394000D02*
X10076500Y-10434000D01*
X10286050Y-11213150D02*
X10326050Y-11253150D01*
X10326050Y-11213150D02*
X10286050Y-11253150D01*
X10286050Y-11213150D02*
X10326050Y-11253150D01*
X10326050Y-11213150D02*
X10286050Y-11253150D01*
X10489250Y-11224852D02*
X10529250Y-11264852D01*
X10529250Y-11224852D02*
X10489250Y-11264852D01*
X10559100Y-9866950D02*
X10599100Y-9906950D01*
X10599100Y-9866950D02*
X10559100Y-9906950D01*
X10584500Y-11289350D02*
X10624500Y-11329350D01*
X10624500Y-11289350D02*
X10584500Y-11329350D01*
X10717850Y-11092500D02*
X10757850Y-11132500D01*
X10757850Y-11092500D02*
X10717850Y-11132500D01*
X10784534Y-10635300D02*
X10824534Y-10675300D01*
X10824534Y-10635300D02*
X10784534Y-10675300D01*
X10838500Y-10038400D02*
X10878500Y-10078400D01*
X10878500Y-10038400D02*
X10838500Y-10078400D01*
X10863900Y-10305100D02*
X10903900Y-10345100D01*
X10903900Y-10305100D02*
X10863900Y-10345100D01*
X10908350Y-7466650D02*
X10948350Y-7506650D01*
X10948350Y-7466650D02*
X10908350Y-7506650D01*
X10959150Y-10965500D02*
X10999150Y-11005500D01*
X10999150Y-10965500D02*
X10959150Y-11005500D01*
X10980751Y-10875959D02*
X11020751Y-10915959D01*
X11020751Y-10875959D02*
X10980751Y-10915959D01*
X11060750Y-10876600D02*
X11100750Y-10916600D01*
X11100750Y-10876600D02*
X11060750Y-10916600D01*
X11069640Y-9299260D02*
X11109640Y-9339260D01*
X11109640Y-9299260D02*
X11069640Y-9339260D01*
X11181400Y-10501950D02*
X11221400Y-10541950D01*
X11221400Y-10501950D02*
X11181400Y-10541950D01*
X11251250Y-9663750D02*
X11291250Y-9703750D01*
X11291250Y-9663750D02*
X11251250Y-9703750D01*
X11276650Y-10032050D02*
X11316650Y-10072050D01*
X11316650Y-10032050D02*
X11276650Y-10072050D01*
X11276650Y-10933750D02*
X11316650Y-10973750D01*
X11316650Y-10933750D02*
X11276650Y-10973750D01*
X11289350Y-7638100D02*
X11329350Y-7678100D01*
X11329350Y-7638100D02*
X11289350Y-7678100D01*
X11289350Y-8355650D02*
X11329350Y-8395650D01*
X11329350Y-8355650D02*
X11289350Y-8395650D01*
X11365550Y-10527350D02*
X11405550Y-10567350D01*
X11405550Y-10527350D02*
X11365550Y-10567350D01*
X11440262Y-10760812D02*
X11480262Y-10800812D01*
X11480262Y-10760812D02*
X11440262Y-10800812D01*
X11460800Y-9276400D02*
X11500800Y-9316400D01*
X11500800Y-9276400D02*
X11460800Y-9316400D01*
X11714800Y-9746300D02*
X11754800Y-9786300D01*
X11754800Y-9746300D02*
X11714800Y-9786300D01*
X11730040Y-9634540D02*
X11770040Y-9674540D01*
X11770040Y-9634540D02*
X11730040Y-9674540D01*
X11797350Y-10578150D02*
X11837350Y-10618150D01*
X11837350Y-10578150D02*
X11797350Y-10618150D01*
X11981500Y-9314500D02*
X12021500Y-9354500D01*
X12021500Y-9314500D02*
X11981500Y-9354500D01*
X12063866Y-10914884D02*
X12103866Y-10954884D01*
X12103866Y-10914884D02*
X12063866Y-10954884D01*
X12356150Y-9809800D02*
X12396150Y-9849800D01*
X12396150Y-9809800D02*
X12356150Y-9849800D01*
X12432350Y-8342950D02*
X12472350Y-8382950D01*
X12472350Y-8342950D02*
X12432350Y-8382950D01*
X12470450Y-9098600D02*
X12510450Y-9138600D01*
X12510450Y-9098600D02*
X12470450Y-9138600D01*
X12470450Y-9416100D02*
X12510450Y-9456100D01*
X12510450Y-9416100D02*
X12470450Y-9456100D01*
X9520600Y-7517400D02*
G75*
G03X9520600Y-7517400I-45000J0D01*
G01*
X9520600Y-7721400D02*
G75*
G03X9520600Y-7721400I-45000J0D01*
G01*
X9520600Y-7925400D02*
G75*
G03X9520600Y-7925400I-45000J0D01*
G01*
X9774600Y-7619400D02*
G75*
G03X9774600Y-7619400I-45000J0D01*
G01*
X9774600Y-7823400D02*
G75*
G03X9774600Y-7823400I-45000J0D01*
G01*
X9774600Y-8027400D02*
G75*
G03X9774600Y-8027400I-45000J0D01*
G01*
X9232900Y-8655050D02*
X9232900Y-8756650D01*
X9182100Y-8705850D02*
X9283700Y-8705850D01*
X9232900Y-8909050D02*
X9232900Y-9010650D01*
X9182100Y-8959850D02*
X9283700Y-8959850D01*
X9245600Y-11709400D02*
X9245600Y-11811000D01*
X9194800Y-11760200D02*
X9296400Y-11760200D01*
X9398000Y-9906000D02*
X9398000Y-10007600D01*
X9347200Y-9956800D02*
X9448800Y-9956800D01*
X9398000Y-10156000D02*
X9398000Y-10257600D01*
X9347200Y-10206800D02*
X9448800Y-10206800D01*
X9398000Y-10769600D02*
X9398000Y-10871200D01*
X9347200Y-10820400D02*
X9448800Y-10820400D01*
X9398000Y-11019600D02*
X9398000Y-11121200D01*
X9347200Y-11070400D02*
X9448800Y-11070400D01*
X9499600Y-11709400D02*
X9499600Y-11811000D01*
X9448800Y-11760200D02*
X9550400Y-11760200D01*
X9753600Y-11709400D02*
X9753600Y-11811000D01*
X9702800Y-11760200D02*
X9804400Y-11760200D01*
X10007600Y-11709400D02*
X10007600Y-11811000D01*
X9956800Y-11760200D02*
X10058400Y-11760200D01*
X10261600Y-11709400D02*
X10261600Y-11811000D01*
X10210800Y-11760200D02*
X10312400Y-11760200D01*
X10414000Y-7162800D02*
X10414000Y-7264400D01*
X10363200Y-7213600D02*
X10464800Y-7213600D01*
X10515600Y-11709400D02*
X10515600Y-11811000D01*
X10464800Y-11760200D02*
X10566400Y-11760200D01*
X10623550Y-8197850D02*
X10623550Y-8299450D01*
X10572750Y-8248650D02*
X10674350Y-8248650D01*
X10668000Y-7162800D02*
X10668000Y-7264400D01*
X10617200Y-7213600D02*
X10718800Y-7213600D01*
X10877550Y-8197850D02*
X10877550Y-8299450D01*
X10826750Y-8248650D02*
X10928350Y-8248650D01*
X10922000Y-7162800D02*
X10922000Y-7264400D01*
X10871200Y-7213600D02*
X10972800Y-7213600D01*
X10998200Y-11557000D02*
X10998200Y-11658600D01*
X10947400Y-11607800D02*
X11049000Y-11607800D01*
X11131550Y-8197850D02*
X11131550Y-8299450D01*
X11080750Y-8248650D02*
X11182350Y-8248650D01*
X11176000Y-7162800D02*
X11176000Y-7264400D01*
X11125200Y-7213600D02*
X11226800Y-7213600D01*
X11248200Y-11557000D02*
X11248200Y-11658600D01*
X11197400Y-11607800D02*
X11299000Y-11607800D01*
X11430000Y-7162800D02*
X11430000Y-7264400D01*
X11379200Y-7213600D02*
X11480800Y-7213600D01*
X11861800Y-11557000D02*
X11861800Y-11658600D01*
X11811000Y-11607800D02*
X11912600Y-11607800D01*
X12111800Y-11557000D02*
X12111800Y-11658600D01*
X12061000Y-11607800D02*
X12162600Y-11607800D01*
X12604750Y-11493500D02*
X12604750Y-11595100D01*
X12553950Y-11544300D02*
X12655550Y-11544300D01*
X12604750Y-11747500D02*
X12604750Y-11849100D01*
X12553950Y-11798300D02*
X12655550Y-11798300D01*
X12839700Y-9251950D02*
X12839700Y-9353550D01*
X12788900Y-9302750D02*
X12890500Y-9302750D01*
X12839700Y-9505950D02*
X12839700Y-9607550D01*
X12788900Y-9556750D02*
X12890500Y-9556750D01*
X12839700Y-9759950D02*
X12839700Y-9861550D01*
X12788900Y-9810750D02*
X12890500Y-9810750D01*
X12839700Y-10013950D02*
X12839700Y-10115550D01*
X12788900Y-10064750D02*
X12890500Y-10064750D01*
X12858750Y-11493500D02*
X12858750Y-11595100D01*
X12807950Y-11544300D02*
X12909550Y-11544300D01*
X12858750Y-11747500D02*
X12858750Y-11849100D01*
X12807950Y-11798300D02*
X12909550Y-11798300D01*
X13112750Y-11493500D02*
X13112750Y-11595100D01*
X13061950Y-11544300D02*
X13163550Y-11544300D01*
X13112750Y-11747500D02*
X13112750Y-11849100D01*
X13061950Y-11798300D02*
X13163550Y-11798300D01*
X13589000Y-7247000D02*
X13589000Y-7348600D01*
X13538200Y-7297800D02*
X13639800Y-7297800D01*
X13589000Y-7497000D02*
X13589000Y-7598600D01*
X13538200Y-7547800D02*
X13639800Y-7547800D01*
X13589000Y-7747000D02*
X13589000Y-7848600D01*
X13538200Y-7797800D02*
X13639800Y-7797800D01*
X13589000Y-8331200D02*
X13589000Y-8432800D01*
X13538200Y-8382000D02*
X13639800Y-8382000D01*
X13589000Y-8581200D02*
X13589000Y-8682800D01*
X13538200Y-8632000D02*
X13639800Y-8632000D01*
X13589000Y-8831200D02*
X13589000Y-8932800D01*
X13538200Y-8882000D02*
X13639800Y-8882000D01*
X13589000Y-9423400D02*
X13589000Y-9525000D01*
X13538200Y-9474200D02*
X13639800Y-9474200D01*
X13589000Y-9673400D02*
X13589000Y-9775000D01*
X13538200Y-9724200D02*
X13639800Y-9724200D01*
X13589000Y-9923400D02*
X13589000Y-10025000D01*
X13538200Y-9974200D02*
X13639800Y-9974200D01*
X13589000Y-10515600D02*
X13589000Y-10617200D01*
X13538200Y-10566400D02*
X13639800Y-10566400D01*
X13589000Y-10765600D02*
X13589000Y-10867200D01*
X13538200Y-10816400D02*
X13639800Y-10816400D01*
X13589000Y-11015600D02*
X13589000Y-11117200D01*
X13538200Y-11066400D02*
X13639800Y-11066400D01*
X11991962Y-7538962D02*
X11991962Y-7447038D01*
X11900038Y-7447038D01*
X11900038Y-7538962D01*
X11991962Y-7538962D01*
X12491962Y-7538962D02*
X12491962Y-7447038D01*
X12400038Y-7447038D01*
X12400038Y-7538962D01*
X12491962Y-7538962D01*
X12991962Y-7538962D02*
X12991962Y-7447038D01*
X12900038Y-7447038D01*
X12900038Y-7538962D01*
X12991962Y-7538962D01*
D13*
X9263929Y-12473214D02*
X9263929Y-12173214D01*
X9335357Y-12173214D01*
X9378214Y-12187500D01*
X9406786Y-12216071D01*
X9421071Y-12244643D01*
X9435357Y-12301786D01*
X9435357Y-12344643D01*
X9421071Y-12401786D01*
X9406786Y-12430357D01*
X9378214Y-12458929D01*
X9335357Y-12473214D01*
X9263929Y-12473214D01*
X9563929Y-12473214D02*
X9563929Y-12273214D01*
X9563929Y-12330357D02*
X9578214Y-12301786D01*
X9592500Y-12287500D01*
X9621071Y-12273214D01*
X9649643Y-12273214D01*
X9749643Y-12473214D02*
X9749643Y-12273214D01*
X9749643Y-12173214D02*
X9735357Y-12187500D01*
X9749643Y-12201786D01*
X9763929Y-12187500D01*
X9749643Y-12173214D01*
X9749643Y-12201786D01*
X9935357Y-12473214D02*
X9906786Y-12458929D01*
X9892500Y-12430357D01*
X9892500Y-12173214D01*
X10092500Y-12473214D02*
X10063929Y-12458929D01*
X10049643Y-12430357D01*
X10049643Y-12173214D01*
X10435357Y-12473214D02*
X10435357Y-12173214D01*
X10535357Y-12387500D01*
X10635357Y-12173214D01*
X10635357Y-12473214D01*
X10906786Y-12473214D02*
X10906786Y-12316071D01*
X10892500Y-12287500D01*
X10863929Y-12273214D01*
X10806786Y-12273214D01*
X10778214Y-12287500D01*
X10906786Y-12458929D02*
X10878214Y-12473214D01*
X10806786Y-12473214D01*
X10778214Y-12458929D01*
X10763929Y-12430357D01*
X10763929Y-12401786D01*
X10778214Y-12373214D01*
X10806786Y-12358929D01*
X10878214Y-12358929D01*
X10906786Y-12344643D01*
X11049643Y-12273214D02*
X11049643Y-12573214D01*
X11049643Y-12287500D02*
X11078214Y-12273214D01*
X11135357Y-12273214D01*
X11163929Y-12287500D01*
X11178214Y-12301786D01*
X11192500Y-12330357D01*
X11192500Y-12416071D01*
X11178214Y-12444643D01*
X11163929Y-12458929D01*
X11135357Y-12473214D01*
X11078214Y-12473214D01*
X11049643Y-12458929D01*
X11321071Y-12444643D02*
X11335357Y-12458929D01*
X11321071Y-12473214D01*
X11306786Y-12458929D01*
X11321071Y-12444643D01*
X11321071Y-12473214D01*
X11321071Y-12287500D02*
X11335357Y-12301786D01*
X11321071Y-12316071D01*
X11306786Y-12301786D01*
X11321071Y-12287500D01*
X11321071Y-12316071D01*
X8952500Y-12947500D02*
X8992500Y-12987500D01*
X8992500Y-12947500D02*
X8952500Y-12987500D01*
X9321071Y-12803214D02*
X9349643Y-12803214D01*
X9378214Y-12817500D01*
X9392500Y-12831786D01*
X9406786Y-12860357D01*
X9421071Y-12917500D01*
X9421071Y-12988929D01*
X9406786Y-13046071D01*
X9392500Y-13074643D01*
X9378214Y-13088929D01*
X9349643Y-13103214D01*
X9321071Y-13103214D01*
X9292500Y-13088929D01*
X9278214Y-13074643D01*
X9263929Y-13046071D01*
X9249643Y-12988929D01*
X9249643Y-12917500D01*
X9263929Y-12860357D01*
X9278214Y-12831786D01*
X9292500Y-12817500D01*
X9321071Y-12803214D01*
X9549643Y-13074643D02*
X9563929Y-13088929D01*
X9549643Y-13103214D01*
X9535357Y-13088929D01*
X9549643Y-13074643D01*
X9549643Y-13103214D01*
X9821071Y-12903214D02*
X9821071Y-13103214D01*
X9749643Y-12788929D02*
X9678214Y-13003214D01*
X9863928Y-13003214D01*
X10035357Y-12803214D02*
X10063929Y-12803214D01*
X10092500Y-12817500D01*
X10106786Y-12831786D01*
X10121071Y-12860357D01*
X10135357Y-12917500D01*
X10135357Y-12988929D01*
X10121071Y-13046071D01*
X10106786Y-13074643D01*
X10092500Y-13088929D01*
X10063929Y-13103214D01*
X10035357Y-13103214D01*
X10006786Y-13088929D01*
X9992500Y-13074643D01*
X9978214Y-13046071D01*
X9963929Y-12988929D01*
X9963929Y-12917500D01*
X9978214Y-12860357D01*
X9992500Y-12831786D01*
X10006786Y-12817500D01*
X10035357Y-12803214D01*
X10263929Y-13103214D02*
X10263929Y-12903214D01*
X10263929Y-12931786D02*
X10278214Y-12917500D01*
X10306786Y-12903214D01*
X10349643Y-12903214D01*
X10378214Y-12917500D01*
X10392500Y-12946071D01*
X10392500Y-13103214D01*
X10392500Y-12946071D02*
X10406786Y-12917500D01*
X10435357Y-12903214D01*
X10478214Y-12903214D01*
X10506786Y-12917500D01*
X10521071Y-12946071D01*
X10521071Y-13103214D01*
X10663929Y-13103214D02*
X10663929Y-12903214D01*
X10663929Y-12931786D02*
X10678214Y-12917500D01*
X10706786Y-12903214D01*
X10749643Y-12903214D01*
X10778214Y-12917500D01*
X10792500Y-12946071D01*
X10792500Y-13103214D01*
X10792500Y-12946071D02*
X10806786Y-12917500D01*
X10835357Y-12903214D01*
X10878214Y-12903214D01*
X10906786Y-12917500D01*
X10921071Y-12946071D01*
X10921071Y-13103214D01*
X11506786Y-12788929D02*
X11249643Y-13174643D01*
X11892500Y-12803214D02*
X11921071Y-12803214D01*
X11949643Y-12817500D01*
X11963928Y-12831786D01*
X11978214Y-12860357D01*
X11992500Y-12917500D01*
X11992500Y-12988929D01*
X11978214Y-13046071D01*
X11963928Y-13074643D01*
X11949643Y-13088929D01*
X11921071Y-13103214D01*
X11892500Y-13103214D01*
X11863928Y-13088929D01*
X11849643Y-13074643D01*
X11835357Y-13046071D01*
X11821071Y-12988929D01*
X11821071Y-12917500D01*
X11835357Y-12860357D01*
X11849643Y-12831786D01*
X11863928Y-12817500D01*
X11892500Y-12803214D01*
X12121071Y-13074643D02*
X12135357Y-13088929D01*
X12121071Y-13103214D01*
X12106786Y-13088929D01*
X12121071Y-13074643D01*
X12121071Y-13103214D01*
X12321071Y-12803214D02*
X12349643Y-12803214D01*
X12378214Y-12817500D01*
X12392500Y-12831786D01*
X12406785Y-12860357D01*
X12421071Y-12917500D01*
X12421071Y-12988929D01*
X12406785Y-13046071D01*
X12392500Y-13074643D01*
X12378214Y-13088929D01*
X12349643Y-13103214D01*
X12321071Y-13103214D01*
X12292500Y-13088929D01*
X12278214Y-13074643D01*
X12263928Y-13046071D01*
X12249643Y-12988929D01*
X12249643Y-12917500D01*
X12263928Y-12860357D01*
X12278214Y-12831786D01*
X12292500Y-12817500D01*
X12321071Y-12803214D01*
X12706785Y-13103214D02*
X12535357Y-13103214D01*
X12621071Y-13103214D02*
X12621071Y-12803214D01*
X12592500Y-12846071D01*
X12563928Y-12874643D01*
X12535357Y-12888929D01*
X12963928Y-12803214D02*
X12906785Y-12803214D01*
X12878214Y-12817500D01*
X12863928Y-12831786D01*
X12835357Y-12874643D01*
X12821071Y-12931786D01*
X12821071Y-13046071D01*
X12835357Y-13074643D01*
X12849643Y-13088929D01*
X12878214Y-13103214D01*
X12935357Y-13103214D01*
X12963928Y-13088929D01*
X12978214Y-13074643D01*
X12992500Y-13046071D01*
X12992500Y-12974643D01*
X12978214Y-12946071D01*
X12963928Y-12931786D01*
X12935357Y-12917500D01*
X12878214Y-12917500D01*
X12849643Y-12931786D01*
X12835357Y-12946071D01*
X12821071Y-12974643D01*
X13106786Y-12803214D02*
X13106786Y-12860357D01*
X13221071Y-12803214D02*
X13221071Y-12860357D01*
X13663928Y-13217500D02*
X13649643Y-13203214D01*
X13621071Y-13160357D01*
X13606785Y-13131786D01*
X13592500Y-13088929D01*
X13578214Y-13017500D01*
X13578214Y-12960357D01*
X13592500Y-12888929D01*
X13606785Y-12846071D01*
X13621071Y-12817500D01*
X13649643Y-12774643D01*
X13663928Y-12760357D01*
X13749643Y-12803214D02*
X13935357Y-12803214D01*
X13835357Y-12917500D01*
X13878214Y-12917500D01*
X13906785Y-12931786D01*
X13921071Y-12946071D01*
X13935357Y-12974643D01*
X13935357Y-13046071D01*
X13921071Y-13074643D01*
X13906785Y-13088929D01*
X13878214Y-13103214D01*
X13792500Y-13103214D01*
X13763928Y-13088929D01*
X13749643Y-13074643D01*
X14192500Y-12803214D02*
X14135357Y-12803214D01*
X14106785Y-12817500D01*
X14092500Y-12831786D01*
X14063928Y-12874643D01*
X14049643Y-12931786D01*
X14049643Y-13046071D01*
X14063928Y-13074643D01*
X14078214Y-13088929D01*
X14106785Y-13103214D01*
X14163928Y-13103214D01*
X14192500Y-13088929D01*
X14206785Y-13074643D01*
X14221071Y-13046071D01*
X14221071Y-12974643D01*
X14206785Y-12946071D01*
X14192500Y-12931786D01*
X14163928Y-12917500D01*
X14106785Y-12917500D01*
X14078214Y-12931786D01*
X14063928Y-12946071D01*
X14049643Y-12974643D01*
X14578214Y-13103214D02*
X14578214Y-12803214D01*
X14706785Y-13103214D02*
X14706785Y-12946071D01*
X14692500Y-12917500D01*
X14663928Y-12903214D01*
X14621071Y-12903214D01*
X14592500Y-12917500D01*
X14578214Y-12931786D01*
X14892500Y-13103214D02*
X14863928Y-13088929D01*
X14849643Y-13074643D01*
X14835357Y-13046071D01*
X14835357Y-12960357D01*
X14849643Y-12931786D01*
X14863928Y-12917500D01*
X14892500Y-12903214D01*
X14935357Y-12903214D01*
X14963928Y-12917500D01*
X14978214Y-12931786D01*
X14992500Y-12960357D01*
X14992500Y-13046071D01*
X14978214Y-13074643D01*
X14963928Y-13088929D01*
X14935357Y-13103214D01*
X14892500Y-13103214D01*
X15163928Y-13103214D02*
X15135357Y-13088929D01*
X15121071Y-13060357D01*
X15121071Y-12803214D01*
X15392500Y-13088929D02*
X15363928Y-13103214D01*
X15306786Y-13103214D01*
X15278214Y-13088929D01*
X15263928Y-13060357D01*
X15263928Y-12946071D01*
X15278214Y-12917500D01*
X15306786Y-12903214D01*
X15363928Y-12903214D01*
X15392500Y-12917500D01*
X15406786Y-12946071D01*
X15406786Y-12974643D01*
X15263928Y-13003214D01*
X15521071Y-13088929D02*
X15549643Y-13103214D01*
X15606786Y-13103214D01*
X15635357Y-13088929D01*
X15649643Y-13060357D01*
X15649643Y-13046071D01*
X15635357Y-13017500D01*
X15606786Y-13003214D01*
X15563928Y-13003214D01*
X15535357Y-12988929D01*
X15521071Y-12960357D01*
X15521071Y-12946071D01*
X15535357Y-12917500D01*
X15563928Y-12903214D01*
X15606786Y-12903214D01*
X15635357Y-12917500D01*
X15749643Y-13217500D02*
X15763928Y-13203214D01*
X15792500Y-13160357D01*
X15806786Y-13131786D01*
X15821071Y-13088929D01*
X15835357Y-13017500D01*
X15835357Y-12960357D01*
X15821071Y-12888929D01*
X15806786Y-12846071D01*
X15792500Y-12817500D01*
X15763928Y-12774643D01*
X15749643Y-12760357D01*
X8992500Y-13363500D02*
G75*
G03X8992500Y-13363500I-45000J0D01*
G01*
X9321071Y-13199214D02*
X9349643Y-13199214D01*
X9378214Y-13213500D01*
X9392500Y-13227786D01*
X9406786Y-13256357D01*
X9421071Y-13313500D01*
X9421071Y-13384929D01*
X9406786Y-13442071D01*
X9392500Y-13470643D01*
X9378214Y-13484929D01*
X9349643Y-13499214D01*
X9321071Y-13499214D01*
X9292500Y-13484929D01*
X9278214Y-13470643D01*
X9263929Y-13442071D01*
X9249643Y-13384929D01*
X9249643Y-13313500D01*
X9263929Y-13256357D01*
X9278214Y-13227786D01*
X9292500Y-13213500D01*
X9321071Y-13199214D01*
X9549643Y-13470643D02*
X9563929Y-13484929D01*
X9549643Y-13499214D01*
X9535357Y-13484929D01*
X9549643Y-13470643D01*
X9549643Y-13499214D01*
X9706786Y-13499214D02*
X9763928Y-13499214D01*
X9792500Y-13484929D01*
X9806786Y-13470643D01*
X9835357Y-13427786D01*
X9849643Y-13370643D01*
X9849643Y-13256357D01*
X9835357Y-13227786D01*
X9821071Y-13213500D01*
X9792500Y-13199214D01*
X9735357Y-13199214D01*
X9706786Y-13213500D01*
X9692500Y-13227786D01*
X9678214Y-13256357D01*
X9678214Y-13327786D01*
X9692500Y-13356357D01*
X9706786Y-13370643D01*
X9735357Y-13384929D01*
X9792500Y-13384929D01*
X9821071Y-13370643D01*
X9835357Y-13356357D01*
X9849643Y-13327786D01*
X10035357Y-13199214D02*
X10063929Y-13199214D01*
X10092500Y-13213500D01*
X10106786Y-13227786D01*
X10121071Y-13256357D01*
X10135357Y-13313500D01*
X10135357Y-13384929D01*
X10121071Y-13442071D01*
X10106786Y-13470643D01*
X10092500Y-13484929D01*
X10063929Y-13499214D01*
X10035357Y-13499214D01*
X10006786Y-13484929D01*
X9992500Y-13470643D01*
X9978214Y-13442071D01*
X9963929Y-13384929D01*
X9963929Y-13313500D01*
X9978214Y-13256357D01*
X9992500Y-13227786D01*
X10006786Y-13213500D01*
X10035357Y-13199214D01*
X10263929Y-13499214D02*
X10263929Y-13299214D01*
X10263929Y-13327786D02*
X10278214Y-13313500D01*
X10306786Y-13299214D01*
X10349643Y-13299214D01*
X10378214Y-13313500D01*
X10392500Y-13342071D01*
X10392500Y-13499214D01*
X10392500Y-13342071D02*
X10406786Y-13313500D01*
X10435357Y-13299214D01*
X10478214Y-13299214D01*
X10506786Y-13313500D01*
X10521071Y-13342071D01*
X10521071Y-13499214D01*
X10663929Y-13499214D02*
X10663929Y-13299214D01*
X10663929Y-13327786D02*
X10678214Y-13313500D01*
X10706786Y-13299214D01*
X10749643Y-13299214D01*
X10778214Y-13313500D01*
X10792500Y-13342071D01*
X10792500Y-13499214D01*
X10792500Y-13342071D02*
X10806786Y-13313500D01*
X10835357Y-13299214D01*
X10878214Y-13299214D01*
X10906786Y-13313500D01*
X10921071Y-13342071D01*
X10921071Y-13499214D01*
X11506786Y-13184929D02*
X11249643Y-13570643D01*
X11892500Y-13199214D02*
X11921071Y-13199214D01*
X11949643Y-13213500D01*
X11963928Y-13227786D01*
X11978214Y-13256357D01*
X11992500Y-13313500D01*
X11992500Y-13384929D01*
X11978214Y-13442071D01*
X11963928Y-13470643D01*
X11949643Y-13484929D01*
X11921071Y-13499214D01*
X11892500Y-13499214D01*
X11863928Y-13484929D01*
X11849643Y-13470643D01*
X11835357Y-13442071D01*
X11821071Y-13384929D01*
X11821071Y-13313500D01*
X11835357Y-13256357D01*
X11849643Y-13227786D01*
X11863928Y-13213500D01*
X11892500Y-13199214D01*
X12121071Y-13470643D02*
X12135357Y-13484929D01*
X12121071Y-13499214D01*
X12106786Y-13484929D01*
X12121071Y-13470643D01*
X12121071Y-13499214D01*
X12321071Y-13199214D02*
X12349643Y-13199214D01*
X12378214Y-13213500D01*
X12392500Y-13227786D01*
X12406785Y-13256357D01*
X12421071Y-13313500D01*
X12421071Y-13384929D01*
X12406785Y-13442071D01*
X12392500Y-13470643D01*
X12378214Y-13484929D01*
X12349643Y-13499214D01*
X12321071Y-13499214D01*
X12292500Y-13484929D01*
X12278214Y-13470643D01*
X12263928Y-13442071D01*
X12249643Y-13384929D01*
X12249643Y-13313500D01*
X12263928Y-13256357D01*
X12278214Y-13227786D01*
X12292500Y-13213500D01*
X12321071Y-13199214D01*
X12521071Y-13199214D02*
X12706785Y-13199214D01*
X12606785Y-13313500D01*
X12649643Y-13313500D01*
X12678214Y-13327786D01*
X12692500Y-13342071D01*
X12706785Y-13370643D01*
X12706785Y-13442071D01*
X12692500Y-13470643D01*
X12678214Y-13484929D01*
X12649643Y-13499214D01*
X12563928Y-13499214D01*
X12535357Y-13484929D01*
X12521071Y-13470643D01*
X12978214Y-13199214D02*
X12835357Y-13199214D01*
X12821071Y-13342071D01*
X12835357Y-13327786D01*
X12863928Y-13313500D01*
X12935357Y-13313500D01*
X12963928Y-13327786D01*
X12978214Y-13342071D01*
X12992500Y-13370643D01*
X12992500Y-13442071D01*
X12978214Y-13470643D01*
X12963928Y-13484929D01*
X12935357Y-13499214D01*
X12863928Y-13499214D01*
X12835357Y-13484929D01*
X12821071Y-13470643D01*
X13106786Y-13199214D02*
X13106786Y-13256357D01*
X13221071Y-13199214D02*
X13221071Y-13256357D01*
X13663928Y-13613500D02*
X13649643Y-13599214D01*
X13621071Y-13556357D01*
X13606785Y-13527786D01*
X13592500Y-13484929D01*
X13578214Y-13413500D01*
X13578214Y-13356357D01*
X13592500Y-13284929D01*
X13606785Y-13242071D01*
X13621071Y-13213500D01*
X13649643Y-13170643D01*
X13663928Y-13156357D01*
X13906785Y-13199214D02*
X13849643Y-13199214D01*
X13821071Y-13213500D01*
X13806785Y-13227786D01*
X13778214Y-13270643D01*
X13763928Y-13327786D01*
X13763928Y-13442071D01*
X13778214Y-13470643D01*
X13792500Y-13484929D01*
X13821071Y-13499214D01*
X13878214Y-13499214D01*
X13906785Y-13484929D01*
X13921071Y-13470643D01*
X13935357Y-13442071D01*
X13935357Y-13370643D01*
X13921071Y-13342071D01*
X13906785Y-13327786D01*
X13878214Y-13313500D01*
X13821071Y-13313500D01*
X13792500Y-13327786D01*
X13778214Y-13342071D01*
X13763928Y-13370643D01*
X14292500Y-13499214D02*
X14292500Y-13199214D01*
X14421071Y-13499214D02*
X14421071Y-13342071D01*
X14406785Y-13313500D01*
X14378214Y-13299214D01*
X14335357Y-13299214D01*
X14306785Y-13313500D01*
X14292500Y-13327786D01*
X14606785Y-13499214D02*
X14578214Y-13484929D01*
X14563928Y-13470643D01*
X14549643Y-13442071D01*
X14549643Y-13356357D01*
X14563928Y-13327786D01*
X14578214Y-13313500D01*
X14606785Y-13299214D01*
X14649643Y-13299214D01*
X14678214Y-13313500D01*
X14692500Y-13327786D01*
X14706785Y-13356357D01*
X14706785Y-13442071D01*
X14692500Y-13470643D01*
X14678214Y-13484929D01*
X14649643Y-13499214D01*
X14606785Y-13499214D01*
X14878214Y-13499214D02*
X14849643Y-13484929D01*
X14835357Y-13456357D01*
X14835357Y-13199214D01*
X15106786Y-13484929D02*
X15078214Y-13499214D01*
X15021071Y-13499214D01*
X14992500Y-13484929D01*
X14978214Y-13456357D01*
X14978214Y-13342071D01*
X14992500Y-13313500D01*
X15021071Y-13299214D01*
X15078214Y-13299214D01*
X15106786Y-13313500D01*
X15121071Y-13342071D01*
X15121071Y-13370643D01*
X14978214Y-13399214D01*
X15235357Y-13484929D02*
X15263928Y-13499214D01*
X15321071Y-13499214D01*
X15349643Y-13484929D01*
X15363928Y-13456357D01*
X15363928Y-13442071D01*
X15349643Y-13413500D01*
X15321071Y-13399214D01*
X15278214Y-13399214D01*
X15249643Y-13384929D01*
X15235357Y-13356357D01*
X15235357Y-13342071D01*
X15249643Y-13313500D01*
X15278214Y-13299214D01*
X15321071Y-13299214D01*
X15349643Y-13313500D01*
X15463928Y-13613500D02*
X15478214Y-13599214D01*
X15506786Y-13556357D01*
X15521071Y-13527786D01*
X15535357Y-13484929D01*
X15549643Y-13413500D01*
X15549643Y-13356357D01*
X15535357Y-13284929D01*
X15521071Y-13242071D01*
X15506786Y-13213500D01*
X15478214Y-13170643D01*
X15463928Y-13156357D01*
X8941700Y-13708700D02*
X8941700Y-13810300D01*
X8890900Y-13759500D02*
X8992500Y-13759500D01*
X9421071Y-13895214D02*
X9249643Y-13895214D01*
X9335357Y-13895214D02*
X9335357Y-13595214D01*
X9306786Y-13638071D01*
X9278214Y-13666643D01*
X9249643Y-13680929D01*
X9549643Y-13866643D02*
X9563929Y-13880929D01*
X9549643Y-13895214D01*
X9535357Y-13880929D01*
X9549643Y-13866643D01*
X9549643Y-13895214D01*
X9749643Y-13595214D02*
X9778214Y-13595214D01*
X9806786Y-13609500D01*
X9821071Y-13623786D01*
X9835357Y-13652357D01*
X9849643Y-13709500D01*
X9849643Y-13780929D01*
X9835357Y-13838071D01*
X9821071Y-13866643D01*
X9806786Y-13880929D01*
X9778214Y-13895214D01*
X9749643Y-13895214D01*
X9721071Y-13880929D01*
X9706786Y-13866643D01*
X9692500Y-13838071D01*
X9678214Y-13780929D01*
X9678214Y-13709500D01*
X9692500Y-13652357D01*
X9706786Y-13623786D01*
X9721071Y-13609500D01*
X9749643Y-13595214D01*
X9963929Y-13623786D02*
X9978214Y-13609500D01*
X10006786Y-13595214D01*
X10078214Y-13595214D01*
X10106786Y-13609500D01*
X10121071Y-13623786D01*
X10135357Y-13652357D01*
X10135357Y-13680929D01*
X10121071Y-13723786D01*
X9949643Y-13895214D01*
X10135357Y-13895214D01*
X10263929Y-13895214D02*
X10263929Y-13695214D01*
X10263929Y-13723786D02*
X10278214Y-13709500D01*
X10306786Y-13695214D01*
X10349643Y-13695214D01*
X10378214Y-13709500D01*
X10392500Y-13738071D01*
X10392500Y-13895214D01*
X10392500Y-13738071D02*
X10406786Y-13709500D01*
X10435357Y-13695214D01*
X10478214Y-13695214D01*
X10506786Y-13709500D01*
X10521071Y-13738071D01*
X10521071Y-13895214D01*
X10663929Y-13895214D02*
X10663929Y-13695214D01*
X10663929Y-13723786D02*
X10678214Y-13709500D01*
X10706786Y-13695214D01*
X10749643Y-13695214D01*
X10778214Y-13709500D01*
X10792500Y-13738071D01*
X10792500Y-13895214D01*
X10792500Y-13738071D02*
X10806786Y-13709500D01*
X10835357Y-13695214D01*
X10878214Y-13695214D01*
X10906786Y-13709500D01*
X10921071Y-13738071D01*
X10921071Y-13895214D01*
X11506786Y-13580929D02*
X11249643Y-13966643D01*
X11892500Y-13595214D02*
X11921071Y-13595214D01*
X11949643Y-13609500D01*
X11963928Y-13623786D01*
X11978214Y-13652357D01*
X11992500Y-13709500D01*
X11992500Y-13780929D01*
X11978214Y-13838071D01*
X11963928Y-13866643D01*
X11949643Y-13880929D01*
X11921071Y-13895214D01*
X11892500Y-13895214D01*
X11863928Y-13880929D01*
X11849643Y-13866643D01*
X11835357Y-13838071D01*
X11821071Y-13780929D01*
X11821071Y-13709500D01*
X11835357Y-13652357D01*
X11849643Y-13623786D01*
X11863928Y-13609500D01*
X11892500Y-13595214D01*
X12121071Y-13866643D02*
X12135357Y-13880929D01*
X12121071Y-13895214D01*
X12106786Y-13880929D01*
X12121071Y-13866643D01*
X12121071Y-13895214D01*
X12321071Y-13595214D02*
X12349643Y-13595214D01*
X12378214Y-13609500D01*
X12392500Y-13623786D01*
X12406785Y-13652357D01*
X12421071Y-13709500D01*
X12421071Y-13780929D01*
X12406785Y-13838071D01*
X12392500Y-13866643D01*
X12378214Y-13880929D01*
X12349643Y-13895214D01*
X12321071Y-13895214D01*
X12292500Y-13880929D01*
X12278214Y-13866643D01*
X12263928Y-13838071D01*
X12249643Y-13780929D01*
X12249643Y-13709500D01*
X12263928Y-13652357D01*
X12278214Y-13623786D01*
X12292500Y-13609500D01*
X12321071Y-13595214D01*
X12678214Y-13695214D02*
X12678214Y-13895214D01*
X12606785Y-13580929D02*
X12535357Y-13795214D01*
X12721071Y-13795214D01*
X12892500Y-13595214D02*
X12921071Y-13595214D01*
X12949643Y-13609500D01*
X12963928Y-13623786D01*
X12978214Y-13652357D01*
X12992500Y-13709500D01*
X12992500Y-13780929D01*
X12978214Y-13838071D01*
X12963928Y-13866643D01*
X12949643Y-13880929D01*
X12921071Y-13895214D01*
X12892500Y-13895214D01*
X12863928Y-13880929D01*
X12849643Y-13866643D01*
X12835357Y-13838071D01*
X12821071Y-13780929D01*
X12821071Y-13709500D01*
X12835357Y-13652357D01*
X12849643Y-13623786D01*
X12863928Y-13609500D01*
X12892500Y-13595214D01*
X13106786Y-13595214D02*
X13106786Y-13652357D01*
X13221071Y-13595214D02*
X13221071Y-13652357D01*
X13663928Y-14009500D02*
X13649643Y-13995214D01*
X13621071Y-13952357D01*
X13606785Y-13923786D01*
X13592500Y-13880929D01*
X13578214Y-13809500D01*
X13578214Y-13752357D01*
X13592500Y-13680929D01*
X13606785Y-13638071D01*
X13621071Y-13609500D01*
X13649643Y-13566643D01*
X13663928Y-13552357D01*
X13906785Y-13695214D02*
X13906785Y-13895214D01*
X13835357Y-13580929D02*
X13763928Y-13795214D01*
X13949643Y-13795214D01*
X14192500Y-13595214D02*
X14135357Y-13595214D01*
X14106785Y-13609500D01*
X14092500Y-13623786D01*
X14063928Y-13666643D01*
X14049643Y-13723786D01*
X14049643Y-13838071D01*
X14063928Y-13866643D01*
X14078214Y-13880929D01*
X14106785Y-13895214D01*
X14163928Y-13895214D01*
X14192500Y-13880929D01*
X14206785Y-13866643D01*
X14221071Y-13838071D01*
X14221071Y-13766643D01*
X14206785Y-13738071D01*
X14192500Y-13723786D01*
X14163928Y-13709500D01*
X14106785Y-13709500D01*
X14078214Y-13723786D01*
X14063928Y-13738071D01*
X14049643Y-13766643D01*
X14578214Y-13895214D02*
X14578214Y-13595214D01*
X14706785Y-13895214D02*
X14706785Y-13738071D01*
X14692500Y-13709500D01*
X14663928Y-13695214D01*
X14621071Y-13695214D01*
X14592500Y-13709500D01*
X14578214Y-13723786D01*
X14892500Y-13895214D02*
X14863928Y-13880929D01*
X14849643Y-13866643D01*
X14835357Y-13838071D01*
X14835357Y-13752357D01*
X14849643Y-13723786D01*
X14863928Y-13709500D01*
X14892500Y-13695214D01*
X14935357Y-13695214D01*
X14963928Y-13709500D01*
X14978214Y-13723786D01*
X14992500Y-13752357D01*
X14992500Y-13838071D01*
X14978214Y-13866643D01*
X14963928Y-13880929D01*
X14935357Y-13895214D01*
X14892500Y-13895214D01*
X15163928Y-13895214D02*
X15135357Y-13880929D01*
X15121071Y-13852357D01*
X15121071Y-13595214D01*
X15392500Y-13880929D02*
X15363928Y-13895214D01*
X15306786Y-13895214D01*
X15278214Y-13880929D01*
X15263928Y-13852357D01*
X15263928Y-13738071D01*
X15278214Y-13709500D01*
X15306786Y-13695214D01*
X15363928Y-13695214D01*
X15392500Y-13709500D01*
X15406786Y-13738071D01*
X15406786Y-13766643D01*
X15263928Y-13795214D01*
X15521071Y-13880929D02*
X15549643Y-13895214D01*
X15606786Y-13895214D01*
X15635357Y-13880929D01*
X15649643Y-13852357D01*
X15649643Y-13838071D01*
X15635357Y-13809500D01*
X15606786Y-13795214D01*
X15563928Y-13795214D01*
X15535357Y-13780929D01*
X15521071Y-13752357D01*
X15521071Y-13738071D01*
X15535357Y-13709500D01*
X15563928Y-13695214D01*
X15606786Y-13695214D01*
X15635357Y-13709500D01*
X15749643Y-14009500D02*
X15763928Y-13995214D01*
X15792500Y-13952357D01*
X15806786Y-13923786D01*
X15821071Y-13880929D01*
X15835357Y-13809500D01*
X15835357Y-13752357D01*
X15821071Y-13680929D01*
X15806786Y-13638071D01*
X15792500Y-13609500D01*
X15763928Y-13566643D01*
X15749643Y-13552357D01*
X8973462Y-14201462D02*
X8973462Y-14109538D01*
X8881538Y-14109538D01*
X8881538Y-14201462D01*
X8973462Y-14201462D01*
X9421071Y-14291214D02*
X9249643Y-14291214D01*
X9335357Y-14291214D02*
X9335357Y-13991214D01*
X9306786Y-14034071D01*
X9278214Y-14062643D01*
X9249643Y-14076929D01*
X9549643Y-14262643D02*
X9563929Y-14276929D01*
X9549643Y-14291214D01*
X9535357Y-14276929D01*
X9549643Y-14262643D01*
X9549643Y-14291214D01*
X9663928Y-13991214D02*
X9849643Y-13991214D01*
X9749643Y-14105500D01*
X9792500Y-14105500D01*
X9821071Y-14119786D01*
X9835357Y-14134071D01*
X9849643Y-14162643D01*
X9849643Y-14234071D01*
X9835357Y-14262643D01*
X9821071Y-14276929D01*
X9792500Y-14291214D01*
X9706786Y-14291214D01*
X9678214Y-14276929D01*
X9663928Y-14262643D01*
X10035357Y-13991214D02*
X10063929Y-13991214D01*
X10092500Y-14005500D01*
X10106786Y-14019786D01*
X10121071Y-14048357D01*
X10135357Y-14105500D01*
X10135357Y-14176929D01*
X10121071Y-14234071D01*
X10106786Y-14262643D01*
X10092500Y-14276929D01*
X10063929Y-14291214D01*
X10035357Y-14291214D01*
X10006786Y-14276929D01*
X9992500Y-14262643D01*
X9978214Y-14234071D01*
X9963929Y-14176929D01*
X9963929Y-14105500D01*
X9978214Y-14048357D01*
X9992500Y-14019786D01*
X10006786Y-14005500D01*
X10035357Y-13991214D01*
X10263929Y-14291214D02*
X10263929Y-14091214D01*
X10263929Y-14119786D02*
X10278214Y-14105500D01*
X10306786Y-14091214D01*
X10349643Y-14091214D01*
X10378214Y-14105500D01*
X10392500Y-14134071D01*
X10392500Y-14291214D01*
X10392500Y-14134071D02*
X10406786Y-14105500D01*
X10435357Y-14091214D01*
X10478214Y-14091214D01*
X10506786Y-14105500D01*
X10521071Y-14134071D01*
X10521071Y-14291214D01*
X10663929Y-14291214D02*
X10663929Y-14091214D01*
X10663929Y-14119786D02*
X10678214Y-14105500D01*
X10706786Y-14091214D01*
X10749643Y-14091214D01*
X10778214Y-14105500D01*
X10792500Y-14134071D01*
X10792500Y-14291214D01*
X10792500Y-14134071D02*
X10806786Y-14105500D01*
X10835357Y-14091214D01*
X10878214Y-14091214D01*
X10906786Y-14105500D01*
X10921071Y-14134071D01*
X10921071Y-14291214D01*
X11506786Y-13976929D02*
X11249643Y-14362643D01*
X11892500Y-13991214D02*
X11921071Y-13991214D01*
X11949643Y-14005500D01*
X11963928Y-14019786D01*
X11978214Y-14048357D01*
X11992500Y-14105500D01*
X11992500Y-14176929D01*
X11978214Y-14234071D01*
X11963928Y-14262643D01*
X11949643Y-14276929D01*
X11921071Y-14291214D01*
X11892500Y-14291214D01*
X11863928Y-14276929D01*
X11849643Y-14262643D01*
X11835357Y-14234071D01*
X11821071Y-14176929D01*
X11821071Y-14105500D01*
X11835357Y-14048357D01*
X11849643Y-14019786D01*
X11863928Y-14005500D01*
X11892500Y-13991214D01*
X12121071Y-14262643D02*
X12135357Y-14276929D01*
X12121071Y-14291214D01*
X12106786Y-14276929D01*
X12121071Y-14262643D01*
X12121071Y-14291214D01*
X12321071Y-13991214D02*
X12349643Y-13991214D01*
X12378214Y-14005500D01*
X12392500Y-14019786D01*
X12406785Y-14048357D01*
X12421071Y-14105500D01*
X12421071Y-14176929D01*
X12406785Y-14234071D01*
X12392500Y-14262643D01*
X12378214Y-14276929D01*
X12349643Y-14291214D01*
X12321071Y-14291214D01*
X12292500Y-14276929D01*
X12278214Y-14262643D01*
X12263928Y-14234071D01*
X12249643Y-14176929D01*
X12249643Y-14105500D01*
X12263928Y-14048357D01*
X12278214Y-14019786D01*
X12292500Y-14005500D01*
X12321071Y-13991214D01*
X12692500Y-13991214D02*
X12549643Y-13991214D01*
X12535357Y-14134071D01*
X12549643Y-14119786D01*
X12578214Y-14105500D01*
X12649643Y-14105500D01*
X12678214Y-14119786D01*
X12692500Y-14134071D01*
X12706785Y-14162643D01*
X12706785Y-14234071D01*
X12692500Y-14262643D01*
X12678214Y-14276929D01*
X12649643Y-14291214D01*
X12578214Y-14291214D01*
X12549643Y-14276929D01*
X12535357Y-14262643D01*
X12992500Y-14291214D02*
X12821071Y-14291214D01*
X12906785Y-14291214D02*
X12906785Y-13991214D01*
X12878214Y-14034071D01*
X12849643Y-14062643D01*
X12821071Y-14076929D01*
X13106786Y-13991214D02*
X13106786Y-14048357D01*
X13221071Y-13991214D02*
X13221071Y-14048357D01*
X13663928Y-14405500D02*
X13649643Y-14391214D01*
X13621071Y-14348357D01*
X13606785Y-14319786D01*
X13592500Y-14276929D01*
X13578214Y-14205500D01*
X13578214Y-14148357D01*
X13592500Y-14076929D01*
X13606785Y-14034071D01*
X13621071Y-14005500D01*
X13649643Y-13962643D01*
X13663928Y-13948357D01*
X13749643Y-13991214D02*
X13935357Y-13991214D01*
X13835357Y-14105500D01*
X13878214Y-14105500D01*
X13906785Y-14119786D01*
X13921071Y-14134071D01*
X13935357Y-14162643D01*
X13935357Y-14234071D01*
X13921071Y-14262643D01*
X13906785Y-14276929D01*
X13878214Y-14291214D01*
X13792500Y-14291214D01*
X13763928Y-14276929D01*
X13749643Y-14262643D01*
X14292500Y-14291214D02*
X14292500Y-13991214D01*
X14421071Y-14291214D02*
X14421071Y-14134071D01*
X14406785Y-14105500D01*
X14378214Y-14091214D01*
X14335357Y-14091214D01*
X14306785Y-14105500D01*
X14292500Y-14119786D01*
X14606785Y-14291214D02*
X14578214Y-14276929D01*
X14563928Y-14262643D01*
X14549643Y-14234071D01*
X14549643Y-14148357D01*
X14563928Y-14119786D01*
X14578214Y-14105500D01*
X14606785Y-14091214D01*
X14649643Y-14091214D01*
X14678214Y-14105500D01*
X14692500Y-14119786D01*
X14706785Y-14148357D01*
X14706785Y-14234071D01*
X14692500Y-14262643D01*
X14678214Y-14276929D01*
X14649643Y-14291214D01*
X14606785Y-14291214D01*
X14878214Y-14291214D02*
X14849643Y-14276929D01*
X14835357Y-14248357D01*
X14835357Y-13991214D01*
X15106786Y-14276929D02*
X15078214Y-14291214D01*
X15021071Y-14291214D01*
X14992500Y-14276929D01*
X14978214Y-14248357D01*
X14978214Y-14134071D01*
X14992500Y-14105500D01*
X15021071Y-14091214D01*
X15078214Y-14091214D01*
X15106786Y-14105500D01*
X15121071Y-14134071D01*
X15121071Y-14162643D01*
X14978214Y-14191214D01*
X15235357Y-14276929D02*
X15263928Y-14291214D01*
X15321071Y-14291214D01*
X15349643Y-14276929D01*
X15363928Y-14248357D01*
X15363928Y-14234071D01*
X15349643Y-14205500D01*
X15321071Y-14191214D01*
X15278214Y-14191214D01*
X15249643Y-14176929D01*
X15235357Y-14148357D01*
X15235357Y-14134071D01*
X15249643Y-14105500D01*
X15278214Y-14091214D01*
X15321071Y-14091214D01*
X15349643Y-14105500D01*
X15463928Y-14405500D02*
X15478214Y-14391214D01*
X15506786Y-14348357D01*
X15521071Y-14319786D01*
X15535357Y-14276929D01*
X15549643Y-14205500D01*
X15549643Y-14148357D01*
X15535357Y-14076929D01*
X15521071Y-14034071D01*
X15506786Y-14005500D01*
X15478214Y-13962643D01*
X15463928Y-13948357D01*
M02*
