G04 #@! TF.FileFunction,Soldermask,Top*
%FSLAX46Y46*%
G04 Gerber Fmt 4.6, Leading zero omitted, Abs format (unit mm)*
G04 Created by KiCad (PCBNEW 4.0.2-stable) date 3/23/2016 2:13:11 PM*
%MOMM*%
G01*
G04 APERTURE LIST*
%ADD10C,0.100000*%
%ADD11R,1.727200X2.032000*%
%ADD12O,1.727200X2.032000*%
%ADD13R,1.250000X1.000000*%
%ADD14R,1.000000X1.250000*%
%ADD15R,0.800100X0.800100*%
%ADD16R,1.300000X0.700000*%
%ADD17R,1.600000X0.550000*%
%ADD18R,0.550000X1.600000*%
%ADD19R,1.727200X1.727200*%
%ADD20O,1.727200X1.727200*%
%ADD21C,2.500000*%
%ADD22R,2.500000X2.500000*%
%ADD23R,0.700000X1.300000*%
%ADD24R,1.550000X0.600000*%
%ADD25R,2.180000X1.600000*%
%ADD26R,1.500000X1.500000*%
%ADD27C,1.500000*%
%ADD28R,1.600000X1.000000*%
%ADD29R,1.000000X1.600000*%
%ADD30R,1.800860X2.499360*%
%ADD31R,1.651000X3.048000*%
%ADD32R,6.096000X6.096000*%
%ADD33R,1.000760X1.501140*%
%ADD34R,1.998980X2.999740*%
%ADD35R,1.198880X1.198880*%
%ADD36R,2.032000X2.032000*%
%ADD37O,2.032000X2.032000*%
%ADD38R,2.032000X1.727200*%
%ADD39O,2.032000X1.727200*%
%ADD40C,1.300000*%
%ADD41R,1.300000X1.300000*%
%ADD42C,2.100000*%
%ADD43R,1.100000X1.300000*%
G04 APERTURE END LIST*
D10*
D11*
X114300000Y-72136000D03*
D12*
X111760000Y-72136000D03*
X109220000Y-72136000D03*
X106680000Y-72136000D03*
X104140000Y-72136000D03*
D13*
X107124500Y-101552500D03*
X107124500Y-103552500D03*
X107124500Y-99488500D03*
X107124500Y-97488500D03*
D14*
X102568500Y-97726500D03*
X104568500Y-97726500D03*
X104568500Y-103822500D03*
X102568500Y-103822500D03*
D13*
X122682000Y-92313000D03*
X122682000Y-90313000D03*
X126111000Y-105664000D03*
X126111000Y-103664000D03*
X124079000Y-105664000D03*
X124079000Y-103664000D03*
X125349000Y-101965000D03*
X125349000Y-99965000D03*
D15*
X121732000Y-101965760D03*
X123632000Y-101965760D03*
X122682000Y-99966780D03*
D16*
X122047000Y-108519000D03*
X122047000Y-106619000D03*
D17*
X110812000Y-96514000D03*
X110812000Y-97314000D03*
X110812000Y-98114000D03*
X110812000Y-98914000D03*
X110812000Y-99714000D03*
X110812000Y-100514000D03*
X110812000Y-101314000D03*
X110812000Y-102114000D03*
D18*
X112262000Y-103564000D03*
X113062000Y-103564000D03*
X113862000Y-103564000D03*
X114662000Y-103564000D03*
X115462000Y-103564000D03*
X116262000Y-103564000D03*
X117062000Y-103564000D03*
X117862000Y-103564000D03*
D17*
X119312000Y-102114000D03*
X119312000Y-101314000D03*
X119312000Y-100514000D03*
X119312000Y-99714000D03*
X119312000Y-98914000D03*
X119312000Y-98114000D03*
X119312000Y-97314000D03*
X119312000Y-96514000D03*
D18*
X117862000Y-95064000D03*
X117062000Y-95064000D03*
X116262000Y-95064000D03*
X115462000Y-95064000D03*
X114662000Y-95064000D03*
X113862000Y-95064000D03*
X113062000Y-95064000D03*
X112262000Y-95064000D03*
D19*
X131127500Y-115443000D03*
D20*
X131127500Y-117983000D03*
X128587500Y-115443000D03*
X128587500Y-117983000D03*
X126047500Y-115443000D03*
X126047500Y-117983000D03*
D11*
X106235500Y-82486500D03*
D12*
X108775500Y-82486500D03*
X111315500Y-82486500D03*
D11*
X92456000Y-117602000D03*
D12*
X94996000Y-117602000D03*
X97536000Y-117602000D03*
X100076000Y-117602000D03*
X102616000Y-117602000D03*
X105156000Y-117602000D03*
D21*
X119460000Y-74930000D03*
D22*
X129460000Y-74930000D03*
D21*
X124460000Y-74930000D03*
D16*
X100076000Y-114930000D03*
X100076000Y-113030000D03*
X102108000Y-114930000D03*
X102108000Y-113030000D03*
X104140000Y-114930000D03*
X104140000Y-113030000D03*
D23*
X118303000Y-86042500D03*
X120203000Y-86042500D03*
X118303000Y-83947000D03*
X120203000Y-83947000D03*
X97919500Y-103695500D03*
X99819500Y-103695500D03*
D16*
X98044000Y-105730000D03*
X98044000Y-107630000D03*
D23*
X110104000Y-111506000D03*
X108204000Y-111506000D03*
X111826000Y-111506000D03*
X113726000Y-111506000D03*
D16*
X103378000Y-78674000D03*
X103378000Y-76774000D03*
X104162608Y-107652270D03*
X104162608Y-105752270D03*
X102130608Y-107652270D03*
X102130608Y-105752270D03*
X100098608Y-107652270D03*
X100098608Y-105752270D03*
X106194608Y-107652270D03*
X106194608Y-105752270D03*
D23*
X118303000Y-88138000D03*
X120203000Y-88138000D03*
D16*
X122047000Y-105217000D03*
X122047000Y-103317000D03*
D24*
X111412000Y-79629000D03*
X111412000Y-78359000D03*
X111412000Y-77089000D03*
X111412000Y-75819000D03*
X106012000Y-75819000D03*
X106012000Y-77089000D03*
X106012000Y-78359000D03*
X106012000Y-79629000D03*
D13*
X114808000Y-75708000D03*
X114808000Y-77708000D03*
D25*
X120108930Y-91315320D03*
X110904070Y-91310680D03*
D26*
X118618000Y-116078000D03*
D27*
X121118000Y-116078000D03*
D26*
X109982000Y-116078000D03*
D27*
X112482000Y-116078000D03*
D26*
X93980000Y-108204000D03*
D27*
X93980000Y-110704000D03*
D26*
X93980000Y-99568000D03*
D27*
X93980000Y-102068000D03*
D28*
X92773500Y-92543500D03*
X92773500Y-95543500D03*
D13*
X103060500Y-85106000D03*
X103060500Y-87106000D03*
D28*
X103060500Y-91860500D03*
X103060500Y-88860500D03*
D29*
X128881000Y-87693500D03*
X125881000Y-87693500D03*
D30*
X99060000Y-96997520D03*
X99060000Y-100995480D03*
D31*
X95948500Y-93599000D03*
D32*
X98234500Y-87249000D03*
D31*
X100520500Y-93599000D03*
D33*
X125902720Y-85280500D03*
X127403860Y-85280500D03*
X128905000Y-85280500D03*
D34*
X127403860Y-82329020D03*
D10*
G36*
X128404620Y-83803490D02*
X127904240Y-84552790D01*
X126903480Y-84552790D01*
X126403100Y-83803490D01*
X128404620Y-83803490D01*
X128404620Y-83803490D01*
G37*
D35*
X104162608Y-109275250D03*
X104162608Y-111373290D03*
X102130608Y-109275250D03*
X102130608Y-111373290D03*
X100098608Y-109275250D03*
X100098608Y-111373290D03*
X106194608Y-109275250D03*
X106194608Y-111373290D03*
D36*
X92329000Y-89598500D03*
D37*
X92329000Y-87058500D03*
D38*
X128397000Y-100647500D03*
D39*
X128397000Y-98107500D03*
X128397000Y-95567500D03*
X128397000Y-93027500D03*
D16*
X131508500Y-96901000D03*
X131508500Y-95001000D03*
X131508500Y-107691000D03*
X131508500Y-105791000D03*
D40*
X97296000Y-78234000D03*
X97296000Y-76194000D03*
D41*
X97296000Y-80274000D03*
D40*
X94756000Y-75174000D03*
X94756000Y-77214000D03*
X94756000Y-79254000D03*
D42*
X92456000Y-83724000D03*
X92456000Y-71724000D03*
D26*
X135890000Y-99742000D03*
D27*
X135890000Y-97242000D03*
X135890000Y-94742000D03*
D26*
X135890000Y-110664000D03*
D27*
X135890000Y-108164000D03*
X135890000Y-105664000D03*
D26*
X135890000Y-77978000D03*
D27*
X135890000Y-75478000D03*
X135890000Y-72978000D03*
D26*
X135890000Y-88820000D03*
D27*
X135890000Y-86320000D03*
X135890000Y-83820000D03*
D43*
X102618500Y-99624500D03*
X102618500Y-101924500D03*
X104518500Y-99624500D03*
X104518500Y-101924500D03*
M02*
