G04 #@! TF.FileFunction,Copper,L2,Bot,Signal*
%FSLAX46Y46*%
G04 Gerber Fmt 4.6, Leading zero omitted, Abs format (unit mm)*
G04 Created by KiCad (PCBNEW 4.0.2-stable) date 3/23/2016 2:13:11 PM*
%MOMM*%
G01*
G04 APERTURE LIST*
%ADD10C,0.100000*%
%ADD11C,0.150000*%
%ADD12C,0.381000*%
%ADD13R,1.727200X2.032000*%
%ADD14O,1.727200X2.032000*%
%ADD15R,1.727200X1.727200*%
%ADD16O,1.727200X1.727200*%
%ADD17C,2.500000*%
%ADD18R,2.500000X2.500000*%
%ADD19R,1.500000X1.500000*%
%ADD20C,1.500000*%
%ADD21R,2.032000X2.032000*%
%ADD22O,2.032000X2.032000*%
%ADD23R,2.032000X1.727200*%
%ADD24O,2.032000X1.727200*%
%ADD25C,1.300000*%
%ADD26R,1.300000X1.300000*%
%ADD27C,0.600000*%
%ADD28C,0.400000*%
%ADD29C,0.250000*%
%ADD30C,0.254000*%
G04 APERTURE END LIST*
D10*
D11*
X138025238Y-119450762D02*
X137977619Y-119307905D01*
X137977619Y-119069809D01*
X138025238Y-118974571D01*
X138072857Y-118926952D01*
X138168095Y-118879333D01*
X138263333Y-118879333D01*
X138358571Y-118926952D01*
X138406190Y-118974571D01*
X138453810Y-119069809D01*
X138501429Y-119260286D01*
X138549048Y-119355524D01*
X138596667Y-119403143D01*
X138691905Y-119450762D01*
X138787143Y-119450762D01*
X138882381Y-119403143D01*
X138930000Y-119355524D01*
X138977619Y-119260286D01*
X138977619Y-119022190D01*
X138930000Y-118879333D01*
X138501429Y-118450762D02*
X138501429Y-118117428D01*
X137977619Y-117974571D02*
X137977619Y-118450762D01*
X138977619Y-118450762D01*
X138977619Y-117974571D01*
X137977619Y-117546000D02*
X138977619Y-117546000D01*
X137977619Y-116974571D01*
X138977619Y-116974571D01*
X138025238Y-116546000D02*
X137977619Y-116403143D01*
X137977619Y-116165047D01*
X138025238Y-116069809D01*
X138072857Y-116022190D01*
X138168095Y-115974571D01*
X138263333Y-115974571D01*
X138358571Y-116022190D01*
X138406190Y-116069809D01*
X138453810Y-116165047D01*
X138501429Y-116355524D01*
X138549048Y-116450762D01*
X138596667Y-116498381D01*
X138691905Y-116546000D01*
X138787143Y-116546000D01*
X138882381Y-116498381D01*
X138930000Y-116450762D01*
X138977619Y-116355524D01*
X138977619Y-116117428D01*
X138930000Y-115974571D01*
X137977619Y-114784095D02*
X138977619Y-114784095D01*
X137977619Y-114212666D01*
X138977619Y-114212666D01*
X138977619Y-113546000D02*
X138977619Y-113355523D01*
X138930000Y-113260285D01*
X138834762Y-113165047D01*
X138644286Y-113117428D01*
X138310952Y-113117428D01*
X138120476Y-113165047D01*
X138025238Y-113260285D01*
X137977619Y-113355523D01*
X137977619Y-113546000D01*
X138025238Y-113641238D01*
X138120476Y-113736476D01*
X138310952Y-113784095D01*
X138644286Y-113784095D01*
X138834762Y-113736476D01*
X138930000Y-113641238D01*
X138977619Y-113546000D01*
X137977619Y-112688857D02*
X138977619Y-112688857D01*
X138977619Y-112450762D01*
X138930000Y-112307904D01*
X138834762Y-112212666D01*
X138739524Y-112165047D01*
X138549048Y-112117428D01*
X138406190Y-112117428D01*
X138215714Y-112165047D01*
X138120476Y-112212666D01*
X138025238Y-112307904D01*
X137977619Y-112450762D01*
X137977619Y-112688857D01*
X138501429Y-111688857D02*
X138501429Y-111355523D01*
X137977619Y-111212666D02*
X137977619Y-111688857D01*
X138977619Y-111688857D01*
X138977619Y-111212666D01*
X138977619Y-110165047D02*
X137977619Y-109831714D01*
X138977619Y-109498380D01*
X137977619Y-108641237D02*
X137977619Y-109212666D01*
X137977619Y-108926952D02*
X138977619Y-108926952D01*
X138834762Y-109022190D01*
X138739524Y-109117428D01*
X138691905Y-109212666D01*
X138501429Y-107489285D02*
X138453810Y-107346428D01*
X138406190Y-107298809D01*
X138310952Y-107251190D01*
X138168095Y-107251190D01*
X138072857Y-107298809D01*
X138025238Y-107346428D01*
X137977619Y-107441666D01*
X137977619Y-107822619D01*
X138977619Y-107822619D01*
X138977619Y-107489285D01*
X138930000Y-107394047D01*
X138882381Y-107346428D01*
X138787143Y-107298809D01*
X138691905Y-107298809D01*
X138596667Y-107346428D01*
X138549048Y-107394047D01*
X138501429Y-107489285D01*
X138501429Y-107822619D01*
X137977619Y-106822619D02*
X138977619Y-106822619D01*
X137977619Y-106251190D02*
X138549048Y-106679762D01*
X138977619Y-106251190D02*
X138406190Y-106822619D01*
X138882381Y-105108333D02*
X138930000Y-105060714D01*
X138977619Y-104965476D01*
X138977619Y-104727380D01*
X138930000Y-104632142D01*
X138882381Y-104584523D01*
X138787143Y-104536904D01*
X138691905Y-104536904D01*
X138549048Y-104584523D01*
X137977619Y-105155952D01*
X137977619Y-104536904D01*
X138977619Y-103917857D02*
X138977619Y-103822618D01*
X138930000Y-103727380D01*
X138882381Y-103679761D01*
X138787143Y-103632142D01*
X138596667Y-103584523D01*
X138358571Y-103584523D01*
X138168095Y-103632142D01*
X138072857Y-103679761D01*
X138025238Y-103727380D01*
X137977619Y-103822618D01*
X137977619Y-103917857D01*
X138025238Y-104013095D01*
X138072857Y-104060714D01*
X138168095Y-104108333D01*
X138358571Y-104155952D01*
X138596667Y-104155952D01*
X138787143Y-104108333D01*
X138882381Y-104060714D01*
X138930000Y-104013095D01*
X138977619Y-103917857D01*
X137977619Y-102632142D02*
X137977619Y-103203571D01*
X137977619Y-102917857D02*
X138977619Y-102917857D01*
X138834762Y-103013095D01*
X138739524Y-103108333D01*
X138691905Y-103203571D01*
X138977619Y-101774999D02*
X138977619Y-101965476D01*
X138930000Y-102060714D01*
X138882381Y-102108333D01*
X138739524Y-102203571D01*
X138549048Y-102251190D01*
X138168095Y-102251190D01*
X138072857Y-102203571D01*
X138025238Y-102155952D01*
X137977619Y-102060714D01*
X137977619Y-101870237D01*
X138025238Y-101774999D01*
X138072857Y-101727380D01*
X138168095Y-101679761D01*
X138406190Y-101679761D01*
X138501429Y-101727380D01*
X138549048Y-101774999D01*
X138596667Y-101870237D01*
X138596667Y-102060714D01*
X138549048Y-102155952D01*
X138501429Y-102203571D01*
X138406190Y-102251190D01*
D12*
X126347220Y-111846360D02*
X125986540Y-113317020D01*
X125986540Y-113317020D02*
X125707140Y-112255300D01*
X125707140Y-112255300D02*
X125397260Y-113327180D01*
X125397260Y-113327180D02*
X125056900Y-111876840D01*
X127767080Y-112537240D02*
X126977140Y-112527080D01*
X126977140Y-112527080D02*
X126966980Y-112537240D01*
X126966980Y-112537240D02*
X126966980Y-112527080D01*
X126926340Y-111815880D02*
X126926340Y-113357660D01*
X127815340Y-111805720D02*
X127815340Y-113375440D01*
X127815340Y-113375440D02*
X127805180Y-113365280D01*
X128366520Y-111907320D02*
X128717040Y-111826040D01*
X128717040Y-111826040D02*
X129037080Y-111815880D01*
X129037080Y-111815880D02*
X129275840Y-112016540D01*
X129275840Y-112016540D02*
X129306320Y-112285780D01*
X129306320Y-112285780D02*
X129065020Y-112527080D01*
X129065020Y-112527080D02*
X128676400Y-112656620D01*
X128676400Y-112656620D02*
X128496060Y-112816640D01*
X128496060Y-112816640D02*
X128455420Y-113116360D01*
X128455420Y-113116360D02*
X128686560Y-113337340D01*
X128686560Y-113337340D02*
X129006600Y-113365280D01*
X129006600Y-113365280D02*
X129357120Y-113256060D01*
X130395980Y-111805720D02*
X130644900Y-111826040D01*
X130644900Y-111826040D02*
X130886200Y-112067340D01*
X130886200Y-112067340D02*
X130975100Y-112557560D01*
X130975100Y-112557560D02*
X130947160Y-112905540D01*
X130947160Y-112905540D02*
X130746500Y-113225580D01*
X130746500Y-113225580D02*
X130495040Y-113347500D01*
X130495040Y-113347500D02*
X130185160Y-113276380D01*
X130185160Y-113276380D02*
X129966720Y-113096040D01*
X129966720Y-113096040D02*
X129895600Y-112636300D01*
X129895600Y-112636300D02*
X129946400Y-112227360D01*
X129946400Y-112227360D02*
X130055620Y-111945420D01*
X130055620Y-111945420D02*
X130416300Y-111815880D01*
X129796540Y-110086140D02*
X130055620Y-110647480D01*
X130055620Y-110647480D02*
X129517140Y-111165640D01*
X129517140Y-111165640D02*
X128996440Y-110896400D01*
X128996440Y-110896400D02*
X128717040Y-111056420D01*
X127276860Y-111036100D02*
X126946660Y-110845600D01*
X126946660Y-110845600D02*
X126507240Y-111175800D01*
X126507240Y-111175800D02*
X126034800Y-110685580D01*
X126034800Y-110685580D02*
X126316740Y-110205520D01*
X126316740Y-110205520D02*
X126126240Y-109735620D01*
X126126240Y-109735620D02*
X125516640Y-109547660D01*
X125516640Y-109547660D02*
X125516640Y-108866940D01*
X125516640Y-108866940D02*
X126075440Y-108727240D01*
X126075440Y-108727240D02*
X126276100Y-108155740D01*
X126276100Y-108155740D02*
X126006860Y-107685840D01*
X126006860Y-107685840D02*
X126476760Y-107175300D01*
X126476760Y-107175300D02*
X126994920Y-107436920D01*
X126994920Y-107436920D02*
X127464820Y-107236260D01*
X127464820Y-107236260D02*
X127635000Y-106695240D01*
X127635000Y-106695240D02*
X128325880Y-106677460D01*
X128325880Y-106677460D02*
X128536700Y-107226100D01*
X128536700Y-107226100D02*
X128955800Y-107396280D01*
X128955800Y-107396280D02*
X129506980Y-107127040D01*
X129506980Y-107127040D02*
X130025140Y-107655360D01*
X130025140Y-107655360D02*
X129776220Y-108196380D01*
X129776220Y-108196380D02*
X129946400Y-108676440D01*
X129946400Y-108676440D02*
X130495040Y-108775500D01*
X130495040Y-108775500D02*
X130505200Y-109476540D01*
X130505200Y-109476540D02*
X129946400Y-109677200D01*
X129946400Y-109677200D02*
X129806700Y-110075980D01*
X127665480Y-110055660D02*
X127365760Y-109905800D01*
X127365760Y-109905800D02*
X127165100Y-109707680D01*
X127165100Y-109707680D02*
X127015240Y-109306360D01*
X127015240Y-109306360D02*
X127015240Y-108907580D01*
X127015240Y-108907580D02*
X127165100Y-108557060D01*
X127165100Y-108557060D02*
X127617220Y-108206540D01*
X127617220Y-108206540D02*
X128066800Y-108155740D01*
X128066800Y-108155740D02*
X128465580Y-108257340D01*
X128465580Y-108257340D02*
X128866900Y-108605320D01*
X128866900Y-108605320D02*
X129016760Y-109057440D01*
X129016760Y-109057440D02*
X128965960Y-109555280D01*
X128965960Y-109555280D02*
X128717040Y-109857540D01*
X128717040Y-109857540D02*
X128366520Y-110055660D01*
X128366520Y-110055660D02*
X128717040Y-111056420D01*
X127665480Y-110055660D02*
X127266700Y-111056420D01*
D13*
X114300000Y-72136000D03*
D14*
X111760000Y-72136000D03*
X109220000Y-72136000D03*
X106680000Y-72136000D03*
X104140000Y-72136000D03*
D15*
X131127500Y-115443000D03*
D16*
X131127500Y-117983000D03*
X128587500Y-115443000D03*
X128587500Y-117983000D03*
X126047500Y-115443000D03*
X126047500Y-117983000D03*
D13*
X106235500Y-82486500D03*
D14*
X108775500Y-82486500D03*
X111315500Y-82486500D03*
D13*
X92456000Y-117602000D03*
D14*
X94996000Y-117602000D03*
X97536000Y-117602000D03*
X100076000Y-117602000D03*
X102616000Y-117602000D03*
X105156000Y-117602000D03*
D17*
X119460000Y-74930000D03*
D18*
X129460000Y-74930000D03*
D17*
X124460000Y-74930000D03*
D19*
X118618000Y-116078000D03*
D20*
X121118000Y-116078000D03*
D19*
X109982000Y-116078000D03*
D20*
X112482000Y-116078000D03*
D19*
X93980000Y-108204000D03*
D20*
X93980000Y-110704000D03*
D19*
X93980000Y-99568000D03*
D20*
X93980000Y-102068000D03*
D21*
X92329000Y-89598500D03*
D22*
X92329000Y-87058500D03*
D23*
X128397000Y-100647500D03*
D24*
X128397000Y-98107500D03*
X128397000Y-95567500D03*
X128397000Y-93027500D03*
D25*
X97296000Y-78234000D03*
X97296000Y-76194000D03*
D26*
X97296000Y-80274000D03*
D25*
X94756000Y-75174000D03*
X94756000Y-77214000D03*
X94756000Y-79254000D03*
D19*
X135890000Y-99742000D03*
D20*
X135890000Y-97242000D03*
X135890000Y-94742000D03*
D19*
X135890000Y-110664000D03*
D20*
X135890000Y-108164000D03*
X135890000Y-105664000D03*
D19*
X135890000Y-77978000D03*
D20*
X135890000Y-75478000D03*
X135890000Y-72978000D03*
D19*
X135890000Y-88820000D03*
D20*
X135890000Y-86320000D03*
X135890000Y-83820000D03*
D27*
X108585000Y-100584000D03*
X100901500Y-100774500D03*
X106045000Y-113093500D03*
X120838660Y-109348839D03*
X112966500Y-100520500D03*
X112966500Y-109537500D03*
X109283500Y-74866500D03*
X110896400Y-93192600D03*
X124523500Y-83629500D03*
X100965000Y-104140000D03*
X108839000Y-103251000D03*
X105791000Y-98869500D03*
X108045338Y-106553000D03*
X123761500Y-98298000D03*
X105092500Y-112448520D03*
X110807500Y-108966000D03*
X109791500Y-109855000D03*
X103060500Y-112331500D03*
X103060500Y-112331500D03*
X98806000Y-103124000D03*
X97220020Y-108585000D03*
X107378500Y-111125000D03*
X110007514Y-108959589D03*
X114602619Y-107808119D03*
X113855500Y-105473500D03*
X113093500Y-76581000D03*
X113093500Y-83756500D03*
X112712500Y-96837500D03*
X112014000Y-105219500D03*
X118173500Y-105981500D03*
X120015000Y-93345000D03*
X114808000Y-92964000D03*
X124904500Y-94361000D03*
X124904500Y-91186000D03*
X117500400Y-96545400D03*
X117348000Y-97663002D03*
D28*
X108160736Y-100584000D02*
X107970236Y-100774500D01*
X108585000Y-100584000D02*
X108160736Y-100584000D01*
X107970236Y-100774500D02*
X100901500Y-100774500D01*
X108986236Y-113093500D02*
X106045000Y-113093500D01*
X112966500Y-109537500D02*
X112542236Y-109537500D01*
X112542236Y-109537500D02*
X108986236Y-113093500D01*
X120649999Y-109537500D02*
X120838660Y-109348839D01*
X112966500Y-109537500D02*
X120649999Y-109537500D01*
X112966500Y-109537500D02*
X112966500Y-100520500D01*
X114300000Y-72136000D02*
X114300000Y-72288400D01*
X114300000Y-72288400D02*
X111721900Y-74866500D01*
X111721900Y-74866500D02*
X109707764Y-74866500D01*
X109707764Y-74866500D02*
X109283500Y-74866500D01*
D29*
X110807500Y-110490000D02*
X108848980Y-112448520D01*
X105516764Y-112448520D02*
X105092500Y-112448520D01*
X110807500Y-108966000D02*
X110807500Y-110490000D01*
X108848980Y-112448520D02*
X105516764Y-112448520D01*
X108775500Y-111823500D02*
X109791500Y-110807500D01*
X103060500Y-112331500D02*
X103568500Y-111823500D01*
X103568500Y-111823500D02*
X108775500Y-111823500D01*
X109791500Y-110807500D02*
X109791500Y-109855000D01*
X98806000Y-103124000D02*
X95250000Y-99568000D01*
X95250000Y-99568000D02*
X93980000Y-99568000D01*
X96920021Y-108285001D02*
X97220020Y-108585000D01*
X96839020Y-108204000D02*
X96920021Y-108285001D01*
X93980000Y-108204000D02*
X96839020Y-108204000D01*
X107378500Y-111125000D02*
X109543911Y-108959589D01*
X109543911Y-108959589D02*
X110007514Y-108959589D01*
X109583250Y-108959589D02*
X110007514Y-108959589D01*
X114602619Y-107383855D02*
X114602619Y-107808119D01*
X114602619Y-106220619D02*
X114602619Y-107383855D01*
X113855500Y-105473500D02*
X114602619Y-106220619D01*
X113093500Y-83756500D02*
X113093500Y-76581000D01*
X112313999Y-97236001D02*
X112712500Y-96837500D01*
X112014000Y-105219500D02*
X112313999Y-104919501D01*
X112313999Y-104919501D02*
X112313999Y-97236001D01*
X118173500Y-105981500D02*
X118173500Y-105557236D01*
X114808000Y-93388264D02*
X114808000Y-92964000D01*
X118173500Y-105557236D02*
X114808000Y-102191736D01*
X114808000Y-102191736D02*
X114808000Y-93388264D01*
X115613264Y-93345000D02*
X120015000Y-93345000D01*
X114808000Y-92964000D02*
X115232264Y-92964000D01*
X115232264Y-92964000D02*
X115613264Y-93345000D01*
D28*
X124904500Y-94361000D02*
X124904500Y-91186000D01*
D29*
X117800399Y-96845399D02*
X117500400Y-96545400D01*
X124071101Y-97200999D02*
X118155999Y-97200999D01*
X128244600Y-93027500D02*
X124071101Y-97200999D01*
X118155999Y-97200999D02*
X117800399Y-96845399D01*
X128397000Y-93027500D02*
X128244600Y-93027500D01*
X128244600Y-95567500D02*
X126149098Y-97663002D01*
X117772264Y-97663002D02*
X117348000Y-97663002D01*
X128397000Y-95567500D02*
X128244600Y-95567500D01*
X126149098Y-97663002D02*
X117772264Y-97663002D01*
D30*
G36*
X91677011Y-70555956D02*
X91289317Y-70942974D01*
X91079240Y-71448896D01*
X91078762Y-71996701D01*
X91287956Y-72502989D01*
X91674974Y-72890683D01*
X92180896Y-73100760D01*
X92728701Y-73101238D01*
X93234989Y-72892044D01*
X93622683Y-72505026D01*
X93645625Y-72449775D01*
X102958749Y-72449775D01*
X103110422Y-72889536D01*
X103418839Y-73237780D01*
X103829375Y-73437765D01*
X104013000Y-73389953D01*
X104013000Y-72263000D01*
X104267000Y-72263000D01*
X104267000Y-73389953D01*
X104450625Y-73437765D01*
X104861161Y-73237780D01*
X105169578Y-72889536D01*
X105321251Y-72449775D01*
X105250202Y-72263000D01*
X104267000Y-72263000D01*
X104013000Y-72263000D01*
X103029798Y-72263000D01*
X102958749Y-72449775D01*
X93645625Y-72449775D01*
X93832760Y-71999104D01*
X93832914Y-71822225D01*
X102958749Y-71822225D01*
X103029798Y-72009000D01*
X104013000Y-72009000D01*
X104013000Y-70882047D01*
X104267000Y-70882047D01*
X104267000Y-72009000D01*
X105250202Y-72009000D01*
X105269872Y-71957289D01*
X105489400Y-71957289D01*
X105489400Y-72314711D01*
X105580029Y-72770334D01*
X105838119Y-73156592D01*
X106224377Y-73414682D01*
X106680000Y-73505311D01*
X107135623Y-73414682D01*
X107521881Y-73156592D01*
X107779971Y-72770334D01*
X107870600Y-72314711D01*
X107870600Y-71957289D01*
X108029400Y-71957289D01*
X108029400Y-72314711D01*
X108120029Y-72770334D01*
X108378119Y-73156592D01*
X108764377Y-73414682D01*
X109220000Y-73505311D01*
X109675623Y-73414682D01*
X110061881Y-73156592D01*
X110319971Y-72770334D01*
X110410600Y-72314711D01*
X110410600Y-71957289D01*
X110569400Y-71957289D01*
X110569400Y-72314711D01*
X110660029Y-72770334D01*
X110918119Y-73156592D01*
X111304377Y-73414682D01*
X111760000Y-73505311D01*
X112215623Y-73414682D01*
X112601881Y-73156592D01*
X112859971Y-72770334D01*
X112950600Y-72314711D01*
X112950600Y-71957289D01*
X112859971Y-71501666D01*
X112601881Y-71115408D01*
X112215623Y-70857318D01*
X111760000Y-70766689D01*
X111304377Y-70857318D01*
X110918119Y-71115408D01*
X110660029Y-71501666D01*
X110569400Y-71957289D01*
X110410600Y-71957289D01*
X110319971Y-71501666D01*
X110061881Y-71115408D01*
X109675623Y-70857318D01*
X109220000Y-70766689D01*
X108764377Y-70857318D01*
X108378119Y-71115408D01*
X108120029Y-71501666D01*
X108029400Y-71957289D01*
X107870600Y-71957289D01*
X107779971Y-71501666D01*
X107521881Y-71115408D01*
X107135623Y-70857318D01*
X106680000Y-70766689D01*
X106224377Y-70857318D01*
X105838119Y-71115408D01*
X105580029Y-71501666D01*
X105489400Y-71957289D01*
X105269872Y-71957289D01*
X105321251Y-71822225D01*
X105169578Y-71382464D01*
X104861161Y-71034220D01*
X104450625Y-70834235D01*
X104267000Y-70882047D01*
X104013000Y-70882047D01*
X103829375Y-70834235D01*
X103418839Y-71034220D01*
X103110422Y-71382464D01*
X102958749Y-71822225D01*
X93832914Y-71822225D01*
X93833238Y-71451299D01*
X93624044Y-70945011D01*
X93237026Y-70557317D01*
X92862981Y-70402000D01*
X139598000Y-70402000D01*
X139598000Y-101087286D01*
X137328000Y-101087286D01*
X137328000Y-119598000D01*
X90402000Y-119598000D01*
X90402000Y-117810750D01*
X91265400Y-117810750D01*
X91265400Y-118683044D01*
X91315183Y-118803230D01*
X91407169Y-118895217D01*
X91527355Y-118945000D01*
X92247250Y-118945000D01*
X92329000Y-118863250D01*
X92329000Y-117729000D01*
X92583000Y-117729000D01*
X92583000Y-118863250D01*
X92664750Y-118945000D01*
X93384645Y-118945000D01*
X93504831Y-118895217D01*
X93596817Y-118803230D01*
X93646600Y-118683044D01*
X93646600Y-117810750D01*
X93564850Y-117729000D01*
X92583000Y-117729000D01*
X92329000Y-117729000D01*
X91347150Y-117729000D01*
X91265400Y-117810750D01*
X90402000Y-117810750D01*
X90402000Y-116520956D01*
X91265400Y-116520956D01*
X91265400Y-117393250D01*
X91347150Y-117475000D01*
X92329000Y-117475000D01*
X92329000Y-116340750D01*
X92583000Y-116340750D01*
X92583000Y-117475000D01*
X93564850Y-117475000D01*
X93616561Y-117423289D01*
X93805400Y-117423289D01*
X93805400Y-117780711D01*
X93896029Y-118236334D01*
X94154119Y-118622592D01*
X94540377Y-118880682D01*
X94996000Y-118971311D01*
X95451623Y-118880682D01*
X95837881Y-118622592D01*
X96095971Y-118236334D01*
X96186600Y-117780711D01*
X96186600Y-117423289D01*
X96345400Y-117423289D01*
X96345400Y-117780711D01*
X96436029Y-118236334D01*
X96694119Y-118622592D01*
X97080377Y-118880682D01*
X97536000Y-118971311D01*
X97991623Y-118880682D01*
X98377881Y-118622592D01*
X98635971Y-118236334D01*
X98726600Y-117780711D01*
X98726600Y-117423289D01*
X98885400Y-117423289D01*
X98885400Y-117780711D01*
X98976029Y-118236334D01*
X99234119Y-118622592D01*
X99620377Y-118880682D01*
X100076000Y-118971311D01*
X100531623Y-118880682D01*
X100917881Y-118622592D01*
X101175971Y-118236334D01*
X101266600Y-117780711D01*
X101266600Y-117423289D01*
X101425400Y-117423289D01*
X101425400Y-117780711D01*
X101516029Y-118236334D01*
X101774119Y-118622592D01*
X102160377Y-118880682D01*
X102616000Y-118971311D01*
X103071623Y-118880682D01*
X103457881Y-118622592D01*
X103715971Y-118236334D01*
X103806600Y-117780711D01*
X103806600Y-117423289D01*
X103965400Y-117423289D01*
X103965400Y-117780711D01*
X104056029Y-118236334D01*
X104314119Y-118622592D01*
X104700377Y-118880682D01*
X105156000Y-118971311D01*
X105611623Y-118880682D01*
X105997881Y-118622592D01*
X106217688Y-118293627D01*
X124898123Y-118293627D01*
X125104486Y-118709829D01*
X125454414Y-119015378D01*
X125736875Y-119132365D01*
X125920500Y-119084553D01*
X125920500Y-118110000D01*
X126174500Y-118110000D01*
X126174500Y-119084553D01*
X126358125Y-119132365D01*
X126640586Y-119015378D01*
X126990514Y-118709829D01*
X127196877Y-118293627D01*
X127149569Y-118110000D01*
X126174500Y-118110000D01*
X125920500Y-118110000D01*
X124945431Y-118110000D01*
X124898123Y-118293627D01*
X106217688Y-118293627D01*
X106255971Y-118236334D01*
X106311001Y-117959675D01*
X127396900Y-117959675D01*
X127396900Y-118006325D01*
X127487529Y-118461948D01*
X127745619Y-118848206D01*
X128131877Y-119106296D01*
X128587500Y-119196925D01*
X129043123Y-119106296D01*
X129429381Y-118848206D01*
X129687471Y-118461948D01*
X129778100Y-118006325D01*
X129778100Y-117959675D01*
X129936900Y-117959675D01*
X129936900Y-118006325D01*
X130027529Y-118461948D01*
X130285619Y-118848206D01*
X130671877Y-119106296D01*
X131127500Y-119196925D01*
X131583123Y-119106296D01*
X131969381Y-118848206D01*
X132227471Y-118461948D01*
X132318100Y-118006325D01*
X132318100Y-117959675D01*
X132227471Y-117504052D01*
X131969381Y-117117794D01*
X131583123Y-116859704D01*
X131127500Y-116769075D01*
X130671877Y-116859704D01*
X130285619Y-117117794D01*
X130027529Y-117504052D01*
X129936900Y-117959675D01*
X129778100Y-117959675D01*
X129687471Y-117504052D01*
X129429381Y-117117794D01*
X129043123Y-116859704D01*
X128587500Y-116769075D01*
X128131877Y-116859704D01*
X127745619Y-117117794D01*
X127487529Y-117504052D01*
X127396900Y-117959675D01*
X106311001Y-117959675D01*
X106346600Y-117780711D01*
X106346600Y-117672373D01*
X124898123Y-117672373D01*
X124945431Y-117856000D01*
X125920500Y-117856000D01*
X125920500Y-116881447D01*
X126174500Y-116881447D01*
X126174500Y-117856000D01*
X127149569Y-117856000D01*
X127196877Y-117672373D01*
X126990514Y-117256171D01*
X126640586Y-116950622D01*
X126358125Y-116833635D01*
X126174500Y-116881447D01*
X125920500Y-116881447D01*
X125736875Y-116833635D01*
X125454414Y-116950622D01*
X125104486Y-117256171D01*
X124898123Y-117672373D01*
X106346600Y-117672373D01*
X106346600Y-117423289D01*
X106255971Y-116967666D01*
X105997881Y-116581408D01*
X105611623Y-116323318D01*
X105156000Y-116232689D01*
X104700377Y-116323318D01*
X104314119Y-116581408D01*
X104056029Y-116967666D01*
X103965400Y-117423289D01*
X103806600Y-117423289D01*
X103715971Y-116967666D01*
X103457881Y-116581408D01*
X103071623Y-116323318D01*
X102616000Y-116232689D01*
X102160377Y-116323318D01*
X101774119Y-116581408D01*
X101516029Y-116967666D01*
X101425400Y-117423289D01*
X101266600Y-117423289D01*
X101175971Y-116967666D01*
X100917881Y-116581408D01*
X100531623Y-116323318D01*
X100076000Y-116232689D01*
X99620377Y-116323318D01*
X99234119Y-116581408D01*
X98976029Y-116967666D01*
X98885400Y-117423289D01*
X98726600Y-117423289D01*
X98635971Y-116967666D01*
X98377881Y-116581408D01*
X97991623Y-116323318D01*
X97536000Y-116232689D01*
X97080377Y-116323318D01*
X96694119Y-116581408D01*
X96436029Y-116967666D01*
X96345400Y-117423289D01*
X96186600Y-117423289D01*
X96095971Y-116967666D01*
X95837881Y-116581408D01*
X95451623Y-116323318D01*
X94996000Y-116232689D01*
X94540377Y-116323318D01*
X94154119Y-116581408D01*
X93896029Y-116967666D01*
X93805400Y-117423289D01*
X93616561Y-117423289D01*
X93646600Y-117393250D01*
X93646600Y-116520956D01*
X93596817Y-116400770D01*
X93504831Y-116308783D01*
X93384645Y-116259000D01*
X92664750Y-116259000D01*
X92583000Y-116340750D01*
X92329000Y-116340750D01*
X92247250Y-116259000D01*
X91527355Y-116259000D01*
X91407169Y-116308783D01*
X91315183Y-116400770D01*
X91265400Y-116520956D01*
X90402000Y-116520956D01*
X90402000Y-115328000D01*
X108898594Y-115328000D01*
X108898594Y-116828000D01*
X108921395Y-116949179D01*
X108993012Y-117060474D01*
X109102286Y-117135138D01*
X109232000Y-117161406D01*
X110732000Y-117161406D01*
X110853179Y-117138605D01*
X110964474Y-117066988D01*
X111039138Y-116957714D01*
X111054705Y-116880838D01*
X111858767Y-116880838D01*
X111943629Y-117035068D01*
X112350864Y-117168241D01*
X112778063Y-117135435D01*
X113020371Y-117035068D01*
X113105233Y-116880838D01*
X112482000Y-116257605D01*
X111858767Y-116880838D01*
X111054705Y-116880838D01*
X111065406Y-116828000D01*
X111065406Y-115946864D01*
X111391759Y-115946864D01*
X111424565Y-116374063D01*
X111524932Y-116616371D01*
X111679162Y-116701233D01*
X112302395Y-116078000D01*
X112661605Y-116078000D01*
X113284838Y-116701233D01*
X113439068Y-116616371D01*
X113572241Y-116209136D01*
X113539435Y-115781937D01*
X113439068Y-115539629D01*
X113284838Y-115454767D01*
X112661605Y-116078000D01*
X112302395Y-116078000D01*
X111679162Y-115454767D01*
X111524932Y-115539629D01*
X111391759Y-115946864D01*
X111065406Y-115946864D01*
X111065406Y-115328000D01*
X111055465Y-115275162D01*
X111858767Y-115275162D01*
X112482000Y-115898395D01*
X113052395Y-115328000D01*
X117534594Y-115328000D01*
X117534594Y-116828000D01*
X117557395Y-116949179D01*
X117629012Y-117060474D01*
X117738286Y-117135138D01*
X117868000Y-117161406D01*
X119368000Y-117161406D01*
X119489179Y-117138605D01*
X119600474Y-117066988D01*
X119675138Y-116957714D01*
X119690705Y-116880838D01*
X120494767Y-116880838D01*
X120579629Y-117035068D01*
X120986864Y-117168241D01*
X121414063Y-117135435D01*
X121656371Y-117035068D01*
X121741233Y-116880838D01*
X121118000Y-116257605D01*
X120494767Y-116880838D01*
X119690705Y-116880838D01*
X119701406Y-116828000D01*
X119701406Y-115946864D01*
X120027759Y-115946864D01*
X120060565Y-116374063D01*
X120160932Y-116616371D01*
X120315162Y-116701233D01*
X120938395Y-116078000D01*
X121297605Y-116078000D01*
X121920838Y-116701233D01*
X122075068Y-116616371D01*
X122208241Y-116209136D01*
X122175435Y-115781937D01*
X122075068Y-115539629D01*
X121920838Y-115454767D01*
X121297605Y-116078000D01*
X120938395Y-116078000D01*
X120315162Y-115454767D01*
X120160932Y-115539629D01*
X120027759Y-115946864D01*
X119701406Y-115946864D01*
X119701406Y-115328000D01*
X119691465Y-115275162D01*
X120494767Y-115275162D01*
X121118000Y-115898395D01*
X121596720Y-115419675D01*
X124856900Y-115419675D01*
X124856900Y-115466325D01*
X124947529Y-115921948D01*
X125205619Y-116308206D01*
X125591877Y-116566296D01*
X126047500Y-116656925D01*
X126503123Y-116566296D01*
X126889381Y-116308206D01*
X127147471Y-115921948D01*
X127238100Y-115466325D01*
X127238100Y-115419675D01*
X127396900Y-115419675D01*
X127396900Y-115466325D01*
X127487529Y-115921948D01*
X127745619Y-116308206D01*
X128131877Y-116566296D01*
X128587500Y-116656925D01*
X129043123Y-116566296D01*
X129429381Y-116308206D01*
X129687471Y-115921948D01*
X129778100Y-115466325D01*
X129778100Y-115419675D01*
X129687471Y-114964052D01*
X129430455Y-114579400D01*
X129930494Y-114579400D01*
X129930494Y-116306600D01*
X129953295Y-116427779D01*
X130024912Y-116539074D01*
X130134186Y-116613738D01*
X130263900Y-116640006D01*
X131991100Y-116640006D01*
X132112279Y-116617205D01*
X132223574Y-116545588D01*
X132298238Y-116436314D01*
X132324506Y-116306600D01*
X132324506Y-114579400D01*
X132301705Y-114458221D01*
X132230088Y-114346926D01*
X132120814Y-114272262D01*
X131991100Y-114245994D01*
X130263900Y-114245994D01*
X130142721Y-114268795D01*
X130031426Y-114340412D01*
X129956762Y-114449686D01*
X129930494Y-114579400D01*
X129430455Y-114579400D01*
X129429381Y-114577794D01*
X129043123Y-114319704D01*
X128587500Y-114229075D01*
X128131877Y-114319704D01*
X127745619Y-114577794D01*
X127487529Y-114964052D01*
X127396900Y-115419675D01*
X127238100Y-115419675D01*
X127147471Y-114964052D01*
X126889381Y-114577794D01*
X126503123Y-114319704D01*
X126047500Y-114229075D01*
X125591877Y-114319704D01*
X125205619Y-114577794D01*
X124947529Y-114964052D01*
X124856900Y-115419675D01*
X121596720Y-115419675D01*
X121741233Y-115275162D01*
X121656371Y-115120932D01*
X121249136Y-114987759D01*
X120821937Y-115020565D01*
X120579629Y-115120932D01*
X120494767Y-115275162D01*
X119691465Y-115275162D01*
X119678605Y-115206821D01*
X119606988Y-115095526D01*
X119497714Y-115020862D01*
X119368000Y-114994594D01*
X117868000Y-114994594D01*
X117746821Y-115017395D01*
X117635526Y-115089012D01*
X117560862Y-115198286D01*
X117534594Y-115328000D01*
X113052395Y-115328000D01*
X113105233Y-115275162D01*
X113020371Y-115120932D01*
X112613136Y-114987759D01*
X112185937Y-115020565D01*
X111943629Y-115120932D01*
X111858767Y-115275162D01*
X111055465Y-115275162D01*
X111042605Y-115206821D01*
X110970988Y-115095526D01*
X110861714Y-115020862D01*
X110732000Y-114994594D01*
X109232000Y-114994594D01*
X109110821Y-115017395D01*
X108999526Y-115089012D01*
X108924862Y-115198286D01*
X108898594Y-115328000D01*
X90402000Y-115328000D01*
X90402000Y-112455671D01*
X102433391Y-112455671D01*
X102528645Y-112686203D01*
X102704869Y-112862735D01*
X102935235Y-112958391D01*
X103184671Y-112958609D01*
X103415203Y-112863355D01*
X103591735Y-112687131D01*
X103687391Y-112456765D01*
X103687490Y-112343735D01*
X103755725Y-112275500D01*
X104485439Y-112275500D01*
X104465609Y-112323255D01*
X104465391Y-112572691D01*
X104560645Y-112803223D01*
X104736869Y-112979755D01*
X104967235Y-113075411D01*
X105216671Y-113075629D01*
X105418088Y-112992405D01*
X105417891Y-113217671D01*
X105513145Y-113448203D01*
X105689369Y-113624735D01*
X105919735Y-113720391D01*
X106169171Y-113720609D01*
X106399703Y-113625355D01*
X106404566Y-113620500D01*
X108986236Y-113620500D01*
X109187911Y-113580385D01*
X109358881Y-113466145D01*
X111031754Y-111793272D01*
X124546192Y-111793272D01*
X124553087Y-111995073D01*
X124893447Y-113445413D01*
X124922703Y-113509738D01*
X124944100Y-113577085D01*
X124964157Y-113600882D01*
X124977043Y-113629214D01*
X125028688Y-113677446D01*
X125074229Y-113731479D01*
X125101868Y-113745790D01*
X125124614Y-113767033D01*
X125190785Y-113791830D01*
X125253537Y-113824322D01*
X125284548Y-113826967D01*
X125313692Y-113837888D01*
X125384313Y-113835475D01*
X125454725Y-113841480D01*
X125484388Y-113832056D01*
X125515493Y-113830993D01*
X125579818Y-113801737D01*
X125647165Y-113780340D01*
X125670962Y-113760283D01*
X125699294Y-113747397D01*
X125702117Y-113744374D01*
X125705213Y-113745819D01*
X125725787Y-113764026D01*
X125795999Y-113788211D01*
X125863276Y-113819625D01*
X125890718Y-113820838D01*
X125916697Y-113829786D01*
X125990820Y-113825260D01*
X126064998Y-113828538D01*
X126090819Y-113819155D01*
X126118240Y-113817481D01*
X126184984Y-113784938D01*
X126254775Y-113759577D01*
X126275039Y-113741028D01*
X126299734Y-113728987D01*
X126348947Y-113673374D01*
X126403716Y-113623240D01*
X126415338Y-113598349D01*
X126433546Y-113577774D01*
X126445639Y-113542665D01*
X126448232Y-113555699D01*
X126560412Y-113723588D01*
X126728301Y-113835768D01*
X126926340Y-113875160D01*
X127124379Y-113835768D01*
X127292268Y-113723588D01*
X127363214Y-113617410D01*
X127439252Y-113731208D01*
X127449410Y-113741365D01*
X127449412Y-113741368D01*
X127591655Y-113836412D01*
X127617301Y-113853548D01*
X127815340Y-113892940D01*
X128013379Y-113853548D01*
X128181268Y-113741368D01*
X128251053Y-113636928D01*
X128328946Y-113711397D01*
X128390649Y-113750650D01*
X128447690Y-113796413D01*
X128475166Y-113804416D01*
X128499313Y-113819777D01*
X128571346Y-113832430D01*
X128641553Y-113852879D01*
X128961592Y-113880819D01*
X129060980Y-113869916D01*
X129160550Y-113859351D01*
X129511070Y-113750131D01*
X129688424Y-113653608D01*
X129744775Y-113583879D01*
X129855694Y-113675452D01*
X129872271Y-113684375D01*
X129885190Y-113698073D01*
X129960653Y-113731949D01*
X130033491Y-113771156D01*
X130052225Y-113773056D01*
X130069399Y-113780766D01*
X130379280Y-113851887D01*
X130452690Y-113854035D01*
X130525428Y-113864107D01*
X130552815Y-113856965D01*
X130581112Y-113857793D01*
X130649758Y-113831684D01*
X130720812Y-113813154D01*
X130972272Y-113691234D01*
X131006832Y-113665081D01*
X131046373Y-113647341D01*
X131086573Y-113604737D01*
X131133284Y-113569389D01*
X131155204Y-113532002D01*
X131184948Y-113500480D01*
X131385608Y-113180440D01*
X131393727Y-113159109D01*
X131407884Y-113141209D01*
X131429396Y-113065392D01*
X131457433Y-112991728D01*
X131456771Y-112968913D01*
X131463000Y-112946958D01*
X131490940Y-112598978D01*
X131483158Y-112532322D01*
X131484295Y-112465219D01*
X131395395Y-111974999D01*
X131375099Y-111923549D01*
X131364308Y-111869301D01*
X131338407Y-111830538D01*
X131321298Y-111787167D01*
X131282856Y-111747399D01*
X131252128Y-111701412D01*
X131010828Y-111460112D01*
X130944078Y-111415511D01*
X130881182Y-111365630D01*
X130860673Y-111359781D01*
X130842939Y-111347932D01*
X130764201Y-111332270D01*
X130687005Y-111310256D01*
X130438085Y-111289936D01*
X130237497Y-111313084D01*
X130150470Y-111361490D01*
X130006050Y-111413359D01*
X130414444Y-111020376D01*
X130423279Y-111007689D01*
X130435787Y-110998593D01*
X130480694Y-110925238D01*
X130529832Y-110854675D01*
X130533139Y-110839571D01*
X130541213Y-110826383D01*
X130554631Y-110741425D01*
X130573024Y-110657430D01*
X130570300Y-110642213D01*
X130572713Y-110626937D01*
X130552598Y-110543314D01*
X130537447Y-110458671D01*
X130529105Y-110445652D01*
X130525489Y-110430618D01*
X130362564Y-110077613D01*
X130680096Y-109963590D01*
X130694132Y-109955156D01*
X130710147Y-109951728D01*
X130764876Y-109914000D01*
X134806594Y-109914000D01*
X134806594Y-111414000D01*
X134829395Y-111535179D01*
X134901012Y-111646474D01*
X135010286Y-111721138D01*
X135140000Y-111747406D01*
X136640000Y-111747406D01*
X136761179Y-111724605D01*
X136872474Y-111652988D01*
X136947138Y-111543714D01*
X136973406Y-111414000D01*
X136973406Y-109914000D01*
X136950605Y-109792821D01*
X136878988Y-109681526D01*
X136769714Y-109606862D01*
X136640000Y-109580594D01*
X135140000Y-109580594D01*
X135018821Y-109603395D01*
X134907526Y-109675012D01*
X134832862Y-109784286D01*
X134806594Y-109914000D01*
X130764876Y-109914000D01*
X130780223Y-109903421D01*
X130853169Y-109859586D01*
X130862910Y-109846421D01*
X130876392Y-109837127D01*
X130922644Y-109765687D01*
X130973267Y-109697267D01*
X130977228Y-109681377D01*
X130986128Y-109667630D01*
X131001520Y-109583928D01*
X131022106Y-109501344D01*
X131019684Y-109485146D01*
X131022646Y-109469041D01*
X131012486Y-108768001D01*
X131001646Y-108717350D01*
X131000728Y-108665564D01*
X130980722Y-108619588D01*
X130970228Y-108570553D01*
X130940829Y-108527905D01*
X130920164Y-108480414D01*
X130884087Y-108445593D01*
X130855627Y-108404308D01*
X130813893Y-108377289D01*
X134812813Y-108377289D01*
X134976431Y-108773275D01*
X135279132Y-109076504D01*
X135674832Y-109240813D01*
X136103289Y-109241187D01*
X136499275Y-109077569D01*
X136802504Y-108774868D01*
X136966813Y-108379168D01*
X136967187Y-107950711D01*
X136803569Y-107554725D01*
X136500868Y-107251496D01*
X136105168Y-107087187D01*
X135676711Y-107086813D01*
X135280725Y-107250431D01*
X134977496Y-107553132D01*
X134813187Y-107948832D01*
X134812813Y-108377289D01*
X130813893Y-108377289D01*
X130812146Y-108376158D01*
X130774879Y-108340188D01*
X130728223Y-108321824D01*
X130686130Y-108294572D01*
X130635187Y-108285204D01*
X130586991Y-108266234D01*
X130334686Y-108220679D01*
X130495267Y-107871662D01*
X130497030Y-107864293D01*
X130501303Y-107858031D01*
X130520465Y-107766358D01*
X130542257Y-107675287D01*
X130541066Y-107667801D01*
X130542616Y-107660384D01*
X130525243Y-107568385D01*
X130510520Y-107475878D01*
X130506554Y-107469417D01*
X130505148Y-107461972D01*
X130453896Y-107383632D01*
X130404888Y-107303794D01*
X130398751Y-107299342D01*
X130394603Y-107293002D01*
X129876443Y-106764682D01*
X129860988Y-106754137D01*
X129849652Y-106739248D01*
X129778075Y-106697564D01*
X129709651Y-106650877D01*
X129691333Y-106647048D01*
X129675166Y-106637633D01*
X129593091Y-106626513D01*
X129512004Y-106609564D01*
X129493618Y-106613036D01*
X129475076Y-106610524D01*
X129394987Y-106631661D01*
X129313592Y-106647032D01*
X129297934Y-106657276D01*
X129279842Y-106662051D01*
X128938433Y-106828822D01*
X128808944Y-106491838D01*
X128801717Y-106480393D01*
X128798735Y-106467186D01*
X128798490Y-106466838D01*
X135266767Y-106466838D01*
X135351629Y-106621068D01*
X135758864Y-106754241D01*
X136186063Y-106721435D01*
X136428371Y-106621068D01*
X136513233Y-106466838D01*
X135890000Y-105843605D01*
X135266767Y-106466838D01*
X128798490Y-106466838D01*
X128748050Y-106395400D01*
X128701139Y-106321107D01*
X128690081Y-106313298D01*
X128682273Y-106302239D01*
X128607980Y-106255316D01*
X128536204Y-106204627D01*
X128523000Y-106201644D01*
X128511554Y-106194415D01*
X128424962Y-106179496D01*
X128339249Y-106160132D01*
X128325907Y-106162429D01*
X128312567Y-106160131D01*
X127621686Y-106177911D01*
X127605768Y-106181505D01*
X127589547Y-106179740D01*
X127507808Y-106203625D01*
X127424726Y-106222385D01*
X127411394Y-106231798D01*
X127395734Y-106236374D01*
X127329356Y-106289721D01*
X127259779Y-106338847D01*
X127251065Y-106352644D01*
X127238346Y-106362866D01*
X127197434Y-106437560D01*
X127151955Y-106509567D01*
X127149184Y-106525649D01*
X127141346Y-106539959D01*
X127042612Y-106853846D01*
X127013176Y-106866416D01*
X126710003Y-106713343D01*
X126680752Y-106705209D01*
X126654828Y-106689400D01*
X126584268Y-106678381D01*
X126515465Y-106659249D01*
X126485325Y-106662929D01*
X126455328Y-106658244D01*
X126385927Y-106675064D01*
X126315035Y-106683719D01*
X126288598Y-106698653D01*
X126259090Y-106705804D01*
X126201406Y-106747905D01*
X126139226Y-106783028D01*
X126120517Y-106806941D01*
X126095991Y-106824841D01*
X125626091Y-107335381D01*
X125614346Y-107354640D01*
X125597338Y-107369457D01*
X125562132Y-107440258D01*
X125520960Y-107507772D01*
X125517479Y-107530060D01*
X125507436Y-107550258D01*
X125502004Y-107629150D01*
X125489804Y-107707272D01*
X125495117Y-107729192D01*
X125493567Y-107751699D01*
X125518739Y-107826663D01*
X125537364Y-107903510D01*
X125550663Y-107921732D01*
X125557843Y-107943114D01*
X125709407Y-108207637D01*
X125679507Y-108292796D01*
X125391128Y-108364891D01*
X125356339Y-108381326D01*
X125318601Y-108388832D01*
X125265881Y-108424058D01*
X125208556Y-108451139D01*
X125182705Y-108479635D01*
X125150712Y-108501012D01*
X125115487Y-108553729D01*
X125072887Y-108600688D01*
X125059908Y-108636909D01*
X125038532Y-108668901D01*
X125026163Y-108731086D01*
X125004776Y-108790772D01*
X125006646Y-108829203D01*
X124999140Y-108866940D01*
X124999140Y-109547660D01*
X125003917Y-109571677D01*
X125001406Y-109596035D01*
X125023474Y-109669995D01*
X125038532Y-109745699D01*
X125052137Y-109766060D01*
X125059138Y-109789524D01*
X125107830Y-109849411D01*
X125150712Y-109913588D01*
X125171072Y-109927192D01*
X125186520Y-109946192D01*
X125254423Y-109982886D01*
X125318601Y-110025768D01*
X125342620Y-110030546D01*
X125364161Y-110042186D01*
X125738964Y-110157750D01*
X125741285Y-110163474D01*
X125588567Y-110423507D01*
X125578291Y-110453055D01*
X125560430Y-110478746D01*
X125545400Y-110547633D01*
X125522243Y-110614222D01*
X125524057Y-110645456D01*
X125517388Y-110676024D01*
X125529864Y-110745419D01*
X125533952Y-110815801D01*
X125547580Y-110843961D01*
X125553116Y-110874756D01*
X125591197Y-110934092D01*
X125621909Y-110997554D01*
X125645278Y-111018357D01*
X125662177Y-111044688D01*
X126041413Y-111438195D01*
X125930044Y-111540139D01*
X125844615Y-111723095D01*
X125836320Y-111756919D01*
X125812959Y-111754926D01*
X125776983Y-111742534D01*
X125713270Y-111746424D01*
X125649675Y-111741000D01*
X125613414Y-111752521D01*
X125575440Y-111754839D01*
X125561432Y-111761669D01*
X125560713Y-111758607D01*
X125477117Y-111574806D01*
X125329546Y-111436987D01*
X125140468Y-111366132D01*
X124938667Y-111373027D01*
X124754866Y-111456623D01*
X124617047Y-111604194D01*
X124546192Y-111793272D01*
X111031754Y-111793272D01*
X112713624Y-110111403D01*
X112841235Y-110164391D01*
X113090671Y-110164609D01*
X113321203Y-110069355D01*
X113326066Y-110064500D01*
X120649999Y-110064500D01*
X120851674Y-110024385D01*
X120924215Y-109975914D01*
X120962831Y-109975948D01*
X121193363Y-109880694D01*
X121369895Y-109704470D01*
X121465551Y-109474104D01*
X121465769Y-109224668D01*
X121370515Y-108994136D01*
X121194291Y-108817604D01*
X120963925Y-108721948D01*
X120714489Y-108721730D01*
X120483957Y-108816984D01*
X120307425Y-108993208D01*
X120300245Y-109010500D01*
X113493500Y-109010500D01*
X113493500Y-105998355D01*
X113499869Y-106004735D01*
X113730235Y-106100391D01*
X113843266Y-106100490D01*
X114150619Y-106407843D01*
X114150619Y-107373391D01*
X114071384Y-107452488D01*
X113975728Y-107682854D01*
X113975510Y-107932290D01*
X114070764Y-108162822D01*
X114246988Y-108339354D01*
X114477354Y-108435010D01*
X114726790Y-108435228D01*
X114957322Y-108339974D01*
X115133854Y-108163750D01*
X115229510Y-107933384D01*
X115229728Y-107683948D01*
X115134474Y-107453416D01*
X115054619Y-107373421D01*
X115054619Y-106220619D01*
X115020213Y-106047646D01*
X114922231Y-105901007D01*
X114482511Y-105461287D01*
X114482609Y-105349329D01*
X114387355Y-105118797D01*
X114211131Y-104942265D01*
X113980765Y-104846609D01*
X113731329Y-104846391D01*
X113500797Y-104941645D01*
X113493500Y-104948929D01*
X113493500Y-100880359D01*
X113497735Y-100876131D01*
X113593391Y-100645765D01*
X113593609Y-100396329D01*
X113498355Y-100165797D01*
X113322131Y-99989265D01*
X113091765Y-99893609D01*
X112842329Y-99893391D01*
X112765999Y-99924930D01*
X112765999Y-97464547D01*
X112836671Y-97464609D01*
X113067203Y-97369355D01*
X113243735Y-97193131D01*
X113339391Y-96962765D01*
X113339609Y-96713329D01*
X113244355Y-96482797D01*
X113068131Y-96306265D01*
X112837765Y-96210609D01*
X112588329Y-96210391D01*
X112357797Y-96305645D01*
X112181265Y-96481869D01*
X112085609Y-96712235D01*
X112085510Y-96825266D01*
X111994387Y-96916389D01*
X111896405Y-97063028D01*
X111861999Y-97236001D01*
X111861999Y-104603890D01*
X111659297Y-104687645D01*
X111482765Y-104863869D01*
X111387109Y-105094235D01*
X111386891Y-105343671D01*
X111482145Y-105574203D01*
X111658369Y-105750735D01*
X111888735Y-105846391D01*
X112138171Y-105846609D01*
X112368703Y-105751355D01*
X112439500Y-105680682D01*
X112439500Y-109030935D01*
X112340562Y-109050615D01*
X112326039Y-109060319D01*
X112169590Y-109164855D01*
X111259500Y-110074945D01*
X111259500Y-109400728D01*
X111338735Y-109321631D01*
X111434391Y-109091265D01*
X111434609Y-108841829D01*
X111339355Y-108611297D01*
X111163131Y-108434765D01*
X110932765Y-108339109D01*
X110683329Y-108338891D01*
X110452797Y-108434145D01*
X110410788Y-108476080D01*
X110363145Y-108428354D01*
X110132779Y-108332698D01*
X109883343Y-108332480D01*
X109652811Y-108427734D01*
X109572816Y-108507589D01*
X109543911Y-108507589D01*
X109370938Y-108541995D01*
X109224299Y-108639976D01*
X107366287Y-110497989D01*
X107254329Y-110497891D01*
X107023797Y-110593145D01*
X106847265Y-110769369D01*
X106751609Y-110999735D01*
X106751391Y-111249171D01*
X106801936Y-111371500D01*
X103568500Y-111371500D01*
X103424224Y-111400198D01*
X103395526Y-111405906D01*
X103248887Y-111503888D01*
X103048287Y-111704489D01*
X102936329Y-111704391D01*
X102705797Y-111799645D01*
X102529265Y-111975869D01*
X102433609Y-112206235D01*
X102433391Y-112455671D01*
X90402000Y-112455671D01*
X90402000Y-111506838D01*
X93356767Y-111506838D01*
X93441629Y-111661068D01*
X93848864Y-111794241D01*
X94276063Y-111761435D01*
X94518371Y-111661068D01*
X94603233Y-111506838D01*
X93980000Y-110883605D01*
X93356767Y-111506838D01*
X90402000Y-111506838D01*
X90402000Y-110572864D01*
X92889759Y-110572864D01*
X92922565Y-111000063D01*
X93022932Y-111242371D01*
X93177162Y-111327233D01*
X93800395Y-110704000D01*
X94159605Y-110704000D01*
X94782838Y-111327233D01*
X94937068Y-111242371D01*
X95070241Y-110835136D01*
X95037435Y-110407937D01*
X94937068Y-110165629D01*
X94782838Y-110080767D01*
X94159605Y-110704000D01*
X93800395Y-110704000D01*
X93177162Y-110080767D01*
X93022932Y-110165629D01*
X92889759Y-110572864D01*
X90402000Y-110572864D01*
X90402000Y-109901162D01*
X93356767Y-109901162D01*
X93980000Y-110524395D01*
X94603233Y-109901162D01*
X94518371Y-109746932D01*
X94111136Y-109613759D01*
X93683937Y-109646565D01*
X93441629Y-109746932D01*
X93356767Y-109901162D01*
X90402000Y-109901162D01*
X90402000Y-107454000D01*
X92896594Y-107454000D01*
X92896594Y-108954000D01*
X92919395Y-109075179D01*
X92991012Y-109186474D01*
X93100286Y-109261138D01*
X93230000Y-109287406D01*
X94730000Y-109287406D01*
X94851179Y-109264605D01*
X94962474Y-109192988D01*
X95037138Y-109083714D01*
X95063406Y-108954000D01*
X95063406Y-108656000D01*
X96592957Y-108656000D01*
X96592911Y-108709171D01*
X96688165Y-108939703D01*
X96864389Y-109116235D01*
X97094755Y-109211891D01*
X97344191Y-109212109D01*
X97574723Y-109116855D01*
X97751255Y-108940631D01*
X97846911Y-108710265D01*
X97847129Y-108460829D01*
X97751875Y-108230297D01*
X97575651Y-108053765D01*
X97345285Y-107958109D01*
X97232254Y-107958010D01*
X97158632Y-107884388D01*
X97011993Y-107786406D01*
X96839020Y-107752000D01*
X95063406Y-107752000D01*
X95063406Y-107454000D01*
X95040605Y-107332821D01*
X94968988Y-107221526D01*
X94859714Y-107146862D01*
X94730000Y-107120594D01*
X93230000Y-107120594D01*
X93108821Y-107143395D01*
X92997526Y-107215012D01*
X92922862Y-107324286D01*
X92896594Y-107454000D01*
X90402000Y-107454000D01*
X90402000Y-102870838D01*
X93356767Y-102870838D01*
X93441629Y-103025068D01*
X93848864Y-103158241D01*
X94276063Y-103125435D01*
X94518371Y-103025068D01*
X94603233Y-102870838D01*
X93980000Y-102247605D01*
X93356767Y-102870838D01*
X90402000Y-102870838D01*
X90402000Y-101936864D01*
X92889759Y-101936864D01*
X92922565Y-102364063D01*
X93022932Y-102606371D01*
X93177162Y-102691233D01*
X93800395Y-102068000D01*
X94159605Y-102068000D01*
X94782838Y-102691233D01*
X94937068Y-102606371D01*
X95070241Y-102199136D01*
X95037435Y-101771937D01*
X94937068Y-101529629D01*
X94782838Y-101444767D01*
X94159605Y-102068000D01*
X93800395Y-102068000D01*
X93177162Y-101444767D01*
X93022932Y-101529629D01*
X92889759Y-101936864D01*
X90402000Y-101936864D01*
X90402000Y-101265162D01*
X93356767Y-101265162D01*
X93980000Y-101888395D01*
X94603233Y-101265162D01*
X94518371Y-101110932D01*
X94111136Y-100977759D01*
X93683937Y-101010565D01*
X93441629Y-101110932D01*
X93356767Y-101265162D01*
X90402000Y-101265162D01*
X90402000Y-98818000D01*
X92896594Y-98818000D01*
X92896594Y-100318000D01*
X92919395Y-100439179D01*
X92991012Y-100550474D01*
X93100286Y-100625138D01*
X93230000Y-100651406D01*
X94730000Y-100651406D01*
X94851179Y-100628605D01*
X94962474Y-100556988D01*
X95037138Y-100447714D01*
X95063406Y-100318000D01*
X95063406Y-100020630D01*
X98178989Y-103136214D01*
X98178891Y-103248171D01*
X98274145Y-103478703D01*
X98450369Y-103655235D01*
X98680735Y-103750891D01*
X98930171Y-103751109D01*
X99160703Y-103655855D01*
X99337235Y-103479631D01*
X99432891Y-103249265D01*
X99433109Y-102999829D01*
X99337855Y-102769297D01*
X99161631Y-102592765D01*
X98931265Y-102497109D01*
X98818235Y-102497010D01*
X97219896Y-100898671D01*
X100274391Y-100898671D01*
X100369645Y-101129203D01*
X100545869Y-101305735D01*
X100776235Y-101401391D01*
X101025671Y-101401609D01*
X101256203Y-101306355D01*
X101261066Y-101301500D01*
X107970236Y-101301500D01*
X108171911Y-101261385D01*
X108328829Y-101156534D01*
X108459735Y-101210891D01*
X108709171Y-101211109D01*
X108939703Y-101115855D01*
X109116235Y-100939631D01*
X109211891Y-100709265D01*
X109212109Y-100459829D01*
X109116855Y-100229297D01*
X108940631Y-100052765D01*
X108710265Y-99957109D01*
X108460829Y-99956891D01*
X108230297Y-100052145D01*
X108225434Y-100057000D01*
X108160736Y-100057000D01*
X107959062Y-100097115D01*
X107788091Y-100211355D01*
X107751946Y-100247500D01*
X101261359Y-100247500D01*
X101257131Y-100243265D01*
X101026765Y-100147609D01*
X100777329Y-100147391D01*
X100546797Y-100242645D01*
X100370265Y-100418869D01*
X100274609Y-100649235D01*
X100274391Y-100898671D01*
X97219896Y-100898671D01*
X95569612Y-99248388D01*
X95422973Y-99150406D01*
X95250000Y-99116000D01*
X95063406Y-99116000D01*
X95063406Y-98818000D01*
X95040605Y-98696821D01*
X94968988Y-98585526D01*
X94859714Y-98510862D01*
X94730000Y-98484594D01*
X93230000Y-98484594D01*
X93108821Y-98507395D01*
X92997526Y-98579012D01*
X92922862Y-98688286D01*
X92896594Y-98818000D01*
X90402000Y-98818000D01*
X90402000Y-93088171D01*
X114180891Y-93088171D01*
X114276145Y-93318703D01*
X114356000Y-93398698D01*
X114356000Y-102191736D01*
X114390406Y-102364709D01*
X114488388Y-102511348D01*
X117630718Y-105653678D01*
X117546609Y-105856235D01*
X117546391Y-106105671D01*
X117641645Y-106336203D01*
X117817869Y-106512735D01*
X118048235Y-106608391D01*
X118297671Y-106608609D01*
X118528203Y-106513355D01*
X118704735Y-106337131D01*
X118800391Y-106106765D01*
X118800609Y-105857329D01*
X118705355Y-105626797D01*
X118622908Y-105544206D01*
X118620652Y-105532864D01*
X134799759Y-105532864D01*
X134832565Y-105960063D01*
X134932932Y-106202371D01*
X135087162Y-106287233D01*
X135710395Y-105664000D01*
X136069605Y-105664000D01*
X136692838Y-106287233D01*
X136847068Y-106202371D01*
X136980241Y-105795136D01*
X136947435Y-105367937D01*
X136847068Y-105125629D01*
X136692838Y-105040767D01*
X136069605Y-105664000D01*
X135710395Y-105664000D01*
X135087162Y-105040767D01*
X134932932Y-105125629D01*
X134799759Y-105532864D01*
X118620652Y-105532864D01*
X118591094Y-105384263D01*
X118493112Y-105237624D01*
X118116650Y-104861162D01*
X135266767Y-104861162D01*
X135890000Y-105484395D01*
X136513233Y-104861162D01*
X136428371Y-104706932D01*
X136021136Y-104573759D01*
X135593937Y-104606565D01*
X135351629Y-104706932D01*
X135266767Y-104861162D01*
X118116650Y-104861162D01*
X115260000Y-102004512D01*
X115260000Y-99783900D01*
X127047594Y-99783900D01*
X127047594Y-101511100D01*
X127070395Y-101632279D01*
X127142012Y-101743574D01*
X127251286Y-101818238D01*
X127381000Y-101844506D01*
X129413000Y-101844506D01*
X129534179Y-101821705D01*
X129645474Y-101750088D01*
X129720138Y-101640814D01*
X129746406Y-101511100D01*
X129746406Y-99783900D01*
X129723605Y-99662721D01*
X129651988Y-99551426D01*
X129542714Y-99476762D01*
X129413000Y-99450494D01*
X127381000Y-99450494D01*
X127259821Y-99473295D01*
X127148526Y-99544912D01*
X127073862Y-99654186D01*
X127047594Y-99783900D01*
X115260000Y-99783900D01*
X115260000Y-98418125D01*
X127095235Y-98418125D01*
X127295220Y-98828661D01*
X127643464Y-99137078D01*
X128083225Y-99288751D01*
X128270000Y-99217702D01*
X128270000Y-98234500D01*
X128524000Y-98234500D01*
X128524000Y-99217702D01*
X128710775Y-99288751D01*
X129150536Y-99137078D01*
X129314348Y-98992000D01*
X134806594Y-98992000D01*
X134806594Y-100492000D01*
X134829395Y-100613179D01*
X134901012Y-100724474D01*
X135010286Y-100799138D01*
X135140000Y-100825406D01*
X136640000Y-100825406D01*
X136761179Y-100802605D01*
X136872474Y-100730988D01*
X136947138Y-100621714D01*
X136973406Y-100492000D01*
X136973406Y-98992000D01*
X136950605Y-98870821D01*
X136878988Y-98759526D01*
X136769714Y-98684862D01*
X136640000Y-98658594D01*
X135140000Y-98658594D01*
X135018821Y-98681395D01*
X134907526Y-98753012D01*
X134832862Y-98862286D01*
X134806594Y-98992000D01*
X129314348Y-98992000D01*
X129498780Y-98828661D01*
X129698765Y-98418125D01*
X129650953Y-98234500D01*
X128524000Y-98234500D01*
X128270000Y-98234500D01*
X127143047Y-98234500D01*
X127095235Y-98418125D01*
X115260000Y-98418125D01*
X115260000Y-97787173D01*
X116720891Y-97787173D01*
X116816145Y-98017705D01*
X116992369Y-98194237D01*
X117222735Y-98289893D01*
X117472171Y-98290111D01*
X117702703Y-98194857D01*
X117782698Y-98115002D01*
X126149098Y-98115002D01*
X126322071Y-98080596D01*
X126468710Y-97982614D01*
X126654449Y-97796875D01*
X127095235Y-97796875D01*
X127143047Y-97980500D01*
X128270000Y-97980500D01*
X128270000Y-96997298D01*
X128524000Y-96997298D01*
X128524000Y-97980500D01*
X129650953Y-97980500D01*
X129698765Y-97796875D01*
X129532368Y-97455289D01*
X134812813Y-97455289D01*
X134976431Y-97851275D01*
X135279132Y-98154504D01*
X135674832Y-98318813D01*
X136103289Y-98319187D01*
X136499275Y-98155569D01*
X136802504Y-97852868D01*
X136966813Y-97457168D01*
X136967187Y-97028711D01*
X136803569Y-96632725D01*
X136500868Y-96329496D01*
X136105168Y-96165187D01*
X135676711Y-96164813D01*
X135280725Y-96328431D01*
X134977496Y-96631132D01*
X134813187Y-97026832D01*
X134812813Y-97455289D01*
X129532368Y-97455289D01*
X129498780Y-97386339D01*
X129150536Y-97077922D01*
X128710775Y-96926249D01*
X128524000Y-96997298D01*
X128270000Y-96997298D01*
X128083225Y-96926249D01*
X127643464Y-97077922D01*
X127295220Y-97386339D01*
X127095235Y-97796875D01*
X126654449Y-97796875D01*
X127780338Y-96670986D01*
X128218289Y-96758100D01*
X128575711Y-96758100D01*
X129031334Y-96667471D01*
X129417592Y-96409381D01*
X129675682Y-96023123D01*
X129766311Y-95567500D01*
X129761804Y-95544838D01*
X135266767Y-95544838D01*
X135351629Y-95699068D01*
X135758864Y-95832241D01*
X136186063Y-95799435D01*
X136428371Y-95699068D01*
X136513233Y-95544838D01*
X135890000Y-94921605D01*
X135266767Y-95544838D01*
X129761804Y-95544838D01*
X129675682Y-95111877D01*
X129417592Y-94725619D01*
X129245850Y-94610864D01*
X134799759Y-94610864D01*
X134832565Y-95038063D01*
X134932932Y-95280371D01*
X135087162Y-95365233D01*
X135710395Y-94742000D01*
X136069605Y-94742000D01*
X136692838Y-95365233D01*
X136847068Y-95280371D01*
X136980241Y-94873136D01*
X136947435Y-94445937D01*
X136847068Y-94203629D01*
X136692838Y-94118767D01*
X136069605Y-94742000D01*
X135710395Y-94742000D01*
X135087162Y-94118767D01*
X134932932Y-94203629D01*
X134799759Y-94610864D01*
X129245850Y-94610864D01*
X129031334Y-94467529D01*
X128575711Y-94376900D01*
X128218289Y-94376900D01*
X127762666Y-94467529D01*
X127376408Y-94725619D01*
X127118318Y-95111877D01*
X127027689Y-95567500D01*
X127118318Y-96023123D01*
X127130909Y-96041967D01*
X125961874Y-97211002D01*
X124700322Y-97211002D01*
X127780338Y-94130986D01*
X128218289Y-94218100D01*
X128575711Y-94218100D01*
X129031334Y-94127471D01*
X129313157Y-93939162D01*
X135266767Y-93939162D01*
X135890000Y-94562395D01*
X136513233Y-93939162D01*
X136428371Y-93784932D01*
X136021136Y-93651759D01*
X135593937Y-93684565D01*
X135351629Y-93784932D01*
X135266767Y-93939162D01*
X129313157Y-93939162D01*
X129417592Y-93869381D01*
X129675682Y-93483123D01*
X129766311Y-93027500D01*
X129675682Y-92571877D01*
X129417592Y-92185619D01*
X129031334Y-91927529D01*
X128575711Y-91836900D01*
X128218289Y-91836900D01*
X127762666Y-91927529D01*
X127376408Y-92185619D01*
X127118318Y-92571877D01*
X127027689Y-93027500D01*
X127118318Y-93483123D01*
X127130909Y-93501967D01*
X123883877Y-96748999D01*
X118343224Y-96748999D01*
X118127411Y-96533187D01*
X118127509Y-96421229D01*
X118032255Y-96190697D01*
X117856031Y-96014165D01*
X117625665Y-95918509D01*
X117376229Y-95918291D01*
X117145697Y-96013545D01*
X116969165Y-96189769D01*
X116873509Y-96420135D01*
X116873291Y-96669571D01*
X116968545Y-96900103D01*
X117139062Y-97070918D01*
X116993297Y-97131147D01*
X116816765Y-97307371D01*
X116721109Y-97537737D01*
X116720891Y-97787173D01*
X115260000Y-97787173D01*
X115260000Y-93630961D01*
X115293651Y-93664612D01*
X115440291Y-93762594D01*
X115613264Y-93797000D01*
X119580272Y-93797000D01*
X119659369Y-93876235D01*
X119889735Y-93971891D01*
X120139171Y-93972109D01*
X120369703Y-93876855D01*
X120546235Y-93700631D01*
X120641891Y-93470265D01*
X120642109Y-93220829D01*
X120546855Y-92990297D01*
X120370631Y-92813765D01*
X120140265Y-92718109D01*
X119890829Y-92717891D01*
X119660297Y-92813145D01*
X119580302Y-92893000D01*
X115800489Y-92893000D01*
X115551876Y-92644388D01*
X115405237Y-92546406D01*
X115245320Y-92514597D01*
X115163631Y-92432765D01*
X114933265Y-92337109D01*
X114683829Y-92336891D01*
X114453297Y-92432145D01*
X114276765Y-92608369D01*
X114181109Y-92838735D01*
X114180891Y-93088171D01*
X90402000Y-93088171D01*
X90402000Y-91310171D01*
X124277391Y-91310171D01*
X124372645Y-91540703D01*
X124377500Y-91545566D01*
X124377500Y-94001141D01*
X124373265Y-94005369D01*
X124277609Y-94235735D01*
X124277391Y-94485171D01*
X124372645Y-94715703D01*
X124548869Y-94892235D01*
X124779235Y-94987891D01*
X125028671Y-94988109D01*
X125259203Y-94892855D01*
X125435735Y-94716631D01*
X125531391Y-94486265D01*
X125531609Y-94236829D01*
X125436355Y-94006297D01*
X125431500Y-94001434D01*
X125431500Y-91545859D01*
X125435735Y-91541631D01*
X125531391Y-91311265D01*
X125531609Y-91061829D01*
X125436355Y-90831297D01*
X125260131Y-90654765D01*
X125029765Y-90559109D01*
X124780329Y-90558891D01*
X124549797Y-90654145D01*
X124373265Y-90830369D01*
X124277609Y-91060735D01*
X124277391Y-91310171D01*
X90402000Y-91310171D01*
X90402000Y-88582500D01*
X90979594Y-88582500D01*
X90979594Y-90614500D01*
X91002395Y-90735679D01*
X91074012Y-90846974D01*
X91183286Y-90921638D01*
X91313000Y-90947906D01*
X93345000Y-90947906D01*
X93466179Y-90925105D01*
X93577474Y-90853488D01*
X93652138Y-90744214D01*
X93678406Y-90614500D01*
X93678406Y-88582500D01*
X93655605Y-88461321D01*
X93583988Y-88350026D01*
X93474714Y-88275362D01*
X93345000Y-88249094D01*
X92892540Y-88249094D01*
X93135862Y-88132116D01*
X93191446Y-88070000D01*
X134806594Y-88070000D01*
X134806594Y-89570000D01*
X134829395Y-89691179D01*
X134901012Y-89802474D01*
X135010286Y-89877138D01*
X135140000Y-89903406D01*
X136640000Y-89903406D01*
X136761179Y-89880605D01*
X136872474Y-89808988D01*
X136947138Y-89699714D01*
X136973406Y-89570000D01*
X136973406Y-88070000D01*
X136950605Y-87948821D01*
X136878988Y-87837526D01*
X136769714Y-87762862D01*
X136640000Y-87736594D01*
X135140000Y-87736594D01*
X135018821Y-87759395D01*
X134907526Y-87831012D01*
X134832862Y-87940286D01*
X134806594Y-88070000D01*
X93191446Y-88070000D01*
X93485298Y-87741619D01*
X93629654Y-87393086D01*
X93583840Y-87185500D01*
X92456000Y-87185500D01*
X92456000Y-87205500D01*
X92202000Y-87205500D01*
X92202000Y-87185500D01*
X91074160Y-87185500D01*
X91028346Y-87393086D01*
X91172702Y-87741619D01*
X91522138Y-88132116D01*
X91765460Y-88249094D01*
X91313000Y-88249094D01*
X91191821Y-88271895D01*
X91080526Y-88343512D01*
X91005862Y-88452786D01*
X90979594Y-88582500D01*
X90402000Y-88582500D01*
X90402000Y-86723914D01*
X91028346Y-86723914D01*
X91074160Y-86931500D01*
X92202000Y-86931500D01*
X92202000Y-85803258D01*
X92456000Y-85803258D01*
X92456000Y-86931500D01*
X93583840Y-86931500D01*
X93629654Y-86723914D01*
X93550701Y-86533289D01*
X134812813Y-86533289D01*
X134976431Y-86929275D01*
X135279132Y-87232504D01*
X135674832Y-87396813D01*
X136103289Y-87397187D01*
X136499275Y-87233569D01*
X136802504Y-86930868D01*
X136966813Y-86535168D01*
X136967187Y-86106711D01*
X136803569Y-85710725D01*
X136500868Y-85407496D01*
X136105168Y-85243187D01*
X135676711Y-85242813D01*
X135280725Y-85406431D01*
X134977496Y-85709132D01*
X134813187Y-86104832D01*
X134812813Y-86533289D01*
X93550701Y-86533289D01*
X93485298Y-86375381D01*
X93135862Y-85984884D01*
X92663588Y-85757836D01*
X92456000Y-85803258D01*
X92202000Y-85803258D01*
X91994412Y-85757836D01*
X91522138Y-85984884D01*
X91172702Y-86375381D01*
X91028346Y-86723914D01*
X90402000Y-86723914D01*
X90402000Y-83996701D01*
X91078762Y-83996701D01*
X91287956Y-84502989D01*
X91674974Y-84890683D01*
X92180896Y-85100760D01*
X92728701Y-85101238D01*
X93234989Y-84892044D01*
X93504665Y-84622838D01*
X135266767Y-84622838D01*
X135351629Y-84777068D01*
X135758864Y-84910241D01*
X136186063Y-84877435D01*
X136428371Y-84777068D01*
X136513233Y-84622838D01*
X135890000Y-83999605D01*
X135266767Y-84622838D01*
X93504665Y-84622838D01*
X93622683Y-84505026D01*
X93832760Y-83999104D01*
X93833238Y-83451299D01*
X93624044Y-82945011D01*
X93237026Y-82557317D01*
X92731104Y-82347240D01*
X92183299Y-82346762D01*
X91677011Y-82555956D01*
X91289317Y-82942974D01*
X91079240Y-83448896D01*
X91078762Y-83996701D01*
X90402000Y-83996701D01*
X90402000Y-81470500D01*
X105038494Y-81470500D01*
X105038494Y-83502500D01*
X105061295Y-83623679D01*
X105132912Y-83734974D01*
X105242186Y-83809638D01*
X105371900Y-83835906D01*
X107099100Y-83835906D01*
X107220279Y-83813105D01*
X107331574Y-83741488D01*
X107406238Y-83632214D01*
X107432506Y-83502500D01*
X107432506Y-82307789D01*
X107584900Y-82307789D01*
X107584900Y-82665211D01*
X107675529Y-83120834D01*
X107933619Y-83507092D01*
X108319877Y-83765182D01*
X108775500Y-83855811D01*
X109231123Y-83765182D01*
X109617381Y-83507092D01*
X109875471Y-83120834D01*
X109966100Y-82665211D01*
X109966100Y-82307789D01*
X110124900Y-82307789D01*
X110124900Y-82665211D01*
X110215529Y-83120834D01*
X110473619Y-83507092D01*
X110859877Y-83765182D01*
X111315500Y-83855811D01*
X111771123Y-83765182D01*
X112157381Y-83507092D01*
X112415471Y-83120834D01*
X112506100Y-82665211D01*
X112506100Y-82307789D01*
X112415471Y-81852166D01*
X112157381Y-81465908D01*
X111771123Y-81207818D01*
X111315500Y-81117189D01*
X110859877Y-81207818D01*
X110473619Y-81465908D01*
X110215529Y-81852166D01*
X110124900Y-82307789D01*
X109966100Y-82307789D01*
X109875471Y-81852166D01*
X109617381Y-81465908D01*
X109231123Y-81207818D01*
X108775500Y-81117189D01*
X108319877Y-81207818D01*
X107933619Y-81465908D01*
X107675529Y-81852166D01*
X107584900Y-82307789D01*
X107432506Y-82307789D01*
X107432506Y-81470500D01*
X107409705Y-81349321D01*
X107338088Y-81238026D01*
X107228814Y-81163362D01*
X107099100Y-81137094D01*
X105371900Y-81137094D01*
X105250721Y-81159895D01*
X105139426Y-81231512D01*
X105064762Y-81340786D01*
X105038494Y-81470500D01*
X90402000Y-81470500D01*
X90402000Y-79984108D01*
X94205497Y-79984108D01*
X94278006Y-80127968D01*
X94648845Y-80244361D01*
X95035997Y-80209981D01*
X95233994Y-80127968D01*
X95306503Y-79984108D01*
X94756000Y-79433605D01*
X94205497Y-79984108D01*
X90402000Y-79984108D01*
X90402000Y-79146845D01*
X93765639Y-79146845D01*
X93800019Y-79533997D01*
X93882032Y-79731994D01*
X94025892Y-79804503D01*
X94576395Y-79254000D01*
X94935605Y-79254000D01*
X95486108Y-79804503D01*
X95629968Y-79731994D01*
X95663863Y-79624000D01*
X96312594Y-79624000D01*
X96312594Y-80924000D01*
X96335395Y-81045179D01*
X96407012Y-81156474D01*
X96516286Y-81231138D01*
X96646000Y-81257406D01*
X97946000Y-81257406D01*
X98067179Y-81234605D01*
X98178474Y-81162988D01*
X98253138Y-81053714D01*
X98279406Y-80924000D01*
X98279406Y-79624000D01*
X98256605Y-79502821D01*
X98184988Y-79391526D01*
X98075714Y-79316862D01*
X97946000Y-79290594D01*
X96646000Y-79290594D01*
X96524821Y-79313395D01*
X96413526Y-79385012D01*
X96338862Y-79494286D01*
X96312594Y-79624000D01*
X95663863Y-79624000D01*
X95746361Y-79361155D01*
X95711981Y-78974003D01*
X95629968Y-78776006D01*
X95486108Y-78703497D01*
X94935605Y-79254000D01*
X94576395Y-79254000D01*
X94025892Y-78703497D01*
X93882032Y-78776006D01*
X93765639Y-79146845D01*
X90402000Y-79146845D01*
X90402000Y-78523892D01*
X94205497Y-78523892D01*
X94756000Y-79074395D01*
X95306503Y-78523892D01*
X95257912Y-78427485D01*
X96318830Y-78427485D01*
X96467256Y-78786703D01*
X96741851Y-79061778D01*
X97100810Y-79210830D01*
X97489485Y-79211170D01*
X97848703Y-79062744D01*
X98123778Y-78788149D01*
X98272830Y-78429190D01*
X98273170Y-78040515D01*
X98124744Y-77681297D01*
X97850149Y-77406222D01*
X97491190Y-77257170D01*
X97102515Y-77256830D01*
X96743297Y-77405256D01*
X96468222Y-77679851D01*
X96319170Y-78038810D01*
X96318830Y-78427485D01*
X95257912Y-78427485D01*
X95233994Y-78380032D01*
X94863155Y-78263639D01*
X94476003Y-78298019D01*
X94278006Y-78380032D01*
X94205497Y-78523892D01*
X90402000Y-78523892D01*
X90402000Y-77407485D01*
X93778830Y-77407485D01*
X93927256Y-77766703D01*
X94201851Y-78041778D01*
X94560810Y-78190830D01*
X94949485Y-78191170D01*
X95308703Y-78042744D01*
X95583778Y-77768149D01*
X95732830Y-77409190D01*
X95733170Y-77020515D01*
X95584744Y-76661297D01*
X95311410Y-76387485D01*
X96318830Y-76387485D01*
X96467256Y-76746703D01*
X96741851Y-77021778D01*
X97100810Y-77170830D01*
X97489485Y-77171170D01*
X97848703Y-77022744D01*
X98123778Y-76748149D01*
X98141623Y-76705171D01*
X112466391Y-76705171D01*
X112561645Y-76935703D01*
X112641500Y-77015698D01*
X112641500Y-83321772D01*
X112562265Y-83400869D01*
X112466609Y-83631235D01*
X112466391Y-83880671D01*
X112561645Y-84111203D01*
X112737869Y-84287735D01*
X112968235Y-84383391D01*
X113217671Y-84383609D01*
X113448203Y-84288355D01*
X113624735Y-84112131D01*
X113720391Y-83881765D01*
X113720559Y-83688864D01*
X134799759Y-83688864D01*
X134832565Y-84116063D01*
X134932932Y-84358371D01*
X135087162Y-84443233D01*
X135710395Y-83820000D01*
X136069605Y-83820000D01*
X136692838Y-84443233D01*
X136847068Y-84358371D01*
X136980241Y-83951136D01*
X136947435Y-83523937D01*
X136847068Y-83281629D01*
X136692838Y-83196767D01*
X136069605Y-83820000D01*
X135710395Y-83820000D01*
X135087162Y-83196767D01*
X134932932Y-83281629D01*
X134799759Y-83688864D01*
X113720559Y-83688864D01*
X113720609Y-83632329D01*
X113625355Y-83401797D01*
X113545500Y-83321802D01*
X113545500Y-83017162D01*
X135266767Y-83017162D01*
X135890000Y-83640395D01*
X136513233Y-83017162D01*
X136428371Y-82862932D01*
X136021136Y-82729759D01*
X135593937Y-82762565D01*
X135351629Y-82862932D01*
X135266767Y-83017162D01*
X113545500Y-83017162D01*
X113545500Y-77228000D01*
X134806594Y-77228000D01*
X134806594Y-78728000D01*
X134829395Y-78849179D01*
X134901012Y-78960474D01*
X135010286Y-79035138D01*
X135140000Y-79061406D01*
X136640000Y-79061406D01*
X136761179Y-79038605D01*
X136872474Y-78966988D01*
X136947138Y-78857714D01*
X136973406Y-78728000D01*
X136973406Y-77228000D01*
X136950605Y-77106821D01*
X136878988Y-76995526D01*
X136769714Y-76920862D01*
X136640000Y-76894594D01*
X135140000Y-76894594D01*
X135018821Y-76917395D01*
X134907526Y-76989012D01*
X134832862Y-77098286D01*
X134806594Y-77228000D01*
X113545500Y-77228000D01*
X113545500Y-77015728D01*
X113624735Y-76936631D01*
X113720391Y-76706265D01*
X113720609Y-76456829D01*
X113625355Y-76226297D01*
X113494494Y-76095207D01*
X118474398Y-76095207D01*
X118620601Y-76301400D01*
X119209308Y-76518233D01*
X119836182Y-76493271D01*
X120299399Y-76301400D01*
X120445602Y-76095207D01*
X119460000Y-75109605D01*
X118474398Y-76095207D01*
X113494494Y-76095207D01*
X113449131Y-76049765D01*
X113218765Y-75954109D01*
X112969329Y-75953891D01*
X112738797Y-76049145D01*
X112562265Y-76225369D01*
X112466609Y-76455735D01*
X112466391Y-76705171D01*
X98141623Y-76705171D01*
X98272830Y-76389190D01*
X98273170Y-76000515D01*
X98124744Y-75641297D01*
X97850149Y-75366222D01*
X97491190Y-75217170D01*
X97102515Y-75216830D01*
X96743297Y-75365256D01*
X96468222Y-75639851D01*
X96319170Y-75998810D01*
X96318830Y-76387485D01*
X95311410Y-76387485D01*
X95310149Y-76386222D01*
X94951190Y-76237170D01*
X94562515Y-76236830D01*
X94203297Y-76385256D01*
X93928222Y-76659851D01*
X93779170Y-77018810D01*
X93778830Y-77407485D01*
X90402000Y-77407485D01*
X90402000Y-75367485D01*
X93778830Y-75367485D01*
X93927256Y-75726703D01*
X94201851Y-76001778D01*
X94560810Y-76150830D01*
X94949485Y-76151170D01*
X95308703Y-76002744D01*
X95583778Y-75728149D01*
X95732830Y-75369190D01*
X95733161Y-74990671D01*
X108656391Y-74990671D01*
X108751645Y-75221203D01*
X108927869Y-75397735D01*
X109158235Y-75493391D01*
X109407671Y-75493609D01*
X109638203Y-75398355D01*
X109643066Y-75393500D01*
X111721900Y-75393500D01*
X111923575Y-75353385D01*
X112094545Y-75239145D01*
X112654382Y-74679308D01*
X117871767Y-74679308D01*
X117896729Y-75306182D01*
X118088600Y-75769399D01*
X118294793Y-75915602D01*
X119280395Y-74930000D01*
X119639605Y-74930000D01*
X120625207Y-75915602D01*
X120831400Y-75769399D01*
X121025538Y-75242308D01*
X122882727Y-75242308D01*
X123122305Y-75822132D01*
X123565535Y-76266136D01*
X124144939Y-76506725D01*
X124772308Y-76507273D01*
X125352132Y-76267695D01*
X125796136Y-75824465D01*
X126036725Y-75245061D01*
X126037273Y-74617692D01*
X125797695Y-74037868D01*
X125440451Y-73680000D01*
X127876594Y-73680000D01*
X127876594Y-76180000D01*
X127899395Y-76301179D01*
X127971012Y-76412474D01*
X128080286Y-76487138D01*
X128210000Y-76513406D01*
X130710000Y-76513406D01*
X130831179Y-76490605D01*
X130942474Y-76418988D01*
X131017138Y-76309714D01*
X131043406Y-76180000D01*
X131043406Y-75691289D01*
X134812813Y-75691289D01*
X134976431Y-76087275D01*
X135279132Y-76390504D01*
X135674832Y-76554813D01*
X136103289Y-76555187D01*
X136499275Y-76391569D01*
X136802504Y-76088868D01*
X136966813Y-75693168D01*
X136967187Y-75264711D01*
X136803569Y-74868725D01*
X136500868Y-74565496D01*
X136105168Y-74401187D01*
X135676711Y-74400813D01*
X135280725Y-74564431D01*
X134977496Y-74867132D01*
X134813187Y-75262832D01*
X134812813Y-75691289D01*
X131043406Y-75691289D01*
X131043406Y-73780838D01*
X135266767Y-73780838D01*
X135351629Y-73935068D01*
X135758864Y-74068241D01*
X136186063Y-74035435D01*
X136428371Y-73935068D01*
X136513233Y-73780838D01*
X135890000Y-73157605D01*
X135266767Y-73780838D01*
X131043406Y-73780838D01*
X131043406Y-73680000D01*
X131020605Y-73558821D01*
X130948988Y-73447526D01*
X130839714Y-73372862D01*
X130710000Y-73346594D01*
X128210000Y-73346594D01*
X128088821Y-73369395D01*
X127977526Y-73441012D01*
X127902862Y-73550286D01*
X127876594Y-73680000D01*
X125440451Y-73680000D01*
X125354465Y-73593864D01*
X124775061Y-73353275D01*
X124147692Y-73352727D01*
X123567868Y-73592305D01*
X123123864Y-74035535D01*
X122883275Y-74614939D01*
X122882727Y-75242308D01*
X121025538Y-75242308D01*
X121048233Y-75180692D01*
X121023271Y-74553818D01*
X120831400Y-74090601D01*
X120625207Y-73944398D01*
X119639605Y-74930000D01*
X119280395Y-74930000D01*
X118294793Y-73944398D01*
X118088600Y-74090601D01*
X117871767Y-74679308D01*
X112654382Y-74679308D01*
X113568897Y-73764793D01*
X118474398Y-73764793D01*
X119460000Y-74750395D01*
X120445602Y-73764793D01*
X120299399Y-73558600D01*
X119710692Y-73341767D01*
X119083818Y-73366729D01*
X118620601Y-73558600D01*
X118474398Y-73764793D01*
X113568897Y-73764793D01*
X113848284Y-73485406D01*
X115163600Y-73485406D01*
X115284779Y-73462605D01*
X115396074Y-73390988D01*
X115470738Y-73281714D01*
X115497006Y-73152000D01*
X115497006Y-72846864D01*
X134799759Y-72846864D01*
X134832565Y-73274063D01*
X134932932Y-73516371D01*
X135087162Y-73601233D01*
X135710395Y-72978000D01*
X136069605Y-72978000D01*
X136692838Y-73601233D01*
X136847068Y-73516371D01*
X136980241Y-73109136D01*
X136947435Y-72681937D01*
X136847068Y-72439629D01*
X136692838Y-72354767D01*
X136069605Y-72978000D01*
X135710395Y-72978000D01*
X135087162Y-72354767D01*
X134932932Y-72439629D01*
X134799759Y-72846864D01*
X115497006Y-72846864D01*
X115497006Y-72175162D01*
X135266767Y-72175162D01*
X135890000Y-72798395D01*
X136513233Y-72175162D01*
X136428371Y-72020932D01*
X136021136Y-71887759D01*
X135593937Y-71920565D01*
X135351629Y-72020932D01*
X135266767Y-72175162D01*
X115497006Y-72175162D01*
X115497006Y-71120000D01*
X115474205Y-70998821D01*
X115402588Y-70887526D01*
X115293314Y-70812862D01*
X115163600Y-70786594D01*
X113436400Y-70786594D01*
X113315221Y-70809395D01*
X113203926Y-70881012D01*
X113129262Y-70990286D01*
X113102994Y-71120000D01*
X113102994Y-72740116D01*
X111503610Y-74339500D01*
X109643359Y-74339500D01*
X109639131Y-74335265D01*
X109408765Y-74239609D01*
X109159329Y-74239391D01*
X108928797Y-74334645D01*
X108752265Y-74510869D01*
X108656609Y-74741235D01*
X108656391Y-74990671D01*
X95733161Y-74990671D01*
X95733170Y-74980515D01*
X95584744Y-74621297D01*
X95310149Y-74346222D01*
X94951190Y-74197170D01*
X94562515Y-74196830D01*
X94203297Y-74345256D01*
X93928222Y-74619851D01*
X93779170Y-74978810D01*
X93778830Y-75367485D01*
X90402000Y-75367485D01*
X90402000Y-70402000D01*
X92049613Y-70402000D01*
X91677011Y-70555956D01*
X91677011Y-70555956D01*
G37*
X91677011Y-70555956D02*
X91289317Y-70942974D01*
X91079240Y-71448896D01*
X91078762Y-71996701D01*
X91287956Y-72502989D01*
X91674974Y-72890683D01*
X92180896Y-73100760D01*
X92728701Y-73101238D01*
X93234989Y-72892044D01*
X93622683Y-72505026D01*
X93645625Y-72449775D01*
X102958749Y-72449775D01*
X103110422Y-72889536D01*
X103418839Y-73237780D01*
X103829375Y-73437765D01*
X104013000Y-73389953D01*
X104013000Y-72263000D01*
X104267000Y-72263000D01*
X104267000Y-73389953D01*
X104450625Y-73437765D01*
X104861161Y-73237780D01*
X105169578Y-72889536D01*
X105321251Y-72449775D01*
X105250202Y-72263000D01*
X104267000Y-72263000D01*
X104013000Y-72263000D01*
X103029798Y-72263000D01*
X102958749Y-72449775D01*
X93645625Y-72449775D01*
X93832760Y-71999104D01*
X93832914Y-71822225D01*
X102958749Y-71822225D01*
X103029798Y-72009000D01*
X104013000Y-72009000D01*
X104013000Y-70882047D01*
X104267000Y-70882047D01*
X104267000Y-72009000D01*
X105250202Y-72009000D01*
X105269872Y-71957289D01*
X105489400Y-71957289D01*
X105489400Y-72314711D01*
X105580029Y-72770334D01*
X105838119Y-73156592D01*
X106224377Y-73414682D01*
X106680000Y-73505311D01*
X107135623Y-73414682D01*
X107521881Y-73156592D01*
X107779971Y-72770334D01*
X107870600Y-72314711D01*
X107870600Y-71957289D01*
X108029400Y-71957289D01*
X108029400Y-72314711D01*
X108120029Y-72770334D01*
X108378119Y-73156592D01*
X108764377Y-73414682D01*
X109220000Y-73505311D01*
X109675623Y-73414682D01*
X110061881Y-73156592D01*
X110319971Y-72770334D01*
X110410600Y-72314711D01*
X110410600Y-71957289D01*
X110569400Y-71957289D01*
X110569400Y-72314711D01*
X110660029Y-72770334D01*
X110918119Y-73156592D01*
X111304377Y-73414682D01*
X111760000Y-73505311D01*
X112215623Y-73414682D01*
X112601881Y-73156592D01*
X112859971Y-72770334D01*
X112950600Y-72314711D01*
X112950600Y-71957289D01*
X112859971Y-71501666D01*
X112601881Y-71115408D01*
X112215623Y-70857318D01*
X111760000Y-70766689D01*
X111304377Y-70857318D01*
X110918119Y-71115408D01*
X110660029Y-71501666D01*
X110569400Y-71957289D01*
X110410600Y-71957289D01*
X110319971Y-71501666D01*
X110061881Y-71115408D01*
X109675623Y-70857318D01*
X109220000Y-70766689D01*
X108764377Y-70857318D01*
X108378119Y-71115408D01*
X108120029Y-71501666D01*
X108029400Y-71957289D01*
X107870600Y-71957289D01*
X107779971Y-71501666D01*
X107521881Y-71115408D01*
X107135623Y-70857318D01*
X106680000Y-70766689D01*
X106224377Y-70857318D01*
X105838119Y-71115408D01*
X105580029Y-71501666D01*
X105489400Y-71957289D01*
X105269872Y-71957289D01*
X105321251Y-71822225D01*
X105169578Y-71382464D01*
X104861161Y-71034220D01*
X104450625Y-70834235D01*
X104267000Y-70882047D01*
X104013000Y-70882047D01*
X103829375Y-70834235D01*
X103418839Y-71034220D01*
X103110422Y-71382464D01*
X102958749Y-71822225D01*
X93832914Y-71822225D01*
X93833238Y-71451299D01*
X93624044Y-70945011D01*
X93237026Y-70557317D01*
X92862981Y-70402000D01*
X139598000Y-70402000D01*
X139598000Y-101087286D01*
X137328000Y-101087286D01*
X137328000Y-119598000D01*
X90402000Y-119598000D01*
X90402000Y-117810750D01*
X91265400Y-117810750D01*
X91265400Y-118683044D01*
X91315183Y-118803230D01*
X91407169Y-118895217D01*
X91527355Y-118945000D01*
X92247250Y-118945000D01*
X92329000Y-118863250D01*
X92329000Y-117729000D01*
X92583000Y-117729000D01*
X92583000Y-118863250D01*
X92664750Y-118945000D01*
X93384645Y-118945000D01*
X93504831Y-118895217D01*
X93596817Y-118803230D01*
X93646600Y-118683044D01*
X93646600Y-117810750D01*
X93564850Y-117729000D01*
X92583000Y-117729000D01*
X92329000Y-117729000D01*
X91347150Y-117729000D01*
X91265400Y-117810750D01*
X90402000Y-117810750D01*
X90402000Y-116520956D01*
X91265400Y-116520956D01*
X91265400Y-117393250D01*
X91347150Y-117475000D01*
X92329000Y-117475000D01*
X92329000Y-116340750D01*
X92583000Y-116340750D01*
X92583000Y-117475000D01*
X93564850Y-117475000D01*
X93616561Y-117423289D01*
X93805400Y-117423289D01*
X93805400Y-117780711D01*
X93896029Y-118236334D01*
X94154119Y-118622592D01*
X94540377Y-118880682D01*
X94996000Y-118971311D01*
X95451623Y-118880682D01*
X95837881Y-118622592D01*
X96095971Y-118236334D01*
X96186600Y-117780711D01*
X96186600Y-117423289D01*
X96345400Y-117423289D01*
X96345400Y-117780711D01*
X96436029Y-118236334D01*
X96694119Y-118622592D01*
X97080377Y-118880682D01*
X97536000Y-118971311D01*
X97991623Y-118880682D01*
X98377881Y-118622592D01*
X98635971Y-118236334D01*
X98726600Y-117780711D01*
X98726600Y-117423289D01*
X98885400Y-117423289D01*
X98885400Y-117780711D01*
X98976029Y-118236334D01*
X99234119Y-118622592D01*
X99620377Y-118880682D01*
X100076000Y-118971311D01*
X100531623Y-118880682D01*
X100917881Y-118622592D01*
X101175971Y-118236334D01*
X101266600Y-117780711D01*
X101266600Y-117423289D01*
X101425400Y-117423289D01*
X101425400Y-117780711D01*
X101516029Y-118236334D01*
X101774119Y-118622592D01*
X102160377Y-118880682D01*
X102616000Y-118971311D01*
X103071623Y-118880682D01*
X103457881Y-118622592D01*
X103715971Y-118236334D01*
X103806600Y-117780711D01*
X103806600Y-117423289D01*
X103965400Y-117423289D01*
X103965400Y-117780711D01*
X104056029Y-118236334D01*
X104314119Y-118622592D01*
X104700377Y-118880682D01*
X105156000Y-118971311D01*
X105611623Y-118880682D01*
X105997881Y-118622592D01*
X106217688Y-118293627D01*
X124898123Y-118293627D01*
X125104486Y-118709829D01*
X125454414Y-119015378D01*
X125736875Y-119132365D01*
X125920500Y-119084553D01*
X125920500Y-118110000D01*
X126174500Y-118110000D01*
X126174500Y-119084553D01*
X126358125Y-119132365D01*
X126640586Y-119015378D01*
X126990514Y-118709829D01*
X127196877Y-118293627D01*
X127149569Y-118110000D01*
X126174500Y-118110000D01*
X125920500Y-118110000D01*
X124945431Y-118110000D01*
X124898123Y-118293627D01*
X106217688Y-118293627D01*
X106255971Y-118236334D01*
X106311001Y-117959675D01*
X127396900Y-117959675D01*
X127396900Y-118006325D01*
X127487529Y-118461948D01*
X127745619Y-118848206D01*
X128131877Y-119106296D01*
X128587500Y-119196925D01*
X129043123Y-119106296D01*
X129429381Y-118848206D01*
X129687471Y-118461948D01*
X129778100Y-118006325D01*
X129778100Y-117959675D01*
X129936900Y-117959675D01*
X129936900Y-118006325D01*
X130027529Y-118461948D01*
X130285619Y-118848206D01*
X130671877Y-119106296D01*
X131127500Y-119196925D01*
X131583123Y-119106296D01*
X131969381Y-118848206D01*
X132227471Y-118461948D01*
X132318100Y-118006325D01*
X132318100Y-117959675D01*
X132227471Y-117504052D01*
X131969381Y-117117794D01*
X131583123Y-116859704D01*
X131127500Y-116769075D01*
X130671877Y-116859704D01*
X130285619Y-117117794D01*
X130027529Y-117504052D01*
X129936900Y-117959675D01*
X129778100Y-117959675D01*
X129687471Y-117504052D01*
X129429381Y-117117794D01*
X129043123Y-116859704D01*
X128587500Y-116769075D01*
X128131877Y-116859704D01*
X127745619Y-117117794D01*
X127487529Y-117504052D01*
X127396900Y-117959675D01*
X106311001Y-117959675D01*
X106346600Y-117780711D01*
X106346600Y-117672373D01*
X124898123Y-117672373D01*
X124945431Y-117856000D01*
X125920500Y-117856000D01*
X125920500Y-116881447D01*
X126174500Y-116881447D01*
X126174500Y-117856000D01*
X127149569Y-117856000D01*
X127196877Y-117672373D01*
X126990514Y-117256171D01*
X126640586Y-116950622D01*
X126358125Y-116833635D01*
X126174500Y-116881447D01*
X125920500Y-116881447D01*
X125736875Y-116833635D01*
X125454414Y-116950622D01*
X125104486Y-117256171D01*
X124898123Y-117672373D01*
X106346600Y-117672373D01*
X106346600Y-117423289D01*
X106255971Y-116967666D01*
X105997881Y-116581408D01*
X105611623Y-116323318D01*
X105156000Y-116232689D01*
X104700377Y-116323318D01*
X104314119Y-116581408D01*
X104056029Y-116967666D01*
X103965400Y-117423289D01*
X103806600Y-117423289D01*
X103715971Y-116967666D01*
X103457881Y-116581408D01*
X103071623Y-116323318D01*
X102616000Y-116232689D01*
X102160377Y-116323318D01*
X101774119Y-116581408D01*
X101516029Y-116967666D01*
X101425400Y-117423289D01*
X101266600Y-117423289D01*
X101175971Y-116967666D01*
X100917881Y-116581408D01*
X100531623Y-116323318D01*
X100076000Y-116232689D01*
X99620377Y-116323318D01*
X99234119Y-116581408D01*
X98976029Y-116967666D01*
X98885400Y-117423289D01*
X98726600Y-117423289D01*
X98635971Y-116967666D01*
X98377881Y-116581408D01*
X97991623Y-116323318D01*
X97536000Y-116232689D01*
X97080377Y-116323318D01*
X96694119Y-116581408D01*
X96436029Y-116967666D01*
X96345400Y-117423289D01*
X96186600Y-117423289D01*
X96095971Y-116967666D01*
X95837881Y-116581408D01*
X95451623Y-116323318D01*
X94996000Y-116232689D01*
X94540377Y-116323318D01*
X94154119Y-116581408D01*
X93896029Y-116967666D01*
X93805400Y-117423289D01*
X93616561Y-117423289D01*
X93646600Y-117393250D01*
X93646600Y-116520956D01*
X93596817Y-116400770D01*
X93504831Y-116308783D01*
X93384645Y-116259000D01*
X92664750Y-116259000D01*
X92583000Y-116340750D01*
X92329000Y-116340750D01*
X92247250Y-116259000D01*
X91527355Y-116259000D01*
X91407169Y-116308783D01*
X91315183Y-116400770D01*
X91265400Y-116520956D01*
X90402000Y-116520956D01*
X90402000Y-115328000D01*
X108898594Y-115328000D01*
X108898594Y-116828000D01*
X108921395Y-116949179D01*
X108993012Y-117060474D01*
X109102286Y-117135138D01*
X109232000Y-117161406D01*
X110732000Y-117161406D01*
X110853179Y-117138605D01*
X110964474Y-117066988D01*
X111039138Y-116957714D01*
X111054705Y-116880838D01*
X111858767Y-116880838D01*
X111943629Y-117035068D01*
X112350864Y-117168241D01*
X112778063Y-117135435D01*
X113020371Y-117035068D01*
X113105233Y-116880838D01*
X112482000Y-116257605D01*
X111858767Y-116880838D01*
X111054705Y-116880838D01*
X111065406Y-116828000D01*
X111065406Y-115946864D01*
X111391759Y-115946864D01*
X111424565Y-116374063D01*
X111524932Y-116616371D01*
X111679162Y-116701233D01*
X112302395Y-116078000D01*
X112661605Y-116078000D01*
X113284838Y-116701233D01*
X113439068Y-116616371D01*
X113572241Y-116209136D01*
X113539435Y-115781937D01*
X113439068Y-115539629D01*
X113284838Y-115454767D01*
X112661605Y-116078000D01*
X112302395Y-116078000D01*
X111679162Y-115454767D01*
X111524932Y-115539629D01*
X111391759Y-115946864D01*
X111065406Y-115946864D01*
X111065406Y-115328000D01*
X111055465Y-115275162D01*
X111858767Y-115275162D01*
X112482000Y-115898395D01*
X113052395Y-115328000D01*
X117534594Y-115328000D01*
X117534594Y-116828000D01*
X117557395Y-116949179D01*
X117629012Y-117060474D01*
X117738286Y-117135138D01*
X117868000Y-117161406D01*
X119368000Y-117161406D01*
X119489179Y-117138605D01*
X119600474Y-117066988D01*
X119675138Y-116957714D01*
X119690705Y-116880838D01*
X120494767Y-116880838D01*
X120579629Y-117035068D01*
X120986864Y-117168241D01*
X121414063Y-117135435D01*
X121656371Y-117035068D01*
X121741233Y-116880838D01*
X121118000Y-116257605D01*
X120494767Y-116880838D01*
X119690705Y-116880838D01*
X119701406Y-116828000D01*
X119701406Y-115946864D01*
X120027759Y-115946864D01*
X120060565Y-116374063D01*
X120160932Y-116616371D01*
X120315162Y-116701233D01*
X120938395Y-116078000D01*
X121297605Y-116078000D01*
X121920838Y-116701233D01*
X122075068Y-116616371D01*
X122208241Y-116209136D01*
X122175435Y-115781937D01*
X122075068Y-115539629D01*
X121920838Y-115454767D01*
X121297605Y-116078000D01*
X120938395Y-116078000D01*
X120315162Y-115454767D01*
X120160932Y-115539629D01*
X120027759Y-115946864D01*
X119701406Y-115946864D01*
X119701406Y-115328000D01*
X119691465Y-115275162D01*
X120494767Y-115275162D01*
X121118000Y-115898395D01*
X121596720Y-115419675D01*
X124856900Y-115419675D01*
X124856900Y-115466325D01*
X124947529Y-115921948D01*
X125205619Y-116308206D01*
X125591877Y-116566296D01*
X126047500Y-116656925D01*
X126503123Y-116566296D01*
X126889381Y-116308206D01*
X127147471Y-115921948D01*
X127238100Y-115466325D01*
X127238100Y-115419675D01*
X127396900Y-115419675D01*
X127396900Y-115466325D01*
X127487529Y-115921948D01*
X127745619Y-116308206D01*
X128131877Y-116566296D01*
X128587500Y-116656925D01*
X129043123Y-116566296D01*
X129429381Y-116308206D01*
X129687471Y-115921948D01*
X129778100Y-115466325D01*
X129778100Y-115419675D01*
X129687471Y-114964052D01*
X129430455Y-114579400D01*
X129930494Y-114579400D01*
X129930494Y-116306600D01*
X129953295Y-116427779D01*
X130024912Y-116539074D01*
X130134186Y-116613738D01*
X130263900Y-116640006D01*
X131991100Y-116640006D01*
X132112279Y-116617205D01*
X132223574Y-116545588D01*
X132298238Y-116436314D01*
X132324506Y-116306600D01*
X132324506Y-114579400D01*
X132301705Y-114458221D01*
X132230088Y-114346926D01*
X132120814Y-114272262D01*
X131991100Y-114245994D01*
X130263900Y-114245994D01*
X130142721Y-114268795D01*
X130031426Y-114340412D01*
X129956762Y-114449686D01*
X129930494Y-114579400D01*
X129430455Y-114579400D01*
X129429381Y-114577794D01*
X129043123Y-114319704D01*
X128587500Y-114229075D01*
X128131877Y-114319704D01*
X127745619Y-114577794D01*
X127487529Y-114964052D01*
X127396900Y-115419675D01*
X127238100Y-115419675D01*
X127147471Y-114964052D01*
X126889381Y-114577794D01*
X126503123Y-114319704D01*
X126047500Y-114229075D01*
X125591877Y-114319704D01*
X125205619Y-114577794D01*
X124947529Y-114964052D01*
X124856900Y-115419675D01*
X121596720Y-115419675D01*
X121741233Y-115275162D01*
X121656371Y-115120932D01*
X121249136Y-114987759D01*
X120821937Y-115020565D01*
X120579629Y-115120932D01*
X120494767Y-115275162D01*
X119691465Y-115275162D01*
X119678605Y-115206821D01*
X119606988Y-115095526D01*
X119497714Y-115020862D01*
X119368000Y-114994594D01*
X117868000Y-114994594D01*
X117746821Y-115017395D01*
X117635526Y-115089012D01*
X117560862Y-115198286D01*
X117534594Y-115328000D01*
X113052395Y-115328000D01*
X113105233Y-115275162D01*
X113020371Y-115120932D01*
X112613136Y-114987759D01*
X112185937Y-115020565D01*
X111943629Y-115120932D01*
X111858767Y-115275162D01*
X111055465Y-115275162D01*
X111042605Y-115206821D01*
X110970988Y-115095526D01*
X110861714Y-115020862D01*
X110732000Y-114994594D01*
X109232000Y-114994594D01*
X109110821Y-115017395D01*
X108999526Y-115089012D01*
X108924862Y-115198286D01*
X108898594Y-115328000D01*
X90402000Y-115328000D01*
X90402000Y-112455671D01*
X102433391Y-112455671D01*
X102528645Y-112686203D01*
X102704869Y-112862735D01*
X102935235Y-112958391D01*
X103184671Y-112958609D01*
X103415203Y-112863355D01*
X103591735Y-112687131D01*
X103687391Y-112456765D01*
X103687490Y-112343735D01*
X103755725Y-112275500D01*
X104485439Y-112275500D01*
X104465609Y-112323255D01*
X104465391Y-112572691D01*
X104560645Y-112803223D01*
X104736869Y-112979755D01*
X104967235Y-113075411D01*
X105216671Y-113075629D01*
X105418088Y-112992405D01*
X105417891Y-113217671D01*
X105513145Y-113448203D01*
X105689369Y-113624735D01*
X105919735Y-113720391D01*
X106169171Y-113720609D01*
X106399703Y-113625355D01*
X106404566Y-113620500D01*
X108986236Y-113620500D01*
X109187911Y-113580385D01*
X109358881Y-113466145D01*
X111031754Y-111793272D01*
X124546192Y-111793272D01*
X124553087Y-111995073D01*
X124893447Y-113445413D01*
X124922703Y-113509738D01*
X124944100Y-113577085D01*
X124964157Y-113600882D01*
X124977043Y-113629214D01*
X125028688Y-113677446D01*
X125074229Y-113731479D01*
X125101868Y-113745790D01*
X125124614Y-113767033D01*
X125190785Y-113791830D01*
X125253537Y-113824322D01*
X125284548Y-113826967D01*
X125313692Y-113837888D01*
X125384313Y-113835475D01*
X125454725Y-113841480D01*
X125484388Y-113832056D01*
X125515493Y-113830993D01*
X125579818Y-113801737D01*
X125647165Y-113780340D01*
X125670962Y-113760283D01*
X125699294Y-113747397D01*
X125702117Y-113744374D01*
X125705213Y-113745819D01*
X125725787Y-113764026D01*
X125795999Y-113788211D01*
X125863276Y-113819625D01*
X125890718Y-113820838D01*
X125916697Y-113829786D01*
X125990820Y-113825260D01*
X126064998Y-113828538D01*
X126090819Y-113819155D01*
X126118240Y-113817481D01*
X126184984Y-113784938D01*
X126254775Y-113759577D01*
X126275039Y-113741028D01*
X126299734Y-113728987D01*
X126348947Y-113673374D01*
X126403716Y-113623240D01*
X126415338Y-113598349D01*
X126433546Y-113577774D01*
X126445639Y-113542665D01*
X126448232Y-113555699D01*
X126560412Y-113723588D01*
X126728301Y-113835768D01*
X126926340Y-113875160D01*
X127124379Y-113835768D01*
X127292268Y-113723588D01*
X127363214Y-113617410D01*
X127439252Y-113731208D01*
X127449410Y-113741365D01*
X127449412Y-113741368D01*
X127591655Y-113836412D01*
X127617301Y-113853548D01*
X127815340Y-113892940D01*
X128013379Y-113853548D01*
X128181268Y-113741368D01*
X128251053Y-113636928D01*
X128328946Y-113711397D01*
X128390649Y-113750650D01*
X128447690Y-113796413D01*
X128475166Y-113804416D01*
X128499313Y-113819777D01*
X128571346Y-113832430D01*
X128641553Y-113852879D01*
X128961592Y-113880819D01*
X129060980Y-113869916D01*
X129160550Y-113859351D01*
X129511070Y-113750131D01*
X129688424Y-113653608D01*
X129744775Y-113583879D01*
X129855694Y-113675452D01*
X129872271Y-113684375D01*
X129885190Y-113698073D01*
X129960653Y-113731949D01*
X130033491Y-113771156D01*
X130052225Y-113773056D01*
X130069399Y-113780766D01*
X130379280Y-113851887D01*
X130452690Y-113854035D01*
X130525428Y-113864107D01*
X130552815Y-113856965D01*
X130581112Y-113857793D01*
X130649758Y-113831684D01*
X130720812Y-113813154D01*
X130972272Y-113691234D01*
X131006832Y-113665081D01*
X131046373Y-113647341D01*
X131086573Y-113604737D01*
X131133284Y-113569389D01*
X131155204Y-113532002D01*
X131184948Y-113500480D01*
X131385608Y-113180440D01*
X131393727Y-113159109D01*
X131407884Y-113141209D01*
X131429396Y-113065392D01*
X131457433Y-112991728D01*
X131456771Y-112968913D01*
X131463000Y-112946958D01*
X131490940Y-112598978D01*
X131483158Y-112532322D01*
X131484295Y-112465219D01*
X131395395Y-111974999D01*
X131375099Y-111923549D01*
X131364308Y-111869301D01*
X131338407Y-111830538D01*
X131321298Y-111787167D01*
X131282856Y-111747399D01*
X131252128Y-111701412D01*
X131010828Y-111460112D01*
X130944078Y-111415511D01*
X130881182Y-111365630D01*
X130860673Y-111359781D01*
X130842939Y-111347932D01*
X130764201Y-111332270D01*
X130687005Y-111310256D01*
X130438085Y-111289936D01*
X130237497Y-111313084D01*
X130150470Y-111361490D01*
X130006050Y-111413359D01*
X130414444Y-111020376D01*
X130423279Y-111007689D01*
X130435787Y-110998593D01*
X130480694Y-110925238D01*
X130529832Y-110854675D01*
X130533139Y-110839571D01*
X130541213Y-110826383D01*
X130554631Y-110741425D01*
X130573024Y-110657430D01*
X130570300Y-110642213D01*
X130572713Y-110626937D01*
X130552598Y-110543314D01*
X130537447Y-110458671D01*
X130529105Y-110445652D01*
X130525489Y-110430618D01*
X130362564Y-110077613D01*
X130680096Y-109963590D01*
X130694132Y-109955156D01*
X130710147Y-109951728D01*
X130764876Y-109914000D01*
X134806594Y-109914000D01*
X134806594Y-111414000D01*
X134829395Y-111535179D01*
X134901012Y-111646474D01*
X135010286Y-111721138D01*
X135140000Y-111747406D01*
X136640000Y-111747406D01*
X136761179Y-111724605D01*
X136872474Y-111652988D01*
X136947138Y-111543714D01*
X136973406Y-111414000D01*
X136973406Y-109914000D01*
X136950605Y-109792821D01*
X136878988Y-109681526D01*
X136769714Y-109606862D01*
X136640000Y-109580594D01*
X135140000Y-109580594D01*
X135018821Y-109603395D01*
X134907526Y-109675012D01*
X134832862Y-109784286D01*
X134806594Y-109914000D01*
X130764876Y-109914000D01*
X130780223Y-109903421D01*
X130853169Y-109859586D01*
X130862910Y-109846421D01*
X130876392Y-109837127D01*
X130922644Y-109765687D01*
X130973267Y-109697267D01*
X130977228Y-109681377D01*
X130986128Y-109667630D01*
X131001520Y-109583928D01*
X131022106Y-109501344D01*
X131019684Y-109485146D01*
X131022646Y-109469041D01*
X131012486Y-108768001D01*
X131001646Y-108717350D01*
X131000728Y-108665564D01*
X130980722Y-108619588D01*
X130970228Y-108570553D01*
X130940829Y-108527905D01*
X130920164Y-108480414D01*
X130884087Y-108445593D01*
X130855627Y-108404308D01*
X130813893Y-108377289D01*
X134812813Y-108377289D01*
X134976431Y-108773275D01*
X135279132Y-109076504D01*
X135674832Y-109240813D01*
X136103289Y-109241187D01*
X136499275Y-109077569D01*
X136802504Y-108774868D01*
X136966813Y-108379168D01*
X136967187Y-107950711D01*
X136803569Y-107554725D01*
X136500868Y-107251496D01*
X136105168Y-107087187D01*
X135676711Y-107086813D01*
X135280725Y-107250431D01*
X134977496Y-107553132D01*
X134813187Y-107948832D01*
X134812813Y-108377289D01*
X130813893Y-108377289D01*
X130812146Y-108376158D01*
X130774879Y-108340188D01*
X130728223Y-108321824D01*
X130686130Y-108294572D01*
X130635187Y-108285204D01*
X130586991Y-108266234D01*
X130334686Y-108220679D01*
X130495267Y-107871662D01*
X130497030Y-107864293D01*
X130501303Y-107858031D01*
X130520465Y-107766358D01*
X130542257Y-107675287D01*
X130541066Y-107667801D01*
X130542616Y-107660384D01*
X130525243Y-107568385D01*
X130510520Y-107475878D01*
X130506554Y-107469417D01*
X130505148Y-107461972D01*
X130453896Y-107383632D01*
X130404888Y-107303794D01*
X130398751Y-107299342D01*
X130394603Y-107293002D01*
X129876443Y-106764682D01*
X129860988Y-106754137D01*
X129849652Y-106739248D01*
X129778075Y-106697564D01*
X129709651Y-106650877D01*
X129691333Y-106647048D01*
X129675166Y-106637633D01*
X129593091Y-106626513D01*
X129512004Y-106609564D01*
X129493618Y-106613036D01*
X129475076Y-106610524D01*
X129394987Y-106631661D01*
X129313592Y-106647032D01*
X129297934Y-106657276D01*
X129279842Y-106662051D01*
X128938433Y-106828822D01*
X128808944Y-106491838D01*
X128801717Y-106480393D01*
X128798735Y-106467186D01*
X128798490Y-106466838D01*
X135266767Y-106466838D01*
X135351629Y-106621068D01*
X135758864Y-106754241D01*
X136186063Y-106721435D01*
X136428371Y-106621068D01*
X136513233Y-106466838D01*
X135890000Y-105843605D01*
X135266767Y-106466838D01*
X128798490Y-106466838D01*
X128748050Y-106395400D01*
X128701139Y-106321107D01*
X128690081Y-106313298D01*
X128682273Y-106302239D01*
X128607980Y-106255316D01*
X128536204Y-106204627D01*
X128523000Y-106201644D01*
X128511554Y-106194415D01*
X128424962Y-106179496D01*
X128339249Y-106160132D01*
X128325907Y-106162429D01*
X128312567Y-106160131D01*
X127621686Y-106177911D01*
X127605768Y-106181505D01*
X127589547Y-106179740D01*
X127507808Y-106203625D01*
X127424726Y-106222385D01*
X127411394Y-106231798D01*
X127395734Y-106236374D01*
X127329356Y-106289721D01*
X127259779Y-106338847D01*
X127251065Y-106352644D01*
X127238346Y-106362866D01*
X127197434Y-106437560D01*
X127151955Y-106509567D01*
X127149184Y-106525649D01*
X127141346Y-106539959D01*
X127042612Y-106853846D01*
X127013176Y-106866416D01*
X126710003Y-106713343D01*
X126680752Y-106705209D01*
X126654828Y-106689400D01*
X126584268Y-106678381D01*
X126515465Y-106659249D01*
X126485325Y-106662929D01*
X126455328Y-106658244D01*
X126385927Y-106675064D01*
X126315035Y-106683719D01*
X126288598Y-106698653D01*
X126259090Y-106705804D01*
X126201406Y-106747905D01*
X126139226Y-106783028D01*
X126120517Y-106806941D01*
X126095991Y-106824841D01*
X125626091Y-107335381D01*
X125614346Y-107354640D01*
X125597338Y-107369457D01*
X125562132Y-107440258D01*
X125520960Y-107507772D01*
X125517479Y-107530060D01*
X125507436Y-107550258D01*
X125502004Y-107629150D01*
X125489804Y-107707272D01*
X125495117Y-107729192D01*
X125493567Y-107751699D01*
X125518739Y-107826663D01*
X125537364Y-107903510D01*
X125550663Y-107921732D01*
X125557843Y-107943114D01*
X125709407Y-108207637D01*
X125679507Y-108292796D01*
X125391128Y-108364891D01*
X125356339Y-108381326D01*
X125318601Y-108388832D01*
X125265881Y-108424058D01*
X125208556Y-108451139D01*
X125182705Y-108479635D01*
X125150712Y-108501012D01*
X125115487Y-108553729D01*
X125072887Y-108600688D01*
X125059908Y-108636909D01*
X125038532Y-108668901D01*
X125026163Y-108731086D01*
X125004776Y-108790772D01*
X125006646Y-108829203D01*
X124999140Y-108866940D01*
X124999140Y-109547660D01*
X125003917Y-109571677D01*
X125001406Y-109596035D01*
X125023474Y-109669995D01*
X125038532Y-109745699D01*
X125052137Y-109766060D01*
X125059138Y-109789524D01*
X125107830Y-109849411D01*
X125150712Y-109913588D01*
X125171072Y-109927192D01*
X125186520Y-109946192D01*
X125254423Y-109982886D01*
X125318601Y-110025768D01*
X125342620Y-110030546D01*
X125364161Y-110042186D01*
X125738964Y-110157750D01*
X125741285Y-110163474D01*
X125588567Y-110423507D01*
X125578291Y-110453055D01*
X125560430Y-110478746D01*
X125545400Y-110547633D01*
X125522243Y-110614222D01*
X125524057Y-110645456D01*
X125517388Y-110676024D01*
X125529864Y-110745419D01*
X125533952Y-110815801D01*
X125547580Y-110843961D01*
X125553116Y-110874756D01*
X125591197Y-110934092D01*
X125621909Y-110997554D01*
X125645278Y-111018357D01*
X125662177Y-111044688D01*
X126041413Y-111438195D01*
X125930044Y-111540139D01*
X125844615Y-111723095D01*
X125836320Y-111756919D01*
X125812959Y-111754926D01*
X125776983Y-111742534D01*
X125713270Y-111746424D01*
X125649675Y-111741000D01*
X125613414Y-111752521D01*
X125575440Y-111754839D01*
X125561432Y-111761669D01*
X125560713Y-111758607D01*
X125477117Y-111574806D01*
X125329546Y-111436987D01*
X125140468Y-111366132D01*
X124938667Y-111373027D01*
X124754866Y-111456623D01*
X124617047Y-111604194D01*
X124546192Y-111793272D01*
X111031754Y-111793272D01*
X112713624Y-110111403D01*
X112841235Y-110164391D01*
X113090671Y-110164609D01*
X113321203Y-110069355D01*
X113326066Y-110064500D01*
X120649999Y-110064500D01*
X120851674Y-110024385D01*
X120924215Y-109975914D01*
X120962831Y-109975948D01*
X121193363Y-109880694D01*
X121369895Y-109704470D01*
X121465551Y-109474104D01*
X121465769Y-109224668D01*
X121370515Y-108994136D01*
X121194291Y-108817604D01*
X120963925Y-108721948D01*
X120714489Y-108721730D01*
X120483957Y-108816984D01*
X120307425Y-108993208D01*
X120300245Y-109010500D01*
X113493500Y-109010500D01*
X113493500Y-105998355D01*
X113499869Y-106004735D01*
X113730235Y-106100391D01*
X113843266Y-106100490D01*
X114150619Y-106407843D01*
X114150619Y-107373391D01*
X114071384Y-107452488D01*
X113975728Y-107682854D01*
X113975510Y-107932290D01*
X114070764Y-108162822D01*
X114246988Y-108339354D01*
X114477354Y-108435010D01*
X114726790Y-108435228D01*
X114957322Y-108339974D01*
X115133854Y-108163750D01*
X115229510Y-107933384D01*
X115229728Y-107683948D01*
X115134474Y-107453416D01*
X115054619Y-107373421D01*
X115054619Y-106220619D01*
X115020213Y-106047646D01*
X114922231Y-105901007D01*
X114482511Y-105461287D01*
X114482609Y-105349329D01*
X114387355Y-105118797D01*
X114211131Y-104942265D01*
X113980765Y-104846609D01*
X113731329Y-104846391D01*
X113500797Y-104941645D01*
X113493500Y-104948929D01*
X113493500Y-100880359D01*
X113497735Y-100876131D01*
X113593391Y-100645765D01*
X113593609Y-100396329D01*
X113498355Y-100165797D01*
X113322131Y-99989265D01*
X113091765Y-99893609D01*
X112842329Y-99893391D01*
X112765999Y-99924930D01*
X112765999Y-97464547D01*
X112836671Y-97464609D01*
X113067203Y-97369355D01*
X113243735Y-97193131D01*
X113339391Y-96962765D01*
X113339609Y-96713329D01*
X113244355Y-96482797D01*
X113068131Y-96306265D01*
X112837765Y-96210609D01*
X112588329Y-96210391D01*
X112357797Y-96305645D01*
X112181265Y-96481869D01*
X112085609Y-96712235D01*
X112085510Y-96825266D01*
X111994387Y-96916389D01*
X111896405Y-97063028D01*
X111861999Y-97236001D01*
X111861999Y-104603890D01*
X111659297Y-104687645D01*
X111482765Y-104863869D01*
X111387109Y-105094235D01*
X111386891Y-105343671D01*
X111482145Y-105574203D01*
X111658369Y-105750735D01*
X111888735Y-105846391D01*
X112138171Y-105846609D01*
X112368703Y-105751355D01*
X112439500Y-105680682D01*
X112439500Y-109030935D01*
X112340562Y-109050615D01*
X112326039Y-109060319D01*
X112169590Y-109164855D01*
X111259500Y-110074945D01*
X111259500Y-109400728D01*
X111338735Y-109321631D01*
X111434391Y-109091265D01*
X111434609Y-108841829D01*
X111339355Y-108611297D01*
X111163131Y-108434765D01*
X110932765Y-108339109D01*
X110683329Y-108338891D01*
X110452797Y-108434145D01*
X110410788Y-108476080D01*
X110363145Y-108428354D01*
X110132779Y-108332698D01*
X109883343Y-108332480D01*
X109652811Y-108427734D01*
X109572816Y-108507589D01*
X109543911Y-108507589D01*
X109370938Y-108541995D01*
X109224299Y-108639976D01*
X107366287Y-110497989D01*
X107254329Y-110497891D01*
X107023797Y-110593145D01*
X106847265Y-110769369D01*
X106751609Y-110999735D01*
X106751391Y-111249171D01*
X106801936Y-111371500D01*
X103568500Y-111371500D01*
X103424224Y-111400198D01*
X103395526Y-111405906D01*
X103248887Y-111503888D01*
X103048287Y-111704489D01*
X102936329Y-111704391D01*
X102705797Y-111799645D01*
X102529265Y-111975869D01*
X102433609Y-112206235D01*
X102433391Y-112455671D01*
X90402000Y-112455671D01*
X90402000Y-111506838D01*
X93356767Y-111506838D01*
X93441629Y-111661068D01*
X93848864Y-111794241D01*
X94276063Y-111761435D01*
X94518371Y-111661068D01*
X94603233Y-111506838D01*
X93980000Y-110883605D01*
X93356767Y-111506838D01*
X90402000Y-111506838D01*
X90402000Y-110572864D01*
X92889759Y-110572864D01*
X92922565Y-111000063D01*
X93022932Y-111242371D01*
X93177162Y-111327233D01*
X93800395Y-110704000D01*
X94159605Y-110704000D01*
X94782838Y-111327233D01*
X94937068Y-111242371D01*
X95070241Y-110835136D01*
X95037435Y-110407937D01*
X94937068Y-110165629D01*
X94782838Y-110080767D01*
X94159605Y-110704000D01*
X93800395Y-110704000D01*
X93177162Y-110080767D01*
X93022932Y-110165629D01*
X92889759Y-110572864D01*
X90402000Y-110572864D01*
X90402000Y-109901162D01*
X93356767Y-109901162D01*
X93980000Y-110524395D01*
X94603233Y-109901162D01*
X94518371Y-109746932D01*
X94111136Y-109613759D01*
X93683937Y-109646565D01*
X93441629Y-109746932D01*
X93356767Y-109901162D01*
X90402000Y-109901162D01*
X90402000Y-107454000D01*
X92896594Y-107454000D01*
X92896594Y-108954000D01*
X92919395Y-109075179D01*
X92991012Y-109186474D01*
X93100286Y-109261138D01*
X93230000Y-109287406D01*
X94730000Y-109287406D01*
X94851179Y-109264605D01*
X94962474Y-109192988D01*
X95037138Y-109083714D01*
X95063406Y-108954000D01*
X95063406Y-108656000D01*
X96592957Y-108656000D01*
X96592911Y-108709171D01*
X96688165Y-108939703D01*
X96864389Y-109116235D01*
X97094755Y-109211891D01*
X97344191Y-109212109D01*
X97574723Y-109116855D01*
X97751255Y-108940631D01*
X97846911Y-108710265D01*
X97847129Y-108460829D01*
X97751875Y-108230297D01*
X97575651Y-108053765D01*
X97345285Y-107958109D01*
X97232254Y-107958010D01*
X97158632Y-107884388D01*
X97011993Y-107786406D01*
X96839020Y-107752000D01*
X95063406Y-107752000D01*
X95063406Y-107454000D01*
X95040605Y-107332821D01*
X94968988Y-107221526D01*
X94859714Y-107146862D01*
X94730000Y-107120594D01*
X93230000Y-107120594D01*
X93108821Y-107143395D01*
X92997526Y-107215012D01*
X92922862Y-107324286D01*
X92896594Y-107454000D01*
X90402000Y-107454000D01*
X90402000Y-102870838D01*
X93356767Y-102870838D01*
X93441629Y-103025068D01*
X93848864Y-103158241D01*
X94276063Y-103125435D01*
X94518371Y-103025068D01*
X94603233Y-102870838D01*
X93980000Y-102247605D01*
X93356767Y-102870838D01*
X90402000Y-102870838D01*
X90402000Y-101936864D01*
X92889759Y-101936864D01*
X92922565Y-102364063D01*
X93022932Y-102606371D01*
X93177162Y-102691233D01*
X93800395Y-102068000D01*
X94159605Y-102068000D01*
X94782838Y-102691233D01*
X94937068Y-102606371D01*
X95070241Y-102199136D01*
X95037435Y-101771937D01*
X94937068Y-101529629D01*
X94782838Y-101444767D01*
X94159605Y-102068000D01*
X93800395Y-102068000D01*
X93177162Y-101444767D01*
X93022932Y-101529629D01*
X92889759Y-101936864D01*
X90402000Y-101936864D01*
X90402000Y-101265162D01*
X93356767Y-101265162D01*
X93980000Y-101888395D01*
X94603233Y-101265162D01*
X94518371Y-101110932D01*
X94111136Y-100977759D01*
X93683937Y-101010565D01*
X93441629Y-101110932D01*
X93356767Y-101265162D01*
X90402000Y-101265162D01*
X90402000Y-98818000D01*
X92896594Y-98818000D01*
X92896594Y-100318000D01*
X92919395Y-100439179D01*
X92991012Y-100550474D01*
X93100286Y-100625138D01*
X93230000Y-100651406D01*
X94730000Y-100651406D01*
X94851179Y-100628605D01*
X94962474Y-100556988D01*
X95037138Y-100447714D01*
X95063406Y-100318000D01*
X95063406Y-100020630D01*
X98178989Y-103136214D01*
X98178891Y-103248171D01*
X98274145Y-103478703D01*
X98450369Y-103655235D01*
X98680735Y-103750891D01*
X98930171Y-103751109D01*
X99160703Y-103655855D01*
X99337235Y-103479631D01*
X99432891Y-103249265D01*
X99433109Y-102999829D01*
X99337855Y-102769297D01*
X99161631Y-102592765D01*
X98931265Y-102497109D01*
X98818235Y-102497010D01*
X97219896Y-100898671D01*
X100274391Y-100898671D01*
X100369645Y-101129203D01*
X100545869Y-101305735D01*
X100776235Y-101401391D01*
X101025671Y-101401609D01*
X101256203Y-101306355D01*
X101261066Y-101301500D01*
X107970236Y-101301500D01*
X108171911Y-101261385D01*
X108328829Y-101156534D01*
X108459735Y-101210891D01*
X108709171Y-101211109D01*
X108939703Y-101115855D01*
X109116235Y-100939631D01*
X109211891Y-100709265D01*
X109212109Y-100459829D01*
X109116855Y-100229297D01*
X108940631Y-100052765D01*
X108710265Y-99957109D01*
X108460829Y-99956891D01*
X108230297Y-100052145D01*
X108225434Y-100057000D01*
X108160736Y-100057000D01*
X107959062Y-100097115D01*
X107788091Y-100211355D01*
X107751946Y-100247500D01*
X101261359Y-100247500D01*
X101257131Y-100243265D01*
X101026765Y-100147609D01*
X100777329Y-100147391D01*
X100546797Y-100242645D01*
X100370265Y-100418869D01*
X100274609Y-100649235D01*
X100274391Y-100898671D01*
X97219896Y-100898671D01*
X95569612Y-99248388D01*
X95422973Y-99150406D01*
X95250000Y-99116000D01*
X95063406Y-99116000D01*
X95063406Y-98818000D01*
X95040605Y-98696821D01*
X94968988Y-98585526D01*
X94859714Y-98510862D01*
X94730000Y-98484594D01*
X93230000Y-98484594D01*
X93108821Y-98507395D01*
X92997526Y-98579012D01*
X92922862Y-98688286D01*
X92896594Y-98818000D01*
X90402000Y-98818000D01*
X90402000Y-93088171D01*
X114180891Y-93088171D01*
X114276145Y-93318703D01*
X114356000Y-93398698D01*
X114356000Y-102191736D01*
X114390406Y-102364709D01*
X114488388Y-102511348D01*
X117630718Y-105653678D01*
X117546609Y-105856235D01*
X117546391Y-106105671D01*
X117641645Y-106336203D01*
X117817869Y-106512735D01*
X118048235Y-106608391D01*
X118297671Y-106608609D01*
X118528203Y-106513355D01*
X118704735Y-106337131D01*
X118800391Y-106106765D01*
X118800609Y-105857329D01*
X118705355Y-105626797D01*
X118622908Y-105544206D01*
X118620652Y-105532864D01*
X134799759Y-105532864D01*
X134832565Y-105960063D01*
X134932932Y-106202371D01*
X135087162Y-106287233D01*
X135710395Y-105664000D01*
X136069605Y-105664000D01*
X136692838Y-106287233D01*
X136847068Y-106202371D01*
X136980241Y-105795136D01*
X136947435Y-105367937D01*
X136847068Y-105125629D01*
X136692838Y-105040767D01*
X136069605Y-105664000D01*
X135710395Y-105664000D01*
X135087162Y-105040767D01*
X134932932Y-105125629D01*
X134799759Y-105532864D01*
X118620652Y-105532864D01*
X118591094Y-105384263D01*
X118493112Y-105237624D01*
X118116650Y-104861162D01*
X135266767Y-104861162D01*
X135890000Y-105484395D01*
X136513233Y-104861162D01*
X136428371Y-104706932D01*
X136021136Y-104573759D01*
X135593937Y-104606565D01*
X135351629Y-104706932D01*
X135266767Y-104861162D01*
X118116650Y-104861162D01*
X115260000Y-102004512D01*
X115260000Y-99783900D01*
X127047594Y-99783900D01*
X127047594Y-101511100D01*
X127070395Y-101632279D01*
X127142012Y-101743574D01*
X127251286Y-101818238D01*
X127381000Y-101844506D01*
X129413000Y-101844506D01*
X129534179Y-101821705D01*
X129645474Y-101750088D01*
X129720138Y-101640814D01*
X129746406Y-101511100D01*
X129746406Y-99783900D01*
X129723605Y-99662721D01*
X129651988Y-99551426D01*
X129542714Y-99476762D01*
X129413000Y-99450494D01*
X127381000Y-99450494D01*
X127259821Y-99473295D01*
X127148526Y-99544912D01*
X127073862Y-99654186D01*
X127047594Y-99783900D01*
X115260000Y-99783900D01*
X115260000Y-98418125D01*
X127095235Y-98418125D01*
X127295220Y-98828661D01*
X127643464Y-99137078D01*
X128083225Y-99288751D01*
X128270000Y-99217702D01*
X128270000Y-98234500D01*
X128524000Y-98234500D01*
X128524000Y-99217702D01*
X128710775Y-99288751D01*
X129150536Y-99137078D01*
X129314348Y-98992000D01*
X134806594Y-98992000D01*
X134806594Y-100492000D01*
X134829395Y-100613179D01*
X134901012Y-100724474D01*
X135010286Y-100799138D01*
X135140000Y-100825406D01*
X136640000Y-100825406D01*
X136761179Y-100802605D01*
X136872474Y-100730988D01*
X136947138Y-100621714D01*
X136973406Y-100492000D01*
X136973406Y-98992000D01*
X136950605Y-98870821D01*
X136878988Y-98759526D01*
X136769714Y-98684862D01*
X136640000Y-98658594D01*
X135140000Y-98658594D01*
X135018821Y-98681395D01*
X134907526Y-98753012D01*
X134832862Y-98862286D01*
X134806594Y-98992000D01*
X129314348Y-98992000D01*
X129498780Y-98828661D01*
X129698765Y-98418125D01*
X129650953Y-98234500D01*
X128524000Y-98234500D01*
X128270000Y-98234500D01*
X127143047Y-98234500D01*
X127095235Y-98418125D01*
X115260000Y-98418125D01*
X115260000Y-97787173D01*
X116720891Y-97787173D01*
X116816145Y-98017705D01*
X116992369Y-98194237D01*
X117222735Y-98289893D01*
X117472171Y-98290111D01*
X117702703Y-98194857D01*
X117782698Y-98115002D01*
X126149098Y-98115002D01*
X126322071Y-98080596D01*
X126468710Y-97982614D01*
X126654449Y-97796875D01*
X127095235Y-97796875D01*
X127143047Y-97980500D01*
X128270000Y-97980500D01*
X128270000Y-96997298D01*
X128524000Y-96997298D01*
X128524000Y-97980500D01*
X129650953Y-97980500D01*
X129698765Y-97796875D01*
X129532368Y-97455289D01*
X134812813Y-97455289D01*
X134976431Y-97851275D01*
X135279132Y-98154504D01*
X135674832Y-98318813D01*
X136103289Y-98319187D01*
X136499275Y-98155569D01*
X136802504Y-97852868D01*
X136966813Y-97457168D01*
X136967187Y-97028711D01*
X136803569Y-96632725D01*
X136500868Y-96329496D01*
X136105168Y-96165187D01*
X135676711Y-96164813D01*
X135280725Y-96328431D01*
X134977496Y-96631132D01*
X134813187Y-97026832D01*
X134812813Y-97455289D01*
X129532368Y-97455289D01*
X129498780Y-97386339D01*
X129150536Y-97077922D01*
X128710775Y-96926249D01*
X128524000Y-96997298D01*
X128270000Y-96997298D01*
X128083225Y-96926249D01*
X127643464Y-97077922D01*
X127295220Y-97386339D01*
X127095235Y-97796875D01*
X126654449Y-97796875D01*
X127780338Y-96670986D01*
X128218289Y-96758100D01*
X128575711Y-96758100D01*
X129031334Y-96667471D01*
X129417592Y-96409381D01*
X129675682Y-96023123D01*
X129766311Y-95567500D01*
X129761804Y-95544838D01*
X135266767Y-95544838D01*
X135351629Y-95699068D01*
X135758864Y-95832241D01*
X136186063Y-95799435D01*
X136428371Y-95699068D01*
X136513233Y-95544838D01*
X135890000Y-94921605D01*
X135266767Y-95544838D01*
X129761804Y-95544838D01*
X129675682Y-95111877D01*
X129417592Y-94725619D01*
X129245850Y-94610864D01*
X134799759Y-94610864D01*
X134832565Y-95038063D01*
X134932932Y-95280371D01*
X135087162Y-95365233D01*
X135710395Y-94742000D01*
X136069605Y-94742000D01*
X136692838Y-95365233D01*
X136847068Y-95280371D01*
X136980241Y-94873136D01*
X136947435Y-94445937D01*
X136847068Y-94203629D01*
X136692838Y-94118767D01*
X136069605Y-94742000D01*
X135710395Y-94742000D01*
X135087162Y-94118767D01*
X134932932Y-94203629D01*
X134799759Y-94610864D01*
X129245850Y-94610864D01*
X129031334Y-94467529D01*
X128575711Y-94376900D01*
X128218289Y-94376900D01*
X127762666Y-94467529D01*
X127376408Y-94725619D01*
X127118318Y-95111877D01*
X127027689Y-95567500D01*
X127118318Y-96023123D01*
X127130909Y-96041967D01*
X125961874Y-97211002D01*
X124700322Y-97211002D01*
X127780338Y-94130986D01*
X128218289Y-94218100D01*
X128575711Y-94218100D01*
X129031334Y-94127471D01*
X129313157Y-93939162D01*
X135266767Y-93939162D01*
X135890000Y-94562395D01*
X136513233Y-93939162D01*
X136428371Y-93784932D01*
X136021136Y-93651759D01*
X135593937Y-93684565D01*
X135351629Y-93784932D01*
X135266767Y-93939162D01*
X129313157Y-93939162D01*
X129417592Y-93869381D01*
X129675682Y-93483123D01*
X129766311Y-93027500D01*
X129675682Y-92571877D01*
X129417592Y-92185619D01*
X129031334Y-91927529D01*
X128575711Y-91836900D01*
X128218289Y-91836900D01*
X127762666Y-91927529D01*
X127376408Y-92185619D01*
X127118318Y-92571877D01*
X127027689Y-93027500D01*
X127118318Y-93483123D01*
X127130909Y-93501967D01*
X123883877Y-96748999D01*
X118343224Y-96748999D01*
X118127411Y-96533187D01*
X118127509Y-96421229D01*
X118032255Y-96190697D01*
X117856031Y-96014165D01*
X117625665Y-95918509D01*
X117376229Y-95918291D01*
X117145697Y-96013545D01*
X116969165Y-96189769D01*
X116873509Y-96420135D01*
X116873291Y-96669571D01*
X116968545Y-96900103D01*
X117139062Y-97070918D01*
X116993297Y-97131147D01*
X116816765Y-97307371D01*
X116721109Y-97537737D01*
X116720891Y-97787173D01*
X115260000Y-97787173D01*
X115260000Y-93630961D01*
X115293651Y-93664612D01*
X115440291Y-93762594D01*
X115613264Y-93797000D01*
X119580272Y-93797000D01*
X119659369Y-93876235D01*
X119889735Y-93971891D01*
X120139171Y-93972109D01*
X120369703Y-93876855D01*
X120546235Y-93700631D01*
X120641891Y-93470265D01*
X120642109Y-93220829D01*
X120546855Y-92990297D01*
X120370631Y-92813765D01*
X120140265Y-92718109D01*
X119890829Y-92717891D01*
X119660297Y-92813145D01*
X119580302Y-92893000D01*
X115800489Y-92893000D01*
X115551876Y-92644388D01*
X115405237Y-92546406D01*
X115245320Y-92514597D01*
X115163631Y-92432765D01*
X114933265Y-92337109D01*
X114683829Y-92336891D01*
X114453297Y-92432145D01*
X114276765Y-92608369D01*
X114181109Y-92838735D01*
X114180891Y-93088171D01*
X90402000Y-93088171D01*
X90402000Y-91310171D01*
X124277391Y-91310171D01*
X124372645Y-91540703D01*
X124377500Y-91545566D01*
X124377500Y-94001141D01*
X124373265Y-94005369D01*
X124277609Y-94235735D01*
X124277391Y-94485171D01*
X124372645Y-94715703D01*
X124548869Y-94892235D01*
X124779235Y-94987891D01*
X125028671Y-94988109D01*
X125259203Y-94892855D01*
X125435735Y-94716631D01*
X125531391Y-94486265D01*
X125531609Y-94236829D01*
X125436355Y-94006297D01*
X125431500Y-94001434D01*
X125431500Y-91545859D01*
X125435735Y-91541631D01*
X125531391Y-91311265D01*
X125531609Y-91061829D01*
X125436355Y-90831297D01*
X125260131Y-90654765D01*
X125029765Y-90559109D01*
X124780329Y-90558891D01*
X124549797Y-90654145D01*
X124373265Y-90830369D01*
X124277609Y-91060735D01*
X124277391Y-91310171D01*
X90402000Y-91310171D01*
X90402000Y-88582500D01*
X90979594Y-88582500D01*
X90979594Y-90614500D01*
X91002395Y-90735679D01*
X91074012Y-90846974D01*
X91183286Y-90921638D01*
X91313000Y-90947906D01*
X93345000Y-90947906D01*
X93466179Y-90925105D01*
X93577474Y-90853488D01*
X93652138Y-90744214D01*
X93678406Y-90614500D01*
X93678406Y-88582500D01*
X93655605Y-88461321D01*
X93583988Y-88350026D01*
X93474714Y-88275362D01*
X93345000Y-88249094D01*
X92892540Y-88249094D01*
X93135862Y-88132116D01*
X93191446Y-88070000D01*
X134806594Y-88070000D01*
X134806594Y-89570000D01*
X134829395Y-89691179D01*
X134901012Y-89802474D01*
X135010286Y-89877138D01*
X135140000Y-89903406D01*
X136640000Y-89903406D01*
X136761179Y-89880605D01*
X136872474Y-89808988D01*
X136947138Y-89699714D01*
X136973406Y-89570000D01*
X136973406Y-88070000D01*
X136950605Y-87948821D01*
X136878988Y-87837526D01*
X136769714Y-87762862D01*
X136640000Y-87736594D01*
X135140000Y-87736594D01*
X135018821Y-87759395D01*
X134907526Y-87831012D01*
X134832862Y-87940286D01*
X134806594Y-88070000D01*
X93191446Y-88070000D01*
X93485298Y-87741619D01*
X93629654Y-87393086D01*
X93583840Y-87185500D01*
X92456000Y-87185500D01*
X92456000Y-87205500D01*
X92202000Y-87205500D01*
X92202000Y-87185500D01*
X91074160Y-87185500D01*
X91028346Y-87393086D01*
X91172702Y-87741619D01*
X91522138Y-88132116D01*
X91765460Y-88249094D01*
X91313000Y-88249094D01*
X91191821Y-88271895D01*
X91080526Y-88343512D01*
X91005862Y-88452786D01*
X90979594Y-88582500D01*
X90402000Y-88582500D01*
X90402000Y-86723914D01*
X91028346Y-86723914D01*
X91074160Y-86931500D01*
X92202000Y-86931500D01*
X92202000Y-85803258D01*
X92456000Y-85803258D01*
X92456000Y-86931500D01*
X93583840Y-86931500D01*
X93629654Y-86723914D01*
X93550701Y-86533289D01*
X134812813Y-86533289D01*
X134976431Y-86929275D01*
X135279132Y-87232504D01*
X135674832Y-87396813D01*
X136103289Y-87397187D01*
X136499275Y-87233569D01*
X136802504Y-86930868D01*
X136966813Y-86535168D01*
X136967187Y-86106711D01*
X136803569Y-85710725D01*
X136500868Y-85407496D01*
X136105168Y-85243187D01*
X135676711Y-85242813D01*
X135280725Y-85406431D01*
X134977496Y-85709132D01*
X134813187Y-86104832D01*
X134812813Y-86533289D01*
X93550701Y-86533289D01*
X93485298Y-86375381D01*
X93135862Y-85984884D01*
X92663588Y-85757836D01*
X92456000Y-85803258D01*
X92202000Y-85803258D01*
X91994412Y-85757836D01*
X91522138Y-85984884D01*
X91172702Y-86375381D01*
X91028346Y-86723914D01*
X90402000Y-86723914D01*
X90402000Y-83996701D01*
X91078762Y-83996701D01*
X91287956Y-84502989D01*
X91674974Y-84890683D01*
X92180896Y-85100760D01*
X92728701Y-85101238D01*
X93234989Y-84892044D01*
X93504665Y-84622838D01*
X135266767Y-84622838D01*
X135351629Y-84777068D01*
X135758864Y-84910241D01*
X136186063Y-84877435D01*
X136428371Y-84777068D01*
X136513233Y-84622838D01*
X135890000Y-83999605D01*
X135266767Y-84622838D01*
X93504665Y-84622838D01*
X93622683Y-84505026D01*
X93832760Y-83999104D01*
X93833238Y-83451299D01*
X93624044Y-82945011D01*
X93237026Y-82557317D01*
X92731104Y-82347240D01*
X92183299Y-82346762D01*
X91677011Y-82555956D01*
X91289317Y-82942974D01*
X91079240Y-83448896D01*
X91078762Y-83996701D01*
X90402000Y-83996701D01*
X90402000Y-81470500D01*
X105038494Y-81470500D01*
X105038494Y-83502500D01*
X105061295Y-83623679D01*
X105132912Y-83734974D01*
X105242186Y-83809638D01*
X105371900Y-83835906D01*
X107099100Y-83835906D01*
X107220279Y-83813105D01*
X107331574Y-83741488D01*
X107406238Y-83632214D01*
X107432506Y-83502500D01*
X107432506Y-82307789D01*
X107584900Y-82307789D01*
X107584900Y-82665211D01*
X107675529Y-83120834D01*
X107933619Y-83507092D01*
X108319877Y-83765182D01*
X108775500Y-83855811D01*
X109231123Y-83765182D01*
X109617381Y-83507092D01*
X109875471Y-83120834D01*
X109966100Y-82665211D01*
X109966100Y-82307789D01*
X110124900Y-82307789D01*
X110124900Y-82665211D01*
X110215529Y-83120834D01*
X110473619Y-83507092D01*
X110859877Y-83765182D01*
X111315500Y-83855811D01*
X111771123Y-83765182D01*
X112157381Y-83507092D01*
X112415471Y-83120834D01*
X112506100Y-82665211D01*
X112506100Y-82307789D01*
X112415471Y-81852166D01*
X112157381Y-81465908D01*
X111771123Y-81207818D01*
X111315500Y-81117189D01*
X110859877Y-81207818D01*
X110473619Y-81465908D01*
X110215529Y-81852166D01*
X110124900Y-82307789D01*
X109966100Y-82307789D01*
X109875471Y-81852166D01*
X109617381Y-81465908D01*
X109231123Y-81207818D01*
X108775500Y-81117189D01*
X108319877Y-81207818D01*
X107933619Y-81465908D01*
X107675529Y-81852166D01*
X107584900Y-82307789D01*
X107432506Y-82307789D01*
X107432506Y-81470500D01*
X107409705Y-81349321D01*
X107338088Y-81238026D01*
X107228814Y-81163362D01*
X107099100Y-81137094D01*
X105371900Y-81137094D01*
X105250721Y-81159895D01*
X105139426Y-81231512D01*
X105064762Y-81340786D01*
X105038494Y-81470500D01*
X90402000Y-81470500D01*
X90402000Y-79984108D01*
X94205497Y-79984108D01*
X94278006Y-80127968D01*
X94648845Y-80244361D01*
X95035997Y-80209981D01*
X95233994Y-80127968D01*
X95306503Y-79984108D01*
X94756000Y-79433605D01*
X94205497Y-79984108D01*
X90402000Y-79984108D01*
X90402000Y-79146845D01*
X93765639Y-79146845D01*
X93800019Y-79533997D01*
X93882032Y-79731994D01*
X94025892Y-79804503D01*
X94576395Y-79254000D01*
X94935605Y-79254000D01*
X95486108Y-79804503D01*
X95629968Y-79731994D01*
X95663863Y-79624000D01*
X96312594Y-79624000D01*
X96312594Y-80924000D01*
X96335395Y-81045179D01*
X96407012Y-81156474D01*
X96516286Y-81231138D01*
X96646000Y-81257406D01*
X97946000Y-81257406D01*
X98067179Y-81234605D01*
X98178474Y-81162988D01*
X98253138Y-81053714D01*
X98279406Y-80924000D01*
X98279406Y-79624000D01*
X98256605Y-79502821D01*
X98184988Y-79391526D01*
X98075714Y-79316862D01*
X97946000Y-79290594D01*
X96646000Y-79290594D01*
X96524821Y-79313395D01*
X96413526Y-79385012D01*
X96338862Y-79494286D01*
X96312594Y-79624000D01*
X95663863Y-79624000D01*
X95746361Y-79361155D01*
X95711981Y-78974003D01*
X95629968Y-78776006D01*
X95486108Y-78703497D01*
X94935605Y-79254000D01*
X94576395Y-79254000D01*
X94025892Y-78703497D01*
X93882032Y-78776006D01*
X93765639Y-79146845D01*
X90402000Y-79146845D01*
X90402000Y-78523892D01*
X94205497Y-78523892D01*
X94756000Y-79074395D01*
X95306503Y-78523892D01*
X95257912Y-78427485D01*
X96318830Y-78427485D01*
X96467256Y-78786703D01*
X96741851Y-79061778D01*
X97100810Y-79210830D01*
X97489485Y-79211170D01*
X97848703Y-79062744D01*
X98123778Y-78788149D01*
X98272830Y-78429190D01*
X98273170Y-78040515D01*
X98124744Y-77681297D01*
X97850149Y-77406222D01*
X97491190Y-77257170D01*
X97102515Y-77256830D01*
X96743297Y-77405256D01*
X96468222Y-77679851D01*
X96319170Y-78038810D01*
X96318830Y-78427485D01*
X95257912Y-78427485D01*
X95233994Y-78380032D01*
X94863155Y-78263639D01*
X94476003Y-78298019D01*
X94278006Y-78380032D01*
X94205497Y-78523892D01*
X90402000Y-78523892D01*
X90402000Y-77407485D01*
X93778830Y-77407485D01*
X93927256Y-77766703D01*
X94201851Y-78041778D01*
X94560810Y-78190830D01*
X94949485Y-78191170D01*
X95308703Y-78042744D01*
X95583778Y-77768149D01*
X95732830Y-77409190D01*
X95733170Y-77020515D01*
X95584744Y-76661297D01*
X95311410Y-76387485D01*
X96318830Y-76387485D01*
X96467256Y-76746703D01*
X96741851Y-77021778D01*
X97100810Y-77170830D01*
X97489485Y-77171170D01*
X97848703Y-77022744D01*
X98123778Y-76748149D01*
X98141623Y-76705171D01*
X112466391Y-76705171D01*
X112561645Y-76935703D01*
X112641500Y-77015698D01*
X112641500Y-83321772D01*
X112562265Y-83400869D01*
X112466609Y-83631235D01*
X112466391Y-83880671D01*
X112561645Y-84111203D01*
X112737869Y-84287735D01*
X112968235Y-84383391D01*
X113217671Y-84383609D01*
X113448203Y-84288355D01*
X113624735Y-84112131D01*
X113720391Y-83881765D01*
X113720559Y-83688864D01*
X134799759Y-83688864D01*
X134832565Y-84116063D01*
X134932932Y-84358371D01*
X135087162Y-84443233D01*
X135710395Y-83820000D01*
X136069605Y-83820000D01*
X136692838Y-84443233D01*
X136847068Y-84358371D01*
X136980241Y-83951136D01*
X136947435Y-83523937D01*
X136847068Y-83281629D01*
X136692838Y-83196767D01*
X136069605Y-83820000D01*
X135710395Y-83820000D01*
X135087162Y-83196767D01*
X134932932Y-83281629D01*
X134799759Y-83688864D01*
X113720559Y-83688864D01*
X113720609Y-83632329D01*
X113625355Y-83401797D01*
X113545500Y-83321802D01*
X113545500Y-83017162D01*
X135266767Y-83017162D01*
X135890000Y-83640395D01*
X136513233Y-83017162D01*
X136428371Y-82862932D01*
X136021136Y-82729759D01*
X135593937Y-82762565D01*
X135351629Y-82862932D01*
X135266767Y-83017162D01*
X113545500Y-83017162D01*
X113545500Y-77228000D01*
X134806594Y-77228000D01*
X134806594Y-78728000D01*
X134829395Y-78849179D01*
X134901012Y-78960474D01*
X135010286Y-79035138D01*
X135140000Y-79061406D01*
X136640000Y-79061406D01*
X136761179Y-79038605D01*
X136872474Y-78966988D01*
X136947138Y-78857714D01*
X136973406Y-78728000D01*
X136973406Y-77228000D01*
X136950605Y-77106821D01*
X136878988Y-76995526D01*
X136769714Y-76920862D01*
X136640000Y-76894594D01*
X135140000Y-76894594D01*
X135018821Y-76917395D01*
X134907526Y-76989012D01*
X134832862Y-77098286D01*
X134806594Y-77228000D01*
X113545500Y-77228000D01*
X113545500Y-77015728D01*
X113624735Y-76936631D01*
X113720391Y-76706265D01*
X113720609Y-76456829D01*
X113625355Y-76226297D01*
X113494494Y-76095207D01*
X118474398Y-76095207D01*
X118620601Y-76301400D01*
X119209308Y-76518233D01*
X119836182Y-76493271D01*
X120299399Y-76301400D01*
X120445602Y-76095207D01*
X119460000Y-75109605D01*
X118474398Y-76095207D01*
X113494494Y-76095207D01*
X113449131Y-76049765D01*
X113218765Y-75954109D01*
X112969329Y-75953891D01*
X112738797Y-76049145D01*
X112562265Y-76225369D01*
X112466609Y-76455735D01*
X112466391Y-76705171D01*
X98141623Y-76705171D01*
X98272830Y-76389190D01*
X98273170Y-76000515D01*
X98124744Y-75641297D01*
X97850149Y-75366222D01*
X97491190Y-75217170D01*
X97102515Y-75216830D01*
X96743297Y-75365256D01*
X96468222Y-75639851D01*
X96319170Y-75998810D01*
X96318830Y-76387485D01*
X95311410Y-76387485D01*
X95310149Y-76386222D01*
X94951190Y-76237170D01*
X94562515Y-76236830D01*
X94203297Y-76385256D01*
X93928222Y-76659851D01*
X93779170Y-77018810D01*
X93778830Y-77407485D01*
X90402000Y-77407485D01*
X90402000Y-75367485D01*
X93778830Y-75367485D01*
X93927256Y-75726703D01*
X94201851Y-76001778D01*
X94560810Y-76150830D01*
X94949485Y-76151170D01*
X95308703Y-76002744D01*
X95583778Y-75728149D01*
X95732830Y-75369190D01*
X95733161Y-74990671D01*
X108656391Y-74990671D01*
X108751645Y-75221203D01*
X108927869Y-75397735D01*
X109158235Y-75493391D01*
X109407671Y-75493609D01*
X109638203Y-75398355D01*
X109643066Y-75393500D01*
X111721900Y-75393500D01*
X111923575Y-75353385D01*
X112094545Y-75239145D01*
X112654382Y-74679308D01*
X117871767Y-74679308D01*
X117896729Y-75306182D01*
X118088600Y-75769399D01*
X118294793Y-75915602D01*
X119280395Y-74930000D01*
X119639605Y-74930000D01*
X120625207Y-75915602D01*
X120831400Y-75769399D01*
X121025538Y-75242308D01*
X122882727Y-75242308D01*
X123122305Y-75822132D01*
X123565535Y-76266136D01*
X124144939Y-76506725D01*
X124772308Y-76507273D01*
X125352132Y-76267695D01*
X125796136Y-75824465D01*
X126036725Y-75245061D01*
X126037273Y-74617692D01*
X125797695Y-74037868D01*
X125440451Y-73680000D01*
X127876594Y-73680000D01*
X127876594Y-76180000D01*
X127899395Y-76301179D01*
X127971012Y-76412474D01*
X128080286Y-76487138D01*
X128210000Y-76513406D01*
X130710000Y-76513406D01*
X130831179Y-76490605D01*
X130942474Y-76418988D01*
X131017138Y-76309714D01*
X131043406Y-76180000D01*
X131043406Y-75691289D01*
X134812813Y-75691289D01*
X134976431Y-76087275D01*
X135279132Y-76390504D01*
X135674832Y-76554813D01*
X136103289Y-76555187D01*
X136499275Y-76391569D01*
X136802504Y-76088868D01*
X136966813Y-75693168D01*
X136967187Y-75264711D01*
X136803569Y-74868725D01*
X136500868Y-74565496D01*
X136105168Y-74401187D01*
X135676711Y-74400813D01*
X135280725Y-74564431D01*
X134977496Y-74867132D01*
X134813187Y-75262832D01*
X134812813Y-75691289D01*
X131043406Y-75691289D01*
X131043406Y-73780838D01*
X135266767Y-73780838D01*
X135351629Y-73935068D01*
X135758864Y-74068241D01*
X136186063Y-74035435D01*
X136428371Y-73935068D01*
X136513233Y-73780838D01*
X135890000Y-73157605D01*
X135266767Y-73780838D01*
X131043406Y-73780838D01*
X131043406Y-73680000D01*
X131020605Y-73558821D01*
X130948988Y-73447526D01*
X130839714Y-73372862D01*
X130710000Y-73346594D01*
X128210000Y-73346594D01*
X128088821Y-73369395D01*
X127977526Y-73441012D01*
X127902862Y-73550286D01*
X127876594Y-73680000D01*
X125440451Y-73680000D01*
X125354465Y-73593864D01*
X124775061Y-73353275D01*
X124147692Y-73352727D01*
X123567868Y-73592305D01*
X123123864Y-74035535D01*
X122883275Y-74614939D01*
X122882727Y-75242308D01*
X121025538Y-75242308D01*
X121048233Y-75180692D01*
X121023271Y-74553818D01*
X120831400Y-74090601D01*
X120625207Y-73944398D01*
X119639605Y-74930000D01*
X119280395Y-74930000D01*
X118294793Y-73944398D01*
X118088600Y-74090601D01*
X117871767Y-74679308D01*
X112654382Y-74679308D01*
X113568897Y-73764793D01*
X118474398Y-73764793D01*
X119460000Y-74750395D01*
X120445602Y-73764793D01*
X120299399Y-73558600D01*
X119710692Y-73341767D01*
X119083818Y-73366729D01*
X118620601Y-73558600D01*
X118474398Y-73764793D01*
X113568897Y-73764793D01*
X113848284Y-73485406D01*
X115163600Y-73485406D01*
X115284779Y-73462605D01*
X115396074Y-73390988D01*
X115470738Y-73281714D01*
X115497006Y-73152000D01*
X115497006Y-72846864D01*
X134799759Y-72846864D01*
X134832565Y-73274063D01*
X134932932Y-73516371D01*
X135087162Y-73601233D01*
X135710395Y-72978000D01*
X136069605Y-72978000D01*
X136692838Y-73601233D01*
X136847068Y-73516371D01*
X136980241Y-73109136D01*
X136947435Y-72681937D01*
X136847068Y-72439629D01*
X136692838Y-72354767D01*
X136069605Y-72978000D01*
X135710395Y-72978000D01*
X135087162Y-72354767D01*
X134932932Y-72439629D01*
X134799759Y-72846864D01*
X115497006Y-72846864D01*
X115497006Y-72175162D01*
X135266767Y-72175162D01*
X135890000Y-72798395D01*
X136513233Y-72175162D01*
X136428371Y-72020932D01*
X136021136Y-71887759D01*
X135593937Y-71920565D01*
X135351629Y-72020932D01*
X135266767Y-72175162D01*
X115497006Y-72175162D01*
X115497006Y-71120000D01*
X115474205Y-70998821D01*
X115402588Y-70887526D01*
X115293314Y-70812862D01*
X115163600Y-70786594D01*
X113436400Y-70786594D01*
X113315221Y-70809395D01*
X113203926Y-70881012D01*
X113129262Y-70990286D01*
X113102994Y-71120000D01*
X113102994Y-72740116D01*
X111503610Y-74339500D01*
X109643359Y-74339500D01*
X109639131Y-74335265D01*
X109408765Y-74239609D01*
X109159329Y-74239391D01*
X108928797Y-74334645D01*
X108752265Y-74510869D01*
X108656609Y-74741235D01*
X108656391Y-74990671D01*
X95733161Y-74990671D01*
X95733170Y-74980515D01*
X95584744Y-74621297D01*
X95310149Y-74346222D01*
X94951190Y-74197170D01*
X94562515Y-74196830D01*
X94203297Y-74345256D01*
X93928222Y-74619851D01*
X93779170Y-74978810D01*
X93778830Y-75367485D01*
X90402000Y-75367485D01*
X90402000Y-70402000D01*
X92049613Y-70402000D01*
X91677011Y-70555956D01*
M02*
