G04 #@! TF.FileFunction,Copper,L1,Top,Signal*
%FSLAX46Y46*%
G04 Gerber Fmt 4.6, Leading zero omitted, Abs format (unit mm)*
G04 Created by KiCad (PCBNEW 4.0.2-stable) date 3/23/2016 2:13:11 PM*
%MOMM*%
G01*
G04 APERTURE LIST*
%ADD10C,0.100000*%
%ADD11R,1.727200X2.032000*%
%ADD12O,1.727200X2.032000*%
%ADD13R,1.250000X1.000000*%
%ADD14R,1.000000X1.250000*%
%ADD15R,0.800100X0.800100*%
%ADD16R,1.300000X0.700000*%
%ADD17R,1.600000X0.550000*%
%ADD18R,0.550000X1.600000*%
%ADD19R,1.727200X1.727200*%
%ADD20O,1.727200X1.727200*%
%ADD21C,2.500000*%
%ADD22R,2.500000X2.500000*%
%ADD23R,0.700000X1.300000*%
%ADD24R,1.550000X0.600000*%
%ADD25R,2.180000X1.600000*%
%ADD26R,1.500000X1.500000*%
%ADD27C,1.500000*%
%ADD28R,1.600000X1.000000*%
%ADD29R,1.000000X1.600000*%
%ADD30R,1.800860X2.499360*%
%ADD31R,1.651000X3.048000*%
%ADD32R,6.096000X6.096000*%
%ADD33R,1.000760X1.501140*%
%ADD34R,1.998980X2.999740*%
%ADD35R,1.198880X1.198880*%
%ADD36R,2.032000X2.032000*%
%ADD37O,2.032000X2.032000*%
%ADD38R,2.032000X1.727200*%
%ADD39O,2.032000X1.727200*%
%ADD40C,1.300000*%
%ADD41R,1.300000X1.300000*%
%ADD42R,1.100000X1.300000*%
%ADD43C,0.600000*%
%ADD44C,0.400000*%
%ADD45C,0.250000*%
G04 APERTURE END LIST*
D10*
D11*
X114300000Y-72136000D03*
D12*
X111760000Y-72136000D03*
X109220000Y-72136000D03*
X106680000Y-72136000D03*
X104140000Y-72136000D03*
D13*
X107124500Y-101552500D03*
X107124500Y-103552500D03*
X107124500Y-99488500D03*
X107124500Y-97488500D03*
D14*
X102568500Y-97726500D03*
X104568500Y-97726500D03*
X104568500Y-103822500D03*
X102568500Y-103822500D03*
D13*
X122682000Y-92313000D03*
X122682000Y-90313000D03*
X126111000Y-105664000D03*
X126111000Y-103664000D03*
X124079000Y-105664000D03*
X124079000Y-103664000D03*
X125349000Y-101965000D03*
X125349000Y-99965000D03*
D15*
X121732000Y-101965760D03*
X123632000Y-101965760D03*
X122682000Y-99966780D03*
D16*
X122047000Y-108519000D03*
X122047000Y-106619000D03*
D17*
X110812000Y-96514000D03*
X110812000Y-97314000D03*
X110812000Y-98114000D03*
X110812000Y-98914000D03*
X110812000Y-99714000D03*
X110812000Y-100514000D03*
X110812000Y-101314000D03*
X110812000Y-102114000D03*
D18*
X112262000Y-103564000D03*
X113062000Y-103564000D03*
X113862000Y-103564000D03*
X114662000Y-103564000D03*
X115462000Y-103564000D03*
X116262000Y-103564000D03*
X117062000Y-103564000D03*
X117862000Y-103564000D03*
D17*
X119312000Y-102114000D03*
X119312000Y-101314000D03*
X119312000Y-100514000D03*
X119312000Y-99714000D03*
X119312000Y-98914000D03*
X119312000Y-98114000D03*
X119312000Y-97314000D03*
X119312000Y-96514000D03*
D18*
X117862000Y-95064000D03*
X117062000Y-95064000D03*
X116262000Y-95064000D03*
X115462000Y-95064000D03*
X114662000Y-95064000D03*
X113862000Y-95064000D03*
X113062000Y-95064000D03*
X112262000Y-95064000D03*
D19*
X131127500Y-115443000D03*
D20*
X131127500Y-117983000D03*
X128587500Y-115443000D03*
X128587500Y-117983000D03*
X126047500Y-115443000D03*
X126047500Y-117983000D03*
D11*
X106235500Y-82486500D03*
D12*
X108775500Y-82486500D03*
X111315500Y-82486500D03*
D11*
X92456000Y-117602000D03*
D12*
X94996000Y-117602000D03*
X97536000Y-117602000D03*
X100076000Y-117602000D03*
X102616000Y-117602000D03*
X105156000Y-117602000D03*
D21*
X119460000Y-74930000D03*
D22*
X129460000Y-74930000D03*
D21*
X124460000Y-74930000D03*
D16*
X100076000Y-114930000D03*
X100076000Y-113030000D03*
X102108000Y-114930000D03*
X102108000Y-113030000D03*
X104140000Y-114930000D03*
X104140000Y-113030000D03*
D23*
X118303000Y-86042500D03*
X120203000Y-86042500D03*
X118303000Y-83947000D03*
X120203000Y-83947000D03*
X97919500Y-103695500D03*
X99819500Y-103695500D03*
D16*
X98044000Y-105730000D03*
X98044000Y-107630000D03*
D23*
X110104000Y-111506000D03*
X108204000Y-111506000D03*
X111826000Y-111506000D03*
X113726000Y-111506000D03*
D16*
X103378000Y-78674000D03*
X103378000Y-76774000D03*
X104162608Y-107652270D03*
X104162608Y-105752270D03*
X102130608Y-107652270D03*
X102130608Y-105752270D03*
X100098608Y-107652270D03*
X100098608Y-105752270D03*
X106194608Y-107652270D03*
X106194608Y-105752270D03*
D23*
X118303000Y-88138000D03*
X120203000Y-88138000D03*
D16*
X122047000Y-105217000D03*
X122047000Y-103317000D03*
D24*
X111412000Y-79629000D03*
X111412000Y-78359000D03*
X111412000Y-77089000D03*
X111412000Y-75819000D03*
X106012000Y-75819000D03*
X106012000Y-77089000D03*
X106012000Y-78359000D03*
X106012000Y-79629000D03*
D13*
X114808000Y-75708000D03*
X114808000Y-77708000D03*
D25*
X120108930Y-91315320D03*
X110904070Y-91310680D03*
D26*
X118618000Y-116078000D03*
D27*
X121118000Y-116078000D03*
D26*
X109982000Y-116078000D03*
D27*
X112482000Y-116078000D03*
D26*
X93980000Y-108204000D03*
D27*
X93980000Y-110704000D03*
D26*
X93980000Y-99568000D03*
D27*
X93980000Y-102068000D03*
D28*
X92773500Y-92543500D03*
X92773500Y-95543500D03*
D13*
X103060500Y-85106000D03*
X103060500Y-87106000D03*
D28*
X103060500Y-91860500D03*
X103060500Y-88860500D03*
D29*
X128881000Y-87693500D03*
X125881000Y-87693500D03*
D30*
X99060000Y-96997520D03*
X99060000Y-100995480D03*
D31*
X95948500Y-93599000D03*
D32*
X98234500Y-87249000D03*
D31*
X100520500Y-93599000D03*
D33*
X125902720Y-85280500D03*
X127403860Y-85280500D03*
X128905000Y-85280500D03*
D34*
X127403860Y-82329020D03*
D10*
G36*
X128404620Y-83803490D02*
X127904240Y-84552790D01*
X126903480Y-84552790D01*
X126403100Y-83803490D01*
X128404620Y-83803490D01*
X128404620Y-83803490D01*
G37*
D35*
X104162608Y-109275250D03*
X104162608Y-111373290D03*
X102130608Y-109275250D03*
X102130608Y-111373290D03*
X100098608Y-109275250D03*
X100098608Y-111373290D03*
X106194608Y-109275250D03*
X106194608Y-111373290D03*
D36*
X92329000Y-89598500D03*
D37*
X92329000Y-87058500D03*
D38*
X128397000Y-100647500D03*
D39*
X128397000Y-98107500D03*
X128397000Y-95567500D03*
X128397000Y-93027500D03*
D16*
X131508500Y-96901000D03*
X131508500Y-95001000D03*
X131508500Y-107691000D03*
X131508500Y-105791000D03*
D40*
X97296000Y-78234000D03*
X97296000Y-76194000D03*
D41*
X97296000Y-80274000D03*
D40*
X94756000Y-75174000D03*
X94756000Y-77214000D03*
X94756000Y-79254000D03*
D26*
X135890000Y-99742000D03*
D27*
X135890000Y-97242000D03*
X135890000Y-94742000D03*
D26*
X135890000Y-110664000D03*
D27*
X135890000Y-108164000D03*
X135890000Y-105664000D03*
D26*
X135890000Y-77978000D03*
D27*
X135890000Y-75478000D03*
X135890000Y-72978000D03*
D26*
X135890000Y-88820000D03*
D27*
X135890000Y-86320000D03*
X135890000Y-83820000D03*
D42*
X102618500Y-99624500D03*
X102618500Y-101924500D03*
X104518500Y-99624500D03*
X104518500Y-101924500D03*
D43*
X108585000Y-100584000D03*
X100901500Y-100774500D03*
X106045000Y-113093500D03*
X120838660Y-109348839D03*
X112966500Y-100520500D03*
X112966500Y-109537500D03*
X109283500Y-74866500D03*
X110896400Y-93192600D03*
X124523500Y-83629500D03*
X100965000Y-104140000D03*
X108839000Y-103251000D03*
X105791000Y-98869500D03*
X108045338Y-106553000D03*
X123761500Y-98298000D03*
X105092500Y-112448520D03*
X110807500Y-108966000D03*
X109791500Y-109855000D03*
X103060500Y-112331500D03*
X103060500Y-112331500D03*
X98806000Y-103124000D03*
X97220020Y-108585000D03*
X107378500Y-111125000D03*
X110007514Y-108959589D03*
X114602619Y-107808119D03*
X113855500Y-105473500D03*
X113093500Y-76581000D03*
X113093500Y-83756500D03*
X112712500Y-96837500D03*
X112014000Y-105219500D03*
X118173500Y-105981500D03*
X120015000Y-93345000D03*
X114808000Y-92964000D03*
X124904500Y-94361000D03*
X124904500Y-91186000D03*
X117500400Y-96545400D03*
X117348000Y-97663002D03*
D44*
X109118400Y-98914000D02*
X107711800Y-98914000D01*
X107711800Y-98914000D02*
X107705400Y-98907600D01*
X110812000Y-98914000D02*
X109118400Y-98914000D01*
X109118400Y-98914000D02*
X109118400Y-99923600D01*
X109118400Y-99923600D02*
X109708800Y-100514000D01*
X109708800Y-100514000D02*
X110812000Y-100514000D01*
X107124500Y-99488500D02*
X107705400Y-98907600D01*
X110805600Y-98907600D02*
X110812000Y-98914000D01*
X131635500Y-71437500D02*
X130911600Y-71437500D01*
X130911600Y-71437500D02*
X117348000Y-71437500D01*
X132918200Y-76098400D02*
X132918200Y-73444100D01*
X132918200Y-73444100D02*
X130911600Y-71437500D01*
X130987800Y-78028800D02*
X132918200Y-76098400D01*
X129804210Y-78028800D02*
X130987800Y-78028800D01*
X127403860Y-82329020D02*
X127403860Y-80429150D01*
X127403860Y-80429150D02*
X129804210Y-78028800D01*
X96520000Y-114662000D02*
X96520000Y-106954000D01*
X96520000Y-106954000D02*
X97744000Y-105730000D01*
X97744000Y-105730000D02*
X98044000Y-105730000D01*
X94996000Y-117602000D02*
X94996000Y-116186000D01*
X94996000Y-116186000D02*
X96520000Y-114662000D01*
X99060000Y-100995480D02*
X97919500Y-102135980D01*
X97919500Y-102135980D02*
X97919500Y-103695500D01*
X95948500Y-73596500D02*
X97296000Y-74944000D01*
X97296000Y-74944000D02*
X97296000Y-76194000D01*
X94043500Y-73596500D02*
X95948500Y-73596500D01*
X106012000Y-79629000D02*
X100203000Y-79629000D01*
X100203000Y-79629000D02*
X98171000Y-81661000D01*
X98171000Y-81661000D02*
X94932500Y-81661000D01*
X94932500Y-81661000D02*
X93091000Y-79819500D01*
X93091000Y-79819500D02*
X93091000Y-74549000D01*
X93091000Y-74549000D02*
X94043500Y-73596500D01*
X106235500Y-89885500D02*
X106235500Y-87312500D01*
X106235500Y-87312500D02*
X106235500Y-82486500D01*
X103060500Y-85106000D02*
X104085500Y-85106000D01*
X104085500Y-85106000D02*
X106235500Y-87256000D01*
X106235500Y-87256000D02*
X106235500Y-87312500D01*
X103060500Y-91860500D02*
X104260500Y-91860500D01*
X104260500Y-91860500D02*
X106235500Y-89885500D01*
X116649500Y-81243500D02*
X116649500Y-74637900D01*
X116649500Y-74637900D02*
X114300000Y-72288400D01*
X114300000Y-72288400D02*
X114300000Y-72136000D01*
X137287000Y-71437500D02*
X131635500Y-71437500D01*
X138430000Y-87439500D02*
X138430000Y-76454000D01*
X138430000Y-76454000D02*
X138430000Y-72580500D01*
X137040000Y-77978000D02*
X138430000Y-76588000D01*
X135890000Y-77978000D02*
X137040000Y-77978000D01*
X138430000Y-76588000D02*
X138430000Y-76454000D01*
X117348000Y-71437500D02*
X116649500Y-72136000D01*
X138430000Y-72580500D02*
X137287000Y-71437500D01*
X138430000Y-97980500D02*
X138430000Y-87439500D01*
X135890000Y-88820000D02*
X137040000Y-88820000D01*
X137040000Y-88820000D02*
X138420500Y-87439500D01*
X138420500Y-87439500D02*
X138430000Y-87439500D01*
X138430000Y-102282000D02*
X138430000Y-97980500D01*
X135890000Y-99742000D02*
X137040000Y-99742000D01*
X138430000Y-98352000D02*
X138430000Y-97980500D01*
X137040000Y-99742000D02*
X138430000Y-98352000D01*
X135890000Y-110664000D02*
X138430000Y-110663999D01*
X138430000Y-110663999D02*
X138430000Y-102282000D01*
X108585000Y-101219000D02*
X108251500Y-101552500D01*
X108251500Y-101552500D02*
X107124500Y-101552500D01*
X108585000Y-100584000D02*
X108585000Y-101219000D01*
X98044000Y-105730000D02*
X97917000Y-105603000D01*
X97917000Y-105603000D02*
X97917000Y-103698000D01*
X97917000Y-103698000D02*
X97919500Y-103695500D01*
X94996000Y-117449600D02*
X94996000Y-117602000D01*
X99060000Y-100995480D02*
X100680520Y-100995480D01*
X100680520Y-100995480D02*
X100901500Y-100774500D01*
X100647500Y-93726000D02*
X100520500Y-93599000D01*
X106194608Y-111373290D02*
X106194608Y-112943892D01*
X106194608Y-112943892D02*
X106045000Y-113093500D01*
X121747000Y-108519000D02*
X120917161Y-109348839D01*
X122047000Y-108519000D02*
X121747000Y-108519000D01*
X120917161Y-109348839D02*
X120838660Y-109348839D01*
X110812000Y-100514000D02*
X112960000Y-100514000D01*
X112960000Y-100514000D02*
X112966500Y-100520500D01*
X111826000Y-111506000D02*
X111826000Y-110678000D01*
X111826000Y-110678000D02*
X112966500Y-109537500D01*
X127403860Y-84178140D02*
X127403860Y-82329020D01*
X127403860Y-85280500D02*
X127403860Y-84178140D01*
X116649500Y-72136000D02*
X116283011Y-72136000D01*
X118303000Y-83947000D02*
X118303000Y-82897000D01*
X118303000Y-82897000D02*
X116649500Y-81243500D01*
X109283500Y-77532500D02*
X109283500Y-74866500D01*
X106012000Y-79629000D02*
X107187000Y-79629000D01*
X107187000Y-79629000D02*
X109283500Y-77532500D01*
X111826000Y-111806000D02*
X111826000Y-111506000D01*
X127403860Y-81828640D02*
X127403860Y-82329020D01*
X116283011Y-72136000D02*
X114300000Y-72136000D01*
X131127500Y-117983000D02*
X135890000Y-113220500D01*
X135890000Y-113220500D02*
X135890000Y-110664000D01*
X118303000Y-86042500D02*
X118303000Y-88138000D01*
X118303000Y-83947000D02*
X118303000Y-86042500D01*
X110104000Y-111506000D02*
X111826000Y-111506000D01*
X107124500Y-100388500D02*
X107124500Y-99488500D01*
X107124500Y-99488500D02*
X107124500Y-101552500D01*
X106235500Y-82486500D02*
X106235500Y-79852500D01*
X106235500Y-79852500D02*
X106012000Y-79629000D01*
X99060000Y-100995480D02*
X99060000Y-100646230D01*
X99060000Y-100646230D02*
X100520500Y-99185730D01*
X100520500Y-99185730D02*
X100520500Y-95523000D01*
X100520500Y-95523000D02*
X100520500Y-93599000D01*
X103060500Y-91860500D02*
X102259000Y-91860500D01*
X102259000Y-91860500D02*
X100520500Y-93599000D01*
X113233200Y-99714000D02*
X113233200Y-99657000D01*
X113233200Y-99657000D02*
X113976200Y-98914000D01*
X110812000Y-98114000D02*
X113201600Y-98114000D01*
X113201600Y-98114000D02*
X113233200Y-98145600D01*
X113233200Y-98145600D02*
X113233200Y-99714000D01*
X113233200Y-99714000D02*
X110812000Y-99714000D01*
X110812000Y-98114000D02*
X110818200Y-98120200D01*
X110818200Y-98120200D02*
X113182400Y-98120200D01*
X113976200Y-98914000D02*
X118316998Y-98914000D01*
X118316998Y-98914000D02*
X119312000Y-98914000D01*
X110896400Y-92518350D02*
X110896400Y-93192600D01*
X110904070Y-91310680D02*
X110904070Y-92510680D01*
X110904070Y-92510680D02*
X110896400Y-92518350D01*
X122682000Y-90313000D02*
X122682000Y-89413000D01*
X122682000Y-89413000D02*
X124401500Y-87693500D01*
X124401500Y-87693500D02*
X124981000Y-87693500D01*
X124981000Y-87693500D02*
X125881000Y-87693500D01*
X103060500Y-88860500D02*
X103060500Y-87106000D01*
X101351000Y-104140000D02*
X100965000Y-104140000D01*
X102568500Y-103822500D02*
X101668500Y-103822500D01*
X101668500Y-103822500D02*
X101351000Y-104140000D01*
X108451000Y-103251000D02*
X108839000Y-103251000D01*
X107124500Y-103552500D02*
X108149500Y-103552500D01*
X108149500Y-103552500D02*
X108451000Y-103251000D01*
X105791000Y-99302000D02*
X105791000Y-98869500D01*
X104518500Y-99624500D02*
X105468500Y-99624500D01*
X105468500Y-99624500D02*
X105791000Y-99302000D01*
X90741500Y-94711500D02*
X90741500Y-87209160D01*
X90741500Y-87209160D02*
X90892160Y-87058500D01*
X90892160Y-87058500D02*
X92329000Y-87058500D01*
X92773500Y-95543500D02*
X91573500Y-95543500D01*
X91573500Y-95543500D02*
X90741500Y-94711500D01*
X106194608Y-105752270D02*
X107244608Y-105752270D01*
X107244608Y-105752270D02*
X108045338Y-106553000D01*
X124582000Y-98298000D02*
X123761500Y-98298000D01*
X125349000Y-99965000D02*
X125349000Y-99065000D01*
X125349000Y-99065000D02*
X124582000Y-98298000D01*
X125402290Y-83629500D02*
X124523500Y-83629500D01*
X125902720Y-85280500D02*
X125902720Y-84129930D01*
X125902720Y-84129930D02*
X125402290Y-83629500D01*
X126111000Y-103664000D02*
X130131500Y-103664000D01*
X130131500Y-103664000D02*
X131508500Y-105041000D01*
X131508500Y-105041000D02*
X131508500Y-105791000D01*
X131508500Y-105791000D02*
X135763000Y-105791000D01*
X135763000Y-105791000D02*
X135890000Y-105664000D01*
X110950500Y-91264250D02*
X110904070Y-91310680D01*
X125881000Y-87693500D02*
X125881000Y-85302220D01*
X125881000Y-85302220D02*
X125902720Y-85280500D01*
X131508500Y-95001000D02*
X135631000Y-95001000D01*
X135631000Y-95001000D02*
X135890000Y-94742000D01*
X125349000Y-99965000D02*
X122683780Y-99965000D01*
X122683780Y-99965000D02*
X122682000Y-99966780D01*
X122682000Y-99966780D02*
X121629220Y-98914000D01*
X121629220Y-98914000D02*
X119312000Y-98914000D01*
X124079000Y-103664000D02*
X126111000Y-103664000D01*
X104162608Y-105752270D02*
X106194608Y-105752270D01*
X102130608Y-105752270D02*
X104162608Y-105752270D01*
X100098608Y-105752270D02*
X102130608Y-105752270D01*
X107124500Y-97488500D02*
X107750000Y-98114000D01*
X107750000Y-98114000D02*
X110812000Y-98114000D01*
X107124500Y-97488500D02*
X104806500Y-97488500D01*
X104806500Y-97488500D02*
X104568500Y-97726500D01*
X104518500Y-99624500D02*
X104518500Y-97776500D01*
X104518500Y-97776500D02*
X104568500Y-97726500D01*
X102568500Y-103822500D02*
X102568500Y-101974500D01*
X102568500Y-101974500D02*
X102618500Y-101924500D01*
X104140000Y-74422000D02*
X104140000Y-72136000D01*
X106012000Y-75819000D02*
X105537000Y-75819000D01*
X105537000Y-75819000D02*
X104140000Y-74422000D01*
X92329000Y-87058500D02*
X98044000Y-87058500D01*
X98044000Y-87058500D02*
X98234500Y-87249000D01*
X103060500Y-88860500D02*
X99846000Y-88860500D01*
X99846000Y-88860500D02*
X98234500Y-87249000D01*
X103068500Y-88852500D02*
X103060500Y-88860500D01*
D45*
X102618500Y-99624500D02*
X102618500Y-100524500D01*
X102618500Y-100524500D02*
X102868500Y-100774500D01*
X102868500Y-100774500D02*
X105219500Y-100774500D01*
X105219500Y-100774500D02*
X105664000Y-101219000D01*
X105664000Y-101219000D02*
X105664000Y-101802002D01*
X105664000Y-101802002D02*
X106414498Y-102552500D01*
X106414498Y-102552500D02*
X108204000Y-102552500D01*
X109442500Y-101314000D02*
X110812000Y-101314000D01*
X108204000Y-102552500D02*
X109442500Y-101314000D01*
X102568500Y-97726500D02*
X102568500Y-99574500D01*
X102568500Y-99574500D02*
X102618500Y-99624500D01*
X110812000Y-102114000D02*
X110812000Y-102639000D01*
X110812000Y-102639000D02*
X108993500Y-104457500D01*
X108993500Y-104457500D02*
X105953500Y-104457500D01*
X105953500Y-104457500D02*
X105318500Y-103822500D01*
X105318500Y-103822500D02*
X104568500Y-103822500D01*
X110287000Y-102114000D02*
X110812000Y-102114000D01*
X104518500Y-101924500D02*
X104518500Y-103772500D01*
X104518500Y-103772500D02*
X104568500Y-103822500D01*
X122047000Y-106619000D02*
X123874000Y-106619000D01*
X123874000Y-106619000D02*
X124079000Y-106414000D01*
X124079000Y-106414000D02*
X124079000Y-105664000D01*
X120362000Y-101314000D02*
X119312000Y-101314000D01*
X120437001Y-101389001D02*
X120362000Y-101314000D01*
X120437001Y-104507001D02*
X120437001Y-101389001D01*
X121147000Y-105217000D02*
X120437001Y-104507001D01*
X122047000Y-105217000D02*
X121147000Y-105217000D01*
X124079000Y-105664000D02*
X126111000Y-105664000D01*
X122047000Y-105217000D02*
X122047000Y-106619000D01*
X121732000Y-101965760D02*
X121732000Y-100332500D01*
X121732000Y-100332500D02*
X121113500Y-99714000D01*
X121113500Y-99714000D02*
X119312000Y-99714000D01*
X123632000Y-101965760D02*
X125348240Y-101965760D01*
X125348240Y-101965760D02*
X125349000Y-101965000D01*
X121732000Y-101965760D02*
X123632000Y-101965760D01*
X122047000Y-103317000D02*
X122047000Y-102280760D01*
X122047000Y-102280760D02*
X121732000Y-101965760D01*
X104162608Y-107652270D02*
X104162608Y-109275250D01*
X104668236Y-112448520D02*
X105092500Y-112448520D01*
X104279628Y-112448520D02*
X104668236Y-112448520D01*
X104162608Y-112331500D02*
X104279628Y-112448520D01*
X114662000Y-105592004D02*
X111288004Y-108966000D01*
X111231764Y-108966000D02*
X110807500Y-108966000D01*
X114662000Y-103564000D02*
X114662000Y-105592004D01*
X111288004Y-108966000D02*
X111231764Y-108966000D01*
X104162608Y-112331500D02*
X104162608Y-113007392D01*
X104162608Y-111373290D02*
X104162608Y-112331500D01*
X104162608Y-113007392D02*
X104140000Y-113030000D01*
X102130608Y-107652270D02*
X102130608Y-109275250D01*
X109791500Y-109855000D02*
X111035415Y-109855000D01*
X111035415Y-109855000D02*
X115462000Y-105428415D01*
X115462000Y-105428415D02*
X115462000Y-104614000D01*
X115462000Y-104614000D02*
X115462000Y-103564000D01*
X102130608Y-112331500D02*
X102130608Y-113007392D01*
X102130608Y-111373290D02*
X102130608Y-112331500D01*
X102130608Y-112331500D02*
X103060500Y-112331500D01*
X102130608Y-113007392D02*
X102108000Y-113030000D01*
X100098608Y-107652270D02*
X100098608Y-109275250D01*
X100098608Y-111373290D02*
X100098608Y-110523850D01*
X100098608Y-110523850D02*
X100322958Y-110299500D01*
X100322958Y-110299500D02*
X108621004Y-110299500D01*
X108621004Y-110299500D02*
X108801505Y-110480001D01*
X108801505Y-110480001D02*
X111046825Y-110480001D01*
X111046825Y-110480001D02*
X116262000Y-105264826D01*
X116262000Y-105264826D02*
X116262000Y-103564000D01*
X100098608Y-111373290D02*
X100098608Y-113007392D01*
X100098608Y-113007392D02*
X100076000Y-113030000D01*
X106194608Y-107652270D02*
X106194608Y-109275250D01*
X112395000Y-93319600D02*
X112395000Y-84832000D01*
X112395000Y-84832000D02*
X111315500Y-83752500D01*
X111315500Y-83752500D02*
X111315500Y-82486500D01*
X110868802Y-94845798D02*
X112395000Y-93319600D01*
X110820200Y-94845798D02*
X110868802Y-94845798D01*
X110812000Y-96514000D02*
X110812000Y-94853998D01*
X110812000Y-94853998D02*
X110820200Y-94845798D01*
X111315500Y-82638900D02*
X111315500Y-82486500D01*
X98806000Y-103282000D02*
X98806000Y-103124000D01*
X99819500Y-103695500D02*
X99219500Y-103695500D01*
X99219500Y-103695500D02*
X98806000Y-103282000D01*
X99819500Y-103695500D02*
X99819500Y-102938498D01*
X101743499Y-96841499D02*
X101921499Y-96663499D01*
X99819500Y-102938498D02*
X101743499Y-101014499D01*
X101743499Y-101014499D02*
X101743499Y-96841499D01*
X101921499Y-96663499D02*
X109111499Y-96663499D01*
X109111499Y-96663499D02*
X109762000Y-97314000D01*
X109762000Y-97314000D02*
X110812000Y-97314000D01*
X97689000Y-108585000D02*
X97644284Y-108585000D01*
X98044000Y-108230000D02*
X97689000Y-108585000D01*
X97644284Y-108585000D02*
X97220020Y-108585000D01*
X98044000Y-107630000D02*
X98044000Y-108230000D01*
X112262000Y-103564000D02*
X111737000Y-103564000D01*
X111737000Y-103564000D02*
X110335500Y-104965500D01*
X110335500Y-104965500D02*
X99300376Y-104965500D01*
X99300376Y-104965500D02*
X99019001Y-105246875D01*
X99019001Y-105246875D02*
X99019001Y-106510464D01*
X99019001Y-106510464D02*
X98044000Y-107485465D01*
X98044000Y-107485465D02*
X98044000Y-107630000D01*
X94043500Y-108267500D02*
X93980000Y-108204000D01*
X107378500Y-111280500D02*
X107378500Y-111125000D01*
X108204000Y-111506000D02*
X107604000Y-111506000D01*
X107604000Y-111506000D02*
X107378500Y-111280500D01*
X113062000Y-103564000D02*
X113062000Y-105786498D01*
X110007514Y-108840984D02*
X110007514Y-108959589D01*
X113062000Y-105786498D02*
X110007514Y-108840984D01*
X108204000Y-111506000D02*
X108204000Y-111206000D01*
X108204000Y-111506000D02*
X108204000Y-115300000D01*
X108982000Y-116078000D02*
X109982000Y-116078000D01*
X108204000Y-115300000D02*
X108982000Y-116078000D01*
X114302620Y-108108118D02*
X114602619Y-107808119D01*
X113726000Y-111506000D02*
X113726000Y-108684738D01*
X113726000Y-108684738D02*
X114302620Y-108108118D01*
X113726000Y-111506000D02*
X116776500Y-111506000D01*
X118618000Y-113347500D02*
X118618000Y-116078000D01*
X116776500Y-111506000D02*
X118618000Y-113347500D01*
X113855500Y-104620500D02*
X113855500Y-105473500D01*
X113862000Y-103564000D02*
X113862000Y-104614000D01*
X113862000Y-104614000D02*
X113855500Y-104620500D01*
X125476971Y-119171601D02*
X127398899Y-119171601D01*
X124206000Y-114236500D02*
X124206000Y-117900630D01*
X117062000Y-103564000D02*
X117062000Y-107092500D01*
X117062000Y-107092500D02*
X124206000Y-114236500D01*
X127398899Y-119171601D02*
X127723901Y-118846599D01*
X124206000Y-117900630D02*
X125476971Y-119171601D01*
X127723901Y-118846599D02*
X128587500Y-117983000D01*
X122349012Y-107744012D02*
X122448999Y-107843999D01*
X120950599Y-107744012D02*
X122349012Y-107744012D01*
X122956999Y-107843999D02*
X127317500Y-112204500D01*
X118169000Y-103564000D02*
X120621988Y-106016988D01*
X120621988Y-106016988D02*
X120621988Y-107415401D01*
X117862000Y-103564000D02*
X118169000Y-103564000D01*
X122448999Y-107843999D02*
X122956999Y-107843999D01*
X120621988Y-107415401D02*
X120950599Y-107744012D01*
X127317500Y-112204500D02*
X127317500Y-115932130D01*
X127317500Y-115932130D02*
X128016971Y-116631601D01*
X128016971Y-116631601D02*
X131052499Y-116631601D01*
X131052499Y-116631601D02*
X131127500Y-116556600D01*
X131127500Y-116556600D02*
X131127500Y-115443000D01*
X123043414Y-107294001D02*
X128587500Y-112838087D01*
X119312000Y-104070590D02*
X121071999Y-105830589D01*
X119312000Y-102114000D02*
X119312000Y-104070590D01*
X121136999Y-107294001D02*
X123043414Y-107294001D01*
X121071999Y-107229001D02*
X121136999Y-107294001D01*
X128587500Y-112838087D02*
X128587500Y-114221686D01*
X128587500Y-114221686D02*
X128587500Y-115443000D01*
X121071999Y-105830589D02*
X121071999Y-107229001D01*
X119312000Y-97314000D02*
X120362000Y-97314000D01*
X120362000Y-97314000D02*
X126559011Y-91116989D01*
X126559011Y-91116989D02*
X131006011Y-91116989D01*
X131006011Y-91116989D02*
X135826500Y-86296500D01*
X135826500Y-86296500D02*
X135866500Y-86296500D01*
X135866500Y-86296500D02*
X135890000Y-86320000D01*
X119312000Y-96514000D02*
X120501502Y-96514000D01*
X120501502Y-96514000D02*
X126348524Y-90666978D01*
X126348524Y-90666978D02*
X130694022Y-90666978D01*
X130694022Y-90666978D02*
X131953000Y-89408000D01*
X131953000Y-89408000D02*
X131953000Y-79415000D01*
X135140001Y-76227999D02*
X135890000Y-75478000D01*
X131953000Y-79415000D02*
X135140001Y-76227999D01*
X127381000Y-104711500D02*
X130360500Y-107691000D01*
X123317000Y-104711500D02*
X127381000Y-104711500D01*
X119312000Y-100514000D02*
X120643500Y-100514000D01*
X120643500Y-100514000D02*
X121006949Y-100877449D01*
X121006949Y-100877449D02*
X121006949Y-103861951D01*
X121006949Y-103861951D02*
X121475498Y-104330500D01*
X121475498Y-104330500D02*
X122936000Y-104330500D01*
X122936000Y-104330500D02*
X123317000Y-104711500D01*
X130360500Y-107691000D02*
X131508500Y-107691000D01*
X135890000Y-108164000D02*
X131981500Y-108164000D01*
X131981500Y-108164000D02*
X131508500Y-107691000D01*
X131508500Y-96901000D02*
X131889500Y-97282000D01*
X131889500Y-97282000D02*
X135850000Y-97282000D01*
X135850000Y-97282000D02*
X135890000Y-97242000D01*
X131208500Y-96901000D02*
X131508500Y-96901000D01*
X128833348Y-91630500D02*
X130533499Y-93330651D01*
X130533499Y-93330651D02*
X130533499Y-96225999D01*
X126709998Y-91630500D02*
X128833348Y-91630500D01*
X130533499Y-96225999D02*
X131208500Y-96901000D01*
X120226498Y-98114000D02*
X126709998Y-91630500D01*
X119312000Y-98114000D02*
X120226498Y-98114000D01*
X120203000Y-86042500D02*
X120803000Y-86042500D01*
X120803000Y-86042500D02*
X121158000Y-85687500D01*
X121158000Y-85687500D02*
X121158000Y-82169000D01*
X121158000Y-82169000D02*
X125476000Y-77851000D01*
X125476000Y-77851000D02*
X128039000Y-77851000D01*
X128039000Y-77851000D02*
X129460000Y-76430000D01*
X129460000Y-76430000D02*
X129460000Y-74930000D01*
X119527999Y-89387001D02*
X117862000Y-91053000D01*
X117862000Y-91053000D02*
X117862000Y-95064000D01*
X120203000Y-86042500D02*
X120203000Y-86342500D01*
X120203000Y-86342500D02*
X119527999Y-87017501D01*
X119527999Y-87017501D02*
X119527999Y-89387001D01*
X119077988Y-85372012D02*
X120203000Y-84247000D01*
X119077988Y-89200601D02*
X119077988Y-85372012D01*
X120203000Y-84247000D02*
X120203000Y-83947000D01*
X117062000Y-91216589D02*
X119077988Y-89200601D01*
X117062000Y-95064000D02*
X117062000Y-91216589D01*
X120203000Y-83947000D02*
X120203000Y-81727000D01*
X120203000Y-81727000D02*
X124460000Y-77470000D01*
X124460000Y-76697766D02*
X124460000Y-74930000D01*
X124460000Y-77470000D02*
X124460000Y-76697766D01*
X111887000Y-79629000D02*
X113857999Y-77658001D01*
X111760000Y-73342500D02*
X111760000Y-72136000D01*
X113857999Y-77658001D02*
X113857999Y-76947999D01*
X113857999Y-76947999D02*
X114097998Y-76708000D01*
X114097998Y-76708000D02*
X115518002Y-76708000D01*
X115518002Y-76708000D02*
X115758001Y-76468001D01*
X115758001Y-76468001D02*
X115758001Y-74947999D01*
X113093500Y-74676000D02*
X111760000Y-73342500D01*
X115758001Y-74947999D02*
X115486002Y-74676000D01*
X115486002Y-74676000D02*
X113093500Y-74676000D01*
X111760000Y-71983600D02*
X111760000Y-72136000D01*
X113862000Y-95064000D02*
X113862000Y-81604000D01*
X113862000Y-81604000D02*
X111887000Y-79629000D01*
X111887000Y-79629000D02*
X111412000Y-79629000D01*
X113062000Y-95064000D02*
X113062000Y-83788000D01*
X113062000Y-83788000D02*
X113093500Y-83756500D01*
X109220000Y-73077000D02*
X109220000Y-72136000D01*
X111412000Y-75269000D02*
X109220000Y-73077000D01*
X111412000Y-75819000D02*
X111412000Y-75269000D01*
X113093500Y-76581000D02*
X112331500Y-75819000D01*
X112331500Y-75819000D02*
X111412000Y-75819000D01*
X97536000Y-117602000D02*
X97536000Y-117449600D01*
X97536000Y-117449600D02*
X99019001Y-115966599D01*
X99019001Y-115966599D02*
X99019001Y-107146875D01*
X99019001Y-107146875D02*
X99485876Y-106680000D01*
X99485876Y-106680000D02*
X106807340Y-106680000D01*
X106807340Y-106680000D02*
X107442340Y-107315000D01*
X107442340Y-107315000D02*
X110680500Y-107315000D01*
X110680500Y-107315000D02*
X112014000Y-105981500D01*
X112014000Y-105981500D02*
X112014000Y-105219500D01*
X112262000Y-95064000D02*
X112262000Y-96387000D01*
X112262000Y-96387000D02*
X112712500Y-96837500D01*
X108775500Y-82486500D02*
X108775500Y-80520500D01*
X108775500Y-80520500D02*
X110937000Y-78359000D01*
X110937000Y-78359000D02*
X111412000Y-78359000D01*
X111412000Y-77089000D02*
X111412000Y-78359000D01*
X100076000Y-114930000D02*
X100076000Y-115530000D01*
X100076000Y-115530000D02*
X100076000Y-117602000D01*
X102108000Y-114930000D02*
X102616000Y-115438000D01*
X102616000Y-115438000D02*
X102616000Y-117602000D01*
X104140000Y-114930000D02*
X104440000Y-114930000D01*
X104440000Y-114930000D02*
X105156000Y-115646000D01*
X105156000Y-115646000D02*
X105156000Y-116336000D01*
X105156000Y-116336000D02*
X105156000Y-117602000D01*
X103378000Y-76774000D02*
X98756000Y-76774000D01*
X98756000Y-76774000D02*
X97296000Y-78234000D01*
X106012000Y-77089000D02*
X105885000Y-76962000D01*
X105885000Y-76962000D02*
X103566000Y-76962000D01*
X103566000Y-76962000D02*
X103378000Y-76774000D01*
X103378000Y-78674000D02*
X98299002Y-78674000D01*
X98299002Y-78674000D02*
X97764001Y-79209001D01*
X97764001Y-79209001D02*
X96751001Y-79209001D01*
X96751001Y-79209001D02*
X95405999Y-77863999D01*
X95405999Y-77863999D02*
X94756000Y-77214000D01*
X103378000Y-78674000D02*
X103566000Y-78486000D01*
X103566000Y-78486000D02*
X105885000Y-78486000D01*
X105885000Y-78486000D02*
X106012000Y-78359000D01*
X120108930Y-91315320D02*
X120108930Y-88232070D01*
X120108930Y-88232070D02*
X120203000Y-88138000D01*
X120398320Y-91315320D02*
X121396000Y-92313000D01*
X121396000Y-92313000D02*
X122682000Y-92313000D01*
X120108930Y-91315320D02*
X120398320Y-91315320D01*
X126047500Y-115443000D02*
X125183901Y-114579401D01*
X118173500Y-106405764D02*
X118173500Y-105981500D01*
X118173500Y-107567590D02*
X118173500Y-106405764D01*
X125183901Y-114579401D02*
X125183901Y-114577991D01*
X125183901Y-114577991D02*
X118173500Y-107567590D01*
X120015000Y-93345000D02*
X120015000Y-91409250D01*
X120015000Y-91409250D02*
X120108930Y-91315320D01*
X114808000Y-92964000D02*
X114808000Y-94918000D01*
X114808000Y-77708000D02*
X114808000Y-92964000D01*
X114808000Y-94918000D02*
X114662000Y-95064000D01*
X114808000Y-75708000D02*
X112919000Y-75708000D01*
X107251500Y-70548500D02*
X106680000Y-71120000D01*
X112919000Y-75708000D02*
X110490000Y-73279000D01*
X110490000Y-73279000D02*
X110490000Y-71120000D01*
X110490000Y-71120000D02*
X109918500Y-70548500D01*
X109918500Y-70548500D02*
X107251500Y-70548500D01*
X106680000Y-71120000D02*
X106680000Y-72136000D01*
D44*
X99060000Y-96997520D02*
X99060000Y-96648270D01*
X99060000Y-96648270D02*
X96010730Y-93599000D01*
X96010730Y-93599000D02*
X95948500Y-93599000D01*
X92773500Y-92543500D02*
X92773500Y-90043000D01*
X92773500Y-90043000D02*
X92329000Y-89598500D01*
X92773500Y-92543500D02*
X94893000Y-92543500D01*
X94893000Y-92543500D02*
X95948500Y-93599000D01*
X124904500Y-91186000D02*
X127127000Y-88963500D01*
X127127000Y-88963500D02*
X127911000Y-88963500D01*
X127911000Y-88963500D02*
X128881000Y-87993500D01*
X128881000Y-87993500D02*
X128881000Y-87693500D01*
X124904500Y-91186000D02*
X124904500Y-91162000D01*
X128244600Y-100647500D02*
X124904500Y-97307400D01*
X124904500Y-97307400D02*
X124904500Y-94361000D01*
X128397000Y-100647500D02*
X128244600Y-100647500D01*
X128881000Y-87693500D02*
X128881000Y-85304500D01*
X128881000Y-85304500D02*
X128905000Y-85280500D01*
D45*
X116693400Y-96545400D02*
X117076136Y-96545400D01*
X116262000Y-95064000D02*
X116262000Y-96114000D01*
X116262000Y-96114000D02*
X116693400Y-96545400D01*
X117076136Y-96545400D02*
X117500400Y-96545400D01*
X117011002Y-97663002D02*
X117348000Y-97663002D01*
X115462000Y-96114000D02*
X117011002Y-97663002D01*
X115462000Y-95064000D02*
X115462000Y-96114000D01*
M02*
