M48
;DRILL file {KiCad 4.0.2-stable} date 3/23/2016 2:13:13 PM
;FORMAT={3:3/ absolute / metric / suppress leading zeros}
FMAT,2
METRIC,TZ
T1C0.400
T2C0.900
T3C1.016
T4C1.300
%
G90
G05
M71
T1
X97220Y-108585
X98806Y-103124
X100902Y-100774
X100965Y-104140
X103061Y-112331
X103061Y-112331
X105093Y-112449
X105791Y-98870
X106045Y-113093
X107378Y-111125
X108045Y-106553
X108585Y-100584
X108839Y-103251
X109283Y-74867
X109792Y-109855
X110008Y-108960
X110807Y-108966
X110896Y-93193
X112014Y-105219
X112713Y-96837
X112967Y-100521
X112967Y-109538
X113093Y-76581
X113093Y-83757
X113856Y-105474
X114603Y-107808
X114808Y-92964
X117348Y-97663
X117500Y-96545
X118173Y-105982
X120015Y-93345
X120839Y-109349
X123762Y-98298
X124523Y-83629
X124905Y-91186
X124905Y-94361
T2
X94756Y-75174
X94756Y-77214
X94756Y-79254
X97296Y-76194
X97296Y-78234
X97296Y-80274
T3
X92329Y-87058
X92329Y-89599
X92456Y-117602
X93980Y-99568
X93980Y-102068
X93980Y-108204
X93980Y-110704
X94996Y-117602
X97536Y-117602
X100076Y-117602
X102616Y-117602
X104140Y-72136
X105156Y-117602
X106236Y-82487
X106680Y-72136
X108776Y-82487
X109220Y-72136
X109982Y-116078
X111316Y-82487
X111760Y-72136
X112482Y-116078
X114300Y-72136
X118618Y-116078
X121118Y-116078
X126048Y-115443
X126048Y-117983
X128397Y-93027
X128397Y-95568
X128397Y-98108
X128397Y-100648
X128588Y-115443
X128588Y-117983
X131128Y-115443
X131128Y-117983
X135890Y-72978
X135890Y-75478
X135890Y-77978
X135890Y-83820
X135890Y-86320
X135890Y-88820
X135890Y-94742
X135890Y-97242
X135890Y-99742
X135890Y-105664
X135890Y-108164
X135890Y-110664
T4
X119460Y-74930
X124460Y-74930
X129460Y-74930
T0
M30
